{
copyright = "Copyright (c) 2015, Cadson Demak (info@cadsondemak.com)";
customParameters = (
{
name = vendorID;
value = CDK;
},
{
name = description;
value = "Copyright (c) 2015, Cadson Demak (info@cadsondemak.com)";
},
{
name = license;

glyphs = (
{
glyphname = A;
lastChange = "2015-12-01 01:43:13 +0000";
layers = (
{
layerId = "3EB4D4D8-7151-4DFB-AE23-ECE37F7A1310";
name = "Bold Italic";
paths = (
{
closed = 1;
nodes = (
"192 0 LINE",
"273 133 LINE",
"502 133 LINE",
"526 0 LINE",
"728 0 LINE",
"597 699 LINE",
"398 699 LINE",
"-30 0 LINE"
);
},
{
closed = 1;
nodes = (
"462 486 LINE",
"487 290 LINE",
"353 290 LINE"
);
}
);
width = 798;
}
);
leftKerningGroup = A;
note = A;
rightKerningGroup = A;
unicode = 0041;
},
{
glyphname = Aacute;
lastChange = "2015-12-01 01:43:10 +0000";
layers = (
{
layerId = "3EB4D4D8-7151-4DFB-AE23-ECE37F7A1310";
name = "Bold Italic";
paths = (
{
closed = 1;
nodes = (
"192 0 LINE",
"273 133 LINE",
"502 133 LINE",
"526 0 LINE",
"728 0 LINE",
"597 699 LINE",
"398 699 LINE",
"-30 0 LINE"
);
},
{
closed = 1;
nodes = (
"462 486 LINE",
"487 290 LINE",
"353 290 LINE"
);
},
{
closed = 1;
nodes = (
"584 737 LINE",
"715 917 LINE",
"514 917 LINE",
"407 737 LINE"
);
}
);
width = 798;
}
);
leftKerningGroup = A;
note = Aacute;
rightKerningGroup = A;
unicode = 00C1;
},
{
glyphname = Abreve;
lastChange = "2015-12-01 01:43:12 +0000";
layers = (
{
layerId = "3EB4D4D8-7151-4DFB-AE23-ECE37F7A1310";
name = "Bold Italic";
paths = (
{
closed = 1;
nodes = (
"192 0 LINE",
"273 133 LINE",
"502 133 LINE",
"526 0 LINE",
"728 0 LINE",
"597 699 LINE",
"398 699 LINE",
"-30 0 LINE"
);
},
{
closed = 1;
nodes = (
"462 486 LINE",
"487 290 LINE",
"353 290 LINE"
);
},
{
closed = 1;
nodes = (
"610 742 OFFCURVE",
"694 813 OFFCURVE",
"718 926 CURVE",
"564 926 LINE",
"556 886 OFFCURVE",
"536 866 OFFCURVE",
"507 866 CURVE SMOOTH",
"477 866 OFFCURVE",
"466 886 OFFCURVE",
"474 926 CURVE",
"331 926 LINE",
"307 813 OFFCURVE",
"361 742 OFFCURVE",
"485 742 CURVE SMOOTH"
);
}
);
width = 798;
}
);
leftKerningGroup = A;
note = Abreve;
rightKerningGroup = A;
unicode = 0102;
},
{
glyphname = Abreveacute;
lastChange = "2015-12-01 01:43:13 +0000";
layers = (
{
layerId = "3EB4D4D8-7151-4DFB-AE23-ECE37F7A1310";
name = "Bold Italic";
paths = (
{
closed = 1;
nodes = (
"192 0 LINE",
"273 133 LINE",
"502 133 LINE",
"526 0 LINE",
"728 0 LINE",
"597 699 LINE",
"398 699 LINE",
"-30 0 LINE"
);
},
{
closed = 1;
nodes = (
"462 486 LINE",
"487 290 LINE",
"353 290 LINE"
);
},
{
closed = 1;
nodes = (
"614 741 OFFCURVE",
"700 800 OFFCURVE",
"720 897 CURVE",
"594 897 LINE",
"587 862 OFFCURVE",
"565 844 OFFCURVE",
"529 844 CURVE SMOOTH",
"492 844 OFFCURVE",
"478 862 OFFCURVE",
"485 897 CURVE",
"358 897 LINE",
"338 800 OFFCURVE",
"400 741 OFFCURVE",
"507 741 CURVE SMOOTH"
);
},
{
closed = 1;
nodes = (
"615 917 LINE",
"717 1051 LINE",
"553 1051 LINE",
"473 917 LINE"
);
}
);
width = 798;
}
);
leftKerningGroup = A;
note = Abreveacute;
rightKerningGroup = A;
unicode = 1EAE;
},
{
glyphname = Abrevedotbelow;
lastChange = "2015-12-01 01:43:09 +0000";
layers = (
{
layerId = "3EB4D4D8-7151-4DFB-AE23-ECE37F7A1310";
name = "Bold Italic";
paths = (
{
closed = 1;
nodes = (
"192 0 LINE",
"273 133 LINE",
"502 133 LINE",
"526 0 LINE",
"728 0 LINE",
"597 699 LINE",
"398 699 LINE",
"-30 0 LINE"
);
},
{
closed = 1;
nodes = (
"350 -210 OFFCURVE",
"394 -174 OFFCURVE",
"403 -128 CURVE SMOOTH",
"413 -82 OFFCURVE",
"385 -46 OFFCURVE",
"341 -46 CURVE SMOOTH",
"296 -46 OFFCURVE",
"250 -82 OFFCURVE",
"240 -128 CURVE SMOOTH",
"231 -174 OFFCURVE",
"261 -210 OFFCURVE",
"306 -210 CURVE SMOOTH"
);
},
{
closed = 1;
nodes = (
"462 486 LINE",
"487 290 LINE",
"353 290 LINE"
);
},
{
closed = 1;
nodes = (
"610 741 OFFCURVE",
"694 812 OFFCURVE",
"718 925 CURVE",
"564 925 LINE",
"556 885 OFFCURVE",
"536 865 OFFCURVE",
"507 865 CURVE SMOOTH",
"477 865 OFFCURVE",
"466 885 OFFCURVE",
"474 925 CURVE",
"331 925 LINE",
"307 812 OFFCURVE",
"361 741 OFFCURVE",
"485 741 CURVE SMOOTH"
);
}
);
width = 798;
}
);
leftKerningGroup = A;
note = Abrevedotbelow;
rightKerningGroup = A;
unicode = 1EB6;
},
{
glyphname = Abrevegrave;
lastChange = "2015-12-01 01:43:12 +0000";
layers = (
{
layerId = "3EB4D4D8-7151-4DFB-AE23-ECE37F7A1310";
name = "Bold Italic";
paths = (
{
closed = 1;
nodes = (
"192 0 LINE",
"273 133 LINE",
"502 133 LINE",
"526 0 LINE",
"728 0 LINE",
"597 699 LINE",
"398 699 LINE",
"-30 0 LINE"
);
},
{
closed = 1;
nodes = (
"462 486 LINE",
"487 290 LINE",
"353 290 LINE"
);
},
{
closed = 1;
nodes = (
"614 741 OFFCURVE",
"700 800 OFFCURVE",
"720 897 CURVE",
"594 897 LINE",
"587 862 OFFCURVE",
"565 844 OFFCURVE",
"529 844 CURVE SMOOTH",
"492 844 OFFCURVE",
"479 862 OFFCURVE",
"486 897 CURVE",
"358 897 LINE",
"338 800 OFFCURVE",
"400 741 OFFCURVE",
"507 741 CURVE SMOOTH"
);
},
{
closed = 1;
nodes = (
"617 917 LINE",
"593 1051 LINE",
"428 1051 LINE",
"474 917 LINE"
);
}
);
width = 798;
}
);
leftKerningGroup = A;
note = Abrevegrave;
rightKerningGroup = A;
unicode = 1EB0;
},
{
glyphname = Abrevehookabove;
lastChange = "2015-12-01 01:43:12 +0000";
layers = (
{
layerId = "3EB4D4D8-7151-4DFB-AE23-ECE37F7A1310";
name = "Bold Italic";
paths = (
{
closed = 1;
nodes = (
"192 0 LINE",
"273 133 LINE",
"502 133 LINE",
"526 0 LINE",
"728 0 LINE",
"597 699 LINE",
"398 699 LINE",
"-30 0 LINE"
);
},
{
closed = 1;
nodes = (
"462 486 LINE",
"487 290 LINE",
"353 290 LINE"
);
},
{
closed = 1;
nodes = (
"614 741 OFFCURVE",
"700 800 OFFCURVE",
"720 897 CURVE",
"594 897 LINE",
"587 862 OFFCURVE",
"565 844 OFFCURVE",
"529 844 CURVE SMOOTH",
"492 844 OFFCURVE",
"479 862 OFFCURVE",
"486 897 CURVE",
"358 897 LINE",
"338 800 OFFCURVE",
"400 741 OFFCURVE",
"507 741 CURVE SMOOTH"
);
},
{
closed = 1;
nodes = (
"608 911 LINE",
"613 931 LINE",
"653 941 OFFCURVE",
"677 963 OFFCURVE",
"685 998 CURVE SMOOTH",
"694 1043 OFFCURVE",
"664 1073 OFFCURVE",
"588 1073 CURVE SMOOTH",
"559 1073 OFFCURVE",
"517 1068 OFFCURVE",
"493 1061 CURVE",
"480 997 LINE",
"487 1001 OFFCURVE",
"504 1003 OFFCURVE",
"515 1003 CURVE SMOOTH",
"541 1003 OFFCURVE",
"552 996 OFFCURVE",
"549 982 CURVE",
"546 964 OFFCURVE",
"525 958 OFFCURVE",
"495 958 CURVE",
"485 911 LINE"
);
}
);
width = 798;
}
);
leftKerningGroup = A;
note = Abrevehookabove;
rightKerningGroup = A;
unicode = 1EB2;
},
{
glyphname = Abrevetilde;
lastChange = "2015-12-01 01:43:10 +0000";
layers = (
{
layerId = "3EB4D4D8-7151-4DFB-AE23-ECE37F7A1310";
name = "Bold Italic";
paths = (
{
closed = 1;
nodes = (
"192 0 LINE",
"273 133 LINE",
"502 133 LINE",
"526 0 LINE",
"728 0 LINE",
"597 699 LINE",
"398 699 LINE",
"-30 0 LINE"
);
},
{
closed = 1;
nodes = (
"462 486 LINE",
"487 290 LINE",
"353 290 LINE"
);
},
{
closed = 1;
nodes = (
"614 741 OFFCURVE",
"700 800 OFFCURVE",
"720 897 CURVE",
"594 897 LINE",
"587 862 OFFCURVE",
"565 844 OFFCURVE",
"529 844 CURVE SMOOTH",
"492 844 OFFCURVE",
"479 862 OFFCURVE",
"486 897 CURVE",
"358 897 LINE",
"338 800 OFFCURVE",
"400 741 OFFCURVE",
"507 741 CURVE SMOOTH"
);
},
{
closed = 1;
nodes = (
"661 920 OFFCURVE",
"692 929 OFFCURVE",
"717 952 CURVE",
"740 1060 LINE",
"710 1032 OFFCURVE",
"678 1020 OFFCURVE",
"647 1020 CURVE SMOOTH",
"595 1020 OFFCURVE",
"547 1061 OFFCURVE",
"493 1061 CURVE SMOOTH",
"457 1061 OFFCURVE",
"426 1051 OFFCURVE",
"401 1028 CURVE",
"378 921 LINE",
"408 949 OFFCURVE",
"440 961 OFFCURVE",
"472 961 CURVE SMOOTH",
"523 961 OFFCURVE",
"568 920 OFFCURVE",
"626 920 CURVE SMOOTH"
);
}
);
width = 798;
}
);
leftKerningGroup = A;
note = Abrevetilde;
rightKerningGroup = A;
unicode = 1EB4;
},
{
glyphname = Acaron;
lastChange = "2015-12-01 01:43:11 +0000";
layers = (
{
layerId = "3EB4D4D8-7151-4DFB-AE23-ECE37F7A1310";
name = "Bold Italic";
paths = (
{
closed = 1;
nodes = (
"192 0 LINE",
"273 133 LINE",
"502 133 LINE",
"526 0 LINE",
"728 0 LINE",
"597 699 LINE",
"398 699 LINE",
"-30 0 LINE"
);
},
{
closed = 1;
nodes = (
"462 486 LINE",
"487 290 LINE",
"353 290 LINE"
);
},
{
closed = 1;
nodes = (
"570 748 LINE",
"755 920 LINE",
"578 920 LINE",
"505 849 LINE",
"462 920 LINE",
"295 920 LINE",
"405 748 LINE"
);
}
);
width = 798;
}
);
leftKerningGroup = A;
note = Acaron;
rightKerningGroup = A;
unicode = 01CD;
},
{
glyphname = Acircumflex;
lastChange = "2015-12-01 01:43:12 +0000";
layers = (
{
layerId = "3EB4D4D8-7151-4DFB-AE23-ECE37F7A1310";
name = "Bold Italic";
paths = (
{
closed = 1;
nodes = (
"192 0 LINE",
"273 133 LINE",
"502 133 LINE",
"526 0 LINE",
"728 0 LINE",
"597 699 LINE",
"398 699 LINE",
"-30 0 LINE"
);
},
{
closed = 1;
nodes = (
"462 486 LINE",
"487 290 LINE",
"353 290 LINE"
);
},
{
closed = 1;
nodes = (
"435 748 LINE",
"508 819 LINE",
"551 748 LINE",
"718 748 LINE",
"607 920 LINE",
"442 920 LINE",
"258 748 LINE"
);
}
);
width = 798;
}
);
leftKerningGroup = A;
note = Acircumflex;
rightKerningGroup = A;
unicode = 00C2;
},
{
glyphname = Acircumflexacute;
lastChange = "2015-12-01 01:43:13 +0000";
layers = (
{
layerId = "3EB4D4D8-7151-4DFB-AE23-ECE37F7A1310";
name = "Bold Italic";
paths = (
{
closed = 1;
nodes = (
"192 0 LINE",
"273 133 LINE",
"502 133 LINE",
"526 0 LINE",
"728 0 LINE",
"597 699 LINE",
"398 699 LINE",
"-30 0 LINE"
);
},
{
closed = 1;
nodes = (
"462 486 LINE",
"487 290 LINE",
"353 290 LINE"
);
},
{
closed = 1;
nodes = (
"444 744 LINE",
"520 812 LINE",
"566 744 LINE",
"729 744 LINE",
"605 903 LINE",
"472 903 LINE",
"280 744 LINE"
);
},
{
closed = 1;
nodes = (
"805 868 LINE",
"918 1012 LINE",
"754 1012 LINE",
"665 868 LINE"
);
}
);
width = 798;
}
);
leftKerningGroup = A;
note = Acircumflexacute;
rightKerningGroup = A;
unicode = 1EA4;
},
{
glyphname = Acircumflexdotbelow;
lastChange = "2015-12-01 01:43:12 +0000";
layers = (
{
layerId = "3EB4D4D8-7151-4DFB-AE23-ECE37F7A1310";
name = "Bold Italic";
paths = (
{
closed = 1;
nodes = (
"192 0 LINE",
"273 133 LINE",
"502 133 LINE",
"526 0 LINE",
"728 0 LINE",
"597 699 LINE",
"398 699 LINE",
"-30 0 LINE"
);
},
{
closed = 1;
nodes = (
"350 -210 OFFCURVE",
"394 -174 OFFCURVE",
"403 -128 CURVE SMOOTH",
"413 -82 OFFCURVE",
"385 -46 OFFCURVE",
"341 -46 CURVE SMOOTH",
"296 -46 OFFCURVE",
"250 -82 OFFCURVE",
"240 -128 CURVE SMOOTH",
"231 -174 OFFCURVE",
"261 -210 OFFCURVE",
"306 -210 CURVE SMOOTH"
);
},
{
closed = 1;
nodes = (
"462 486 LINE",
"487 290 LINE",
"353 290 LINE"
);
},
{
closed = 1;
nodes = (
"435 748 LINE",
"508 819 LINE",
"551 748 LINE",
"718 748 LINE",
"607 920 LINE",
"442 920 LINE",
"258 748 LINE"
);
}
);
width = 798;
}
);
leftKerningGroup = A;
note = Acircumflexdotbelow;
rightKerningGroup = A;
unicode = 1EAC;
},
{
glyphname = Acircumflexgrave;
lastChange = "2015-12-01 01:43:08 +0000";
layers = (
{
layerId = "3EB4D4D8-7151-4DFB-AE23-ECE37F7A1310";
name = "Bold Italic";
paths = (
{
closed = 1;
nodes = (
"192 0 LINE",
"273 133 LINE",
"502 133 LINE",
"526 0 LINE",
"728 0 LINE",
"597 699 LINE",
"398 699 LINE",
"-30 0 LINE"
);
},
{
closed = 1;
nodes = (
"462 486 LINE",
"487 290 LINE",
"353 290 LINE"
);
},
{
closed = 1;
nodes = (
"398 865 LINE",
"371 1009 LINE",
"207 1009 LINE",
"258 865 LINE"
);
},
{
closed = 1;
nodes = (
"446 741 LINE",
"522 809 LINE",
"568 741 LINE",
"731 741 LINE",
"607 900 LINE",
"475 900 LINE",
"282 741 LINE"
);
}
);
width = 798;
}
);
leftKerningGroup = A;
note = Acircumflexgrave;
rightKerningGroup = A;
unicode = 1EA6;
},
{
glyphname = Acircumflexhookabove;
lastChange = "2015-12-01 01:43:11 +0000";
layers = (
{
layerId = "3EB4D4D8-7151-4DFB-AE23-ECE37F7A1310";
name = "Bold Italic";
paths = (
{
closed = 1;
nodes = (
"192 0 LINE",
"273 133 LINE",
"502 133 LINE",
"526 0 LINE",
"728 0 LINE",
"597 699 LINE",
"398 699 LINE",
"-30 0 LINE"
);
},
{
closed = 1;
nodes = (
"462 486 LINE",
"487 290 LINE",
"353 290 LINE"
);
},
{
closed = 1;
nodes = (
"450 744 LINE",
"526 812 LINE",
"572 744 LINE",
"735 744 LINE",
"611 903 LINE",
"478 903 LINE",
"286 744 LINE"
);
},
{
closed = 1;
nodes = (
"786 857 LINE",
"791 882 LINE",
"831 893 OFFCURVE",
"858 915 OFFCURVE",
"865 948 CURVE SMOOTH",
"875 993 OFFCURVE",
"842 1023 OFFCURVE",
"767 1023 CURVE SMOOTH",
"738 1023 OFFCURVE",
"696 1017 OFFCURVE",
"672 1011 CURVE",
"658 947 LINE",
"668 951 OFFCURVE",
"684 953 OFFCURVE",
"695 953 CURVE SMOOTH",
"721 953 OFFCURVE",
"732 946 OFFCURVE",
"729 932 CURVE SMOOTH",
"725 914 OFFCURVE",
"705 908 OFFCURVE",
"675 908 CURVE",
"664 857 LINE"
);
}
);
width = 798;
}
);
leftKerningGroup = A;
note = Acircumflexhookabove;
rightKerningGroup = A;
unicode = 1EA8;
},
{
glyphname = Acircumflextilde;
lastChange = "2015-12-01 01:43:11 +0000";
layers = (
{
layerId = "3EB4D4D8-7151-4DFB-AE23-ECE37F7A1310";
name = "Bold Italic";
paths = (
{
closed = 1;
nodes = (
"192 0 LINE",
"273 133 LINE",
"502 133 LINE",
"526 0 LINE",
"728 0 LINE",
"597 699 LINE",
"398 699 LINE",
"-30 0 LINE"
);
},
{
closed = 1;
nodes = (
"462 486 LINE",
"487 290 LINE",
"353 290 LINE"
);
},
{
closed = 1;
nodes = (
"445 741 LINE",
"521 809 LINE",
"567 741 LINE",
"730 741 LINE",
"606 900 LINE",
"473 900 LINE",
"281 741 LINE"
);
},
{
closed = 1;
nodes = (
"668 911 OFFCURVE",
"699 920 OFFCURVE",
"724 943 CURVE",
"747 1051 LINE",
"717 1023 OFFCURVE",
"685 1011 OFFCURVE",
"652 1011 CURVE SMOOTH",
"602 1011 OFFCURVE",
"554 1052 OFFCURVE",
"500 1052 CURVE SMOOTH",
"464 1052 OFFCURVE",
"433 1042 OFFCURVE",
"408 1019 CURVE",
"385 912 LINE",
"415 940 OFFCURVE",
"447 952 OFFCURVE",
"479 952 CURVE SMOOTH",
"530 952 OFFCURVE",
"575 911 OFFCURVE",
"632 911 CURVE SMOOTH"
);
}
);
width = 798;
}
);
leftKerningGroup = A;
note = Acircumflextilde;
rightKerningGroup = A;
unicode = 1EAA;
},
{
glyphname = Adieresis;
lastChange = "2015-12-01 01:43:11 +0000";
layers = (
{
layerId = "3EB4D4D8-7151-4DFB-AE23-ECE37F7A1310";
name = "Bold Italic";
paths = (
{
closed = 1;
nodes = (
"192 0 LINE",
"273 133 LINE",
"502 133 LINE",
"526 0 LINE",
"728 0 LINE",
"597 699 LINE",
"398 699 LINE",
"-30 0 LINE"
);
},
{
closed = 1;
nodes = (
"462 486 LINE",
"487 290 LINE",
"353 290 LINE"
);
},
{
closed = 1;
nodes = (
"414 742 OFFCURVE",
"458 777 OFFCURVE",
"468 823 CURVE SMOOTH",
"478 869 OFFCURVE",
"449 906 OFFCURVE",
"404 906 CURVE SMOOTH",
"361 906 OFFCURVE",
"314 869 OFFCURVE",
"304 823 CURVE SMOOTH",
"294 777 OFFCURVE",
"326 742 OFFCURVE",
"369 742 CURVE SMOOTH"
);
},
{
closed = 1;
nodes = (
"649 742 OFFCURVE",
"693 777 OFFCURVE",
"703 823 CURVE SMOOTH",
"713 869 OFFCURVE",
"684 906 OFFCURVE",
"640 906 CURVE SMOOTH",
"595 906 OFFCURVE",
"549 869 OFFCURVE",
"539 823 CURVE SMOOTH",
"529 777 OFFCURVE",
"560 742 OFFCURVE",
"605 742 CURVE SMOOTH"
);
}
);
width = 798;
}
);
leftKerningGroup = A;
note = Adieresis;
rightKerningGroup = A;
unicode = 00C4;
},
{
glyphname = Adotbelow;
lastChange = "2015-12-01 01:43:10 +0000";
layers = (
{
layerId = "3EB4D4D8-7151-4DFB-AE23-ECE37F7A1310";
name = "Bold Italic";
paths = (
{
closed = 1;
nodes = (
"192 0 LINE",
"273 133 LINE",
"502 133 LINE",
"526 0 LINE",
"728 0 LINE",
"597 699 LINE",
"398 699 LINE",
"-30 0 LINE"
);
},
{
closed = 1;
nodes = (
"350 -210 OFFCURVE",
"394 -174 OFFCURVE",
"403 -128 CURVE SMOOTH",
"413 -82 OFFCURVE",
"385 -46 OFFCURVE",
"341 -46 CURVE SMOOTH",
"296 -46 OFFCURVE",
"250 -82 OFFCURVE",
"240 -128 CURVE SMOOTH",
"231 -174 OFFCURVE",
"261 -210 OFFCURVE",
"306 -210 CURVE SMOOTH"
);
},
{
closed = 1;
nodes = (
"462 486 LINE",
"487 290 LINE",
"353 290 LINE"
);
}
);
width = 798;
}
);
leftKerningGroup = A;
note = Adotbelow;
rightKerningGroup = A;
unicode = 1EA0;
},
{
glyphname = Agrave;
lastChange = "2015-12-01 01:43:10 +0000";
layers = (
{
layerId = "3EB4D4D8-7151-4DFB-AE23-ECE37F7A1310";
name = "Bold Italic";
paths = (
{
closed = 1;
nodes = (
"192 0 LINE",
"273 133 LINE",
"502 133 LINE",
"526 0 LINE",
"728 0 LINE",
"597 699 LINE",
"398 699 LINE",
"-30 0 LINE"
);
},
{
closed = 1;
nodes = (
"462 486 LINE",
"487 290 LINE",
"353 290 LINE"
);
},
{
closed = 1;
nodes = (
"570 737 LINE",
"539 917 LINE",
"338 917 LINE",
"393 737 LINE"
);
}
);
width = 798;
}
);
leftKerningGroup = A;
note = Agrave;
rightKerningGroup = A;
unicode = 00C0;
},
{
glyphname = Ahookabove;
lastChange = "2015-12-01 01:43:09 +0000";
layers = (
{
layerId = "3EB4D4D8-7151-4DFB-AE23-ECE37F7A1310";
name = "Bold Italic";
paths = (
{
closed = 1;
nodes = (
"192 0 LINE",
"273 133 LINE",
"502 133 LINE",
"526 0 LINE",
"728 0 LINE",
"597 699 LINE",
"398 699 LINE",
"-30 0 LINE"
);
},
{
closed = 1;
nodes = (
"462 486 LINE",
"487 290 LINE",
"353 290 LINE"
);
},
{
closed = 1;
nodes = (
"562 742 LINE",
"568 772 LINE",
"637 783 OFFCURVE",
"675 820 OFFCURVE",
"686 868 CURVE SMOOTH",
"699 933 OFFCURVE",
"654 978 OFFCURVE",
"541 978 CURVE SMOOTH",
"489 978 OFFCURVE",
"440 970 OFFCURVE",
"407 960 CURVE",
"389 876 LINE",
"402 881 OFFCURVE",
"430 886 OFFCURVE",
"453 886 CURVE SMOOTH",
"500 886 OFFCURVE",
"512 871 OFFCURVE",
"508 853 CURVE SMOOTH",
"502 825 OFFCURVE",
"466 814 OFFCURVE",
"411 814 CURVE",
"396 742 LINE"
);
}
);
width = 798;
}
);
leftKerningGroup = A;
note = Ahookabove;
rightKerningGroup = A;
unicode = 1EA2;
},
{
glyphname = Amacron;
lastChange = "2015-12-01 01:43:11 +0000";
layers = (
{
layerId = "3EB4D4D8-7151-4DFB-AE23-ECE37F7A1310";
name = "Bold Italic";
paths = (
{
closed = 1;
nodes = (
"192 0 LINE",
"273 133 LINE",
"502 133 LINE",
"526 0 LINE",
"728 0 LINE",
"597 699 LINE",
"398 699 LINE",
"-30 0 LINE"
);
},
{
closed = 1;
nodes = (
"462 486 LINE",
"487 290 LINE",
"353 290 LINE"
);
},
{
closed = 1;
nodes = (
"666 752 LINE",
"691 870 LINE",
"336 870 LINE",
"311 752 LINE"
);
}
);
width = 798;
}
);
leftKerningGroup = A;
note = Amacron;
rightKerningGroup = A;
unicode = 0100;
},
{
glyphname = Aogonek;
lastChange = "2015-12-01 01:43:09 +0000";
layers = (
{
layerId = "3EB4D4D8-7151-4DFB-AE23-ECE37F7A1310";
name = "Bold Italic";
paths = (
{
closed = 1;
nodes = (
"192 0 LINE",
"273 133 LINE",
"502 133 LINE",
"526 0 LINE",
"728 0 LINE",
"597 699 LINE",
"398 699 LINE",
"-30 0 LINE"
);
},
{
closed = 1;
nodes = (
"578 -218 OFFCURVE",
"624 -211 OFFCURVE",
"655 -202 CURVE",
"678 -94 LINE",
"660 -102 OFFCURVE",
"642 -106 OFFCURVE",
"626 -106 CURVE SMOOTH",
"607 -106 OFFCURVE",
"594 -95 OFFCURVE",
"598 -78 CURVE SMOOTH",
"604 -50 OFFCURVE",
"637 -28 OFFCURVE",
"698 0 CURVE",
"516 0 LINE",
"469 -25 OFFCURVE",
"433 -65 OFFCURVE",
"421 -118 CURVE SMOOTH",
"407 -188 OFFCURVE",
"459 -218 OFFCURVE",
"536 -218 CURVE SMOOTH"
);
},
{
closed = 1;
nodes = (
"462 486 LINE",
"487 290 LINE",
"353 290 LINE"
);
}
);
width = 798;
}
);
leftKerningGroup = A;
note = Aogonek;
rightKerningGroup = A;
unicode = 0104;
},
{
glyphname = Aring;
lastChange = "2015-12-01 01:43:10 +0000";
layers = (
{
layerId = "3EB4D4D8-7151-4DFB-AE23-ECE37F7A1310";
name = "Bold Italic";
paths = (
{
closed = 1;
nodes = (
"192 0 LINE",
"273 133 LINE",
"502 133 LINE",
"526 0 LINE",
"728 0 LINE",
"597 699 LINE",
"398 699 LINE",
"-30 0 LINE"
);
},
{
closed = 1;
nodes = (
"462 486 LINE",
"487 290 LINE",
"353 290 LINE"
);
},
{
closed = 1;
nodes = (
"572 626 OFFCURVE",
"645 690 OFFCURVE",
"662 772 CURVE SMOOTH",
"680 855 OFFCURVE",
"626 919 OFFCURVE",
"543 919 CURVE SMOOTH",
"451 919 OFFCURVE",
"381 855 OFFCURVE",
"363 772 CURVE SMOOTH",
"347 690 OFFCURVE",
"399 626 OFFCURVE",
"481 626 CURVE SMOOTH"
);
},
{
closed = 1;
nodes = (
"467 721 OFFCURVE",
"455 744 OFFCURVE",
"461 772 CURVE SMOOTH",
"468 802 OFFCURVE",
"495 824 OFFCURVE",
"523 824 CURVE SMOOTH",
"560 824 OFFCURVE",
"571 802 OFFCURVE",
"564 772 CURVE SMOOTH",
"558 744 OFFCURVE",
"531 721 OFFCURVE",
"501 721 CURVE SMOOTH"
);
}
);
width = 798;
}
);
leftKerningGroup = A;
note = Aring;
rightKerningGroup = A;
unicode = 00C5;
},
{
glyphname = Aringacute;
lastChange = "2015-12-01 01:43:11 +0000";
layers = (
{
layerId = "3EB4D4D8-7151-4DFB-AE23-ECE37F7A1310";
name = "Bold Italic";
paths = (
{
closed = 1;
nodes = (
"192 0 LINE",
"273 133 LINE",
"502 133 LINE",
"526 0 LINE",
"728 0 LINE",
"597 699 LINE",
"398 699 LINE",
"-30 0 LINE"
);
},
{
closed = 1;
nodes = (
"462 486 LINE",
"487 290 LINE",
"353 290 LINE"
);
},
{
closed = 1;
nodes = (
"572 626 OFFCURVE",
"645 690 OFFCURVE",
"662 772 CURVE SMOOTH",
"680 855 OFFCURVE",
"626 919 OFFCURVE",
"543 919 CURVE SMOOTH",
"451 919 OFFCURVE",
"381 855 OFFCURVE",
"363 772 CURVE SMOOTH",
"347 690 OFFCURVE",
"399 626 OFFCURVE",
"481 626 CURVE SMOOTH"
);
},
{
closed = 1;
nodes = (
"467 721 OFFCURVE",
"455 744 OFFCURVE",
"461 772 CURVE SMOOTH",
"468 802 OFFCURVE",
"495 824 OFFCURVE",
"523 824 CURVE SMOOTH",
"560 824 OFFCURVE",
"571 802 OFFCURVE",
"564 772 CURVE SMOOTH",
"558 744 OFFCURVE",
"531 721 OFFCURVE",
"501 721 CURVE SMOOTH"
);
},
{
closed = 1;
nodes = (
"636 935 LINE",
"767 1079 LINE",
"566 1079 LINE",
"459 935 LINE"
);
}
);
width = 798;
}
);
leftKerningGroup = A;
note = Aringacute;
rightKerningGroup = A;
unicode = 01FA;
},
{
glyphname = Atilde;
lastChange = "2015-12-01 01:43:12 +0000";
layers = (
{
layerId = "3EB4D4D8-7151-4DFB-AE23-ECE37F7A1310";
name = "Bold Italic";
paths = (
{
closed = 1;
nodes = (
"192 0 LINE",
"273 133 LINE",
"502 133 LINE",
"526 0 LINE",
"728 0 LINE",
"597 699 LINE",
"398 699 LINE",
"-30 0 LINE"
);
},
{
closed = 1;
nodes = (
"462 486 LINE",
"487 290 LINE",
"353 290 LINE"
);
},
{
closed = 1;
nodes = (
"318 778 OFFCURVE",
"356 792 OFFCURVE",
"396 792 CURVE SMOOTH",
"460 792 OFFCURVE",
"514 742 OFFCURVE",
"587 742 CURVE SMOOTH",
"632 742 OFFCURVE",
"671 753 OFFCURVE",
"702 783 CURVE",
"731 923 LINE",
"694 888 OFFCURVE",
"656 874 OFFCURVE",
"615 874 CURVE SMOOTH",
"550 874 OFFCURVE",
"493 924 OFFCURVE",
"425 924 CURVE SMOOTH",
"381 924 OFFCURVE",
"340 912 OFFCURVE",
"309 883 CURVE",
"279 742 LINE"
);
}
);
width = 798;
}
);
leftKerningGroup = A;
note = Atilde;
rightKerningGroup = A;
unicode = 00C3;
},
{
glyphname = AE;
lastChange = "2015-12-01 01:43:10 +0000";
layers = (
{
layerId = "3EB4D4D8-7151-4DFB-AE23-ECE37F7A1310";
name = "Bold Italic";
paths = (
{
closed = 1;
nodes = (
"186 0 LINE",
"269 133 LINE",
"410 133 LINE",
"382 0 LINE",
"848 0 LINE",
"884 174 LINE",
"604 174 LINE",
"625 270 LINE",
"822 270 LINE",
"856 429 LINE",
"659 429 LINE",
"679 525 LINE",
"959 525 LINE",
"996 699 LINE",
"411 699 LINE",
"-30 0 LINE"
);
},
{
closed = 1;
nodes = (
"487 525 LINE",
"493 525 LINE",
"444 292 LINE",
"346 292 LINE"
);
}
);
width = 918;
}
);
leftKerningGroup = A;
note = AE;
rightKerningGroup = E;
unicode = 00C6;
},
{
glyphname = AEacute;
lastChange = "2015-12-01 01:43:09 +0000";
layers = (
{
layerId = "3EB4D4D8-7151-4DFB-AE23-ECE37F7A1310";
name = "Bold Italic";
paths = (
{
closed = 1;
nodes = (
"186 0 LINE",
"269 133 LINE",
"410 133 LINE",
"382 0 LINE",
"848 0 LINE",
"884 174 LINE",
"604 174 LINE",
"625 270 LINE",
"822 270 LINE",
"856 429 LINE",
"659 429 LINE",
"679 525 LINE",
"959 525 LINE",
"996 699 LINE",
"411 699 LINE",
"-30 0 LINE"
);
},
{
closed = 1;
nodes = (
"487 525 LINE",
"493 525 LINE",
"444 292 LINE",
"346 292 LINE"
);
},
{
closed = 1;
nodes = (
"718 737 LINE",
"849 917 LINE",
"648 917 LINE",
"541 737 LINE"
);
}
);
width = 918;
}
);
leftKerningGroup = A;
note = AEacute;
rightKerningGroup = E;
unicode = 01FC;
},
{
glyphname = B;
lastChange = "2015-12-01 01:43:12 +0000";
layers = (
{
layerId = "3EB4D4D8-7151-4DFB-AE23-ECE37F7A1310";
name = "Bold Italic";
paths = (
{
closed = 1;
nodes = (
"371 0 LINE SMOOTH",
"517 0 OFFCURVE",
"618 79 OFFCURVE",
"647 213 CURVE SMOOTH",
"663 291 OFFCURVE",
"644 336 OFFCURVE",
"585 365 CURVE",
"639 396 OFFCURVE",
"675 449 OFFCURVE",
"687 504 CURVE SMOOTH",
"714 632 OFFCURVE",
"622 699 OFFCURVE",
"503 699 CURVE SMOOTH",
"138 699 LINE",
"-10 0 LINE"
);
},
{
closed = 1;
nodes = (
"257 284 LINE",
"371 284 LINE SMOOTH",
"426 284 OFFCURVE",
"447 263 OFFCURVE",
"437 214 CURVE SMOOTH",
"426 163 OFFCURVE",
"397 147 OFFCURVE",
"344 147 CURVE SMOOTH",
"228 147 LINE"
);
},
{
closed = 1;
nodes = (
"314 552 LINE",
"417 552 LINE SMOOTH",
"468 552 OFFCURVE",
"484 539 OFFCURVE",
"474 491 CURVE SMOOTH",
"464 445 OFFCURVE",
"435 428 OFFCURVE",
"391 428 CURVE SMOOTH",
"287 428 LINE"
);
}
);
width = 672;
}
);
note = B;
unicode = 0042;
},
{
glyphname = C;
lastChange = "2015-12-01 01:43:12 +0000";
layers = (
{
layerId = "3EB4D4D8-7151-4DFB-AE23-ECE37F7A1310";
name = "Bold Italic";
paths = (
{
closed = 1;
nodes = (
"450 -15 OFFCURVE",
"539 4 OFFCURVE",
"615 46 CURVE",
"656 236 LINE",
"580 190 OFFCURVE",
"502 169 OFFCURVE",
"407 169 CURVE SMOOTH",
"259 169 OFFCURVE",
"229 229 OFFCURVE",
"255 349 CURVE SMOOTH",
"280 468 OFFCURVE",
"360 528 OFFCURVE",
"484 528 CURVE SMOOTH",
"578 528 OFFCURVE",
"646 510 OFFCURVE",
"696 464 CURVE",
"737 655 LINE",
"677 696 OFFCURVE",
"605 714 OFFCURVE",
"505 714 CURVE SMOOTH",
"251 714 OFFCURVE",
"92 575 OFFCURVE",
"44 349 CURVE SMOOTH",
"-4 123 OFFCURVE",
"124 -15 OFFCURVE",
"350 -15 CURVE SMOOTH"
);
}
);
width = 676;
}
);
leftKerningGroup = C;
note = C;
rightKerningGroup = C;
unicode = 0043;
},
{
glyphname = Cacute;
lastChange = "2015-12-01 01:43:11 +0000";
layers = (
{
layerId = "3EB4D4D8-7151-4DFB-AE23-ECE37F7A1310";
name = "Bold Italic";
paths = (
{
closed = 1;
nodes = (
"450 -15 OFFCURVE",
"539 4 OFFCURVE",
"615 46 CURVE",
"656 236 LINE",
"580 190 OFFCURVE",
"502 169 OFFCURVE",
"407 169 CURVE SMOOTH",
"259 169 OFFCURVE",
"229 229 OFFCURVE",
"255 349 CURVE SMOOTH",
"280 468 OFFCURVE",
"360 528 OFFCURVE",
"484 528 CURVE SMOOTH",
"578 528 OFFCURVE",
"646 510 OFFCURVE",
"696 464 CURVE",
"737 655 LINE",
"677 696 OFFCURVE",
"605 714 OFFCURVE",
"505 714 CURVE SMOOTH",
"251 714 OFFCURVE",
"92 575 OFFCURVE",
"44 349 CURVE SMOOTH",
"-4 123 OFFCURVE",
"124 -15 OFFCURVE",
"350 -15 CURVE SMOOTH"
);
},
{
closed = 1;
nodes = (
"581 737 LINE",
"712 917 LINE",
"511 917 LINE",
"404 737 LINE"
);
}
);
width = 676;
}
);
leftKerningGroup = C;
note = Cacute;
rightKerningGroup = C;
unicode = 0106;
},
{
glyphname = Ccaron;
lastChange = "2015-12-01 01:43:08 +0000";
layers = (
{
layerId = "3EB4D4D8-7151-4DFB-AE23-ECE37F7A1310";
name = "Bold Italic";
paths = (
{
closed = 1;
nodes = (
"450 -15 OFFCURVE",
"539 4 OFFCURVE",
"615 46 CURVE",
"656 236 LINE",
"580 190 OFFCURVE",
"502 169 OFFCURVE",
"407 169 CURVE SMOOTH",
"259 169 OFFCURVE",
"229 229 OFFCURVE",
"255 349 CURVE SMOOTH",
"280 468 OFFCURVE",
"360 528 OFFCURVE",
"484 528 CURVE SMOOTH",
"578 528 OFFCURVE",
"646 510 OFFCURVE",
"696 464 CURVE",
"737 655 LINE",
"677 696 OFFCURVE",
"605 714 OFFCURVE",
"505 714 CURVE SMOOTH",
"251 714 OFFCURVE",
"92 575 OFFCURVE",
"44 349 CURVE SMOOTH",
"-4 123 OFFCURVE",
"124 -15 OFFCURVE",
"350 -15 CURVE SMOOTH"
);
},
{
closed = 1;
nodes = (
"578 748 LINE",
"763 920 LINE",
"586 920 LINE",
"513 849 LINE",
"470 920 LINE",
"303 920 LINE",
"413 748 LINE"
);
}
);
width = 676;
}
);
leftKerningGroup = C;
note = Ccaron;
rightKerningGroup = C;
unicode = 010C;
},
{
glyphname = Ccedilla;
lastChange = "2015-12-01 01:43:12 +0000";
layers = (
{
layerId = "3EB4D4D8-7151-4DFB-AE23-ECE37F7A1310";
name = "Bold Italic";
paths = (
{
closed = 1;
nodes = (
"450 -15 OFFCURVE",
"539 4 OFFCURVE",
"615 46 CURVE",
"656 236 LINE",
"580 190 OFFCURVE",
"502 169 OFFCURVE",
"407 169 CURVE SMOOTH",
"259 169 OFFCURVE",
"229 229 OFFCURVE",
"255 349 CURVE SMOOTH",
"280 468 OFFCURVE",
"360 528 OFFCURVE",
"484 528 CURVE SMOOTH",
"578 528 OFFCURVE",
"646 510 OFFCURVE",
"696 464 CURVE",
"737 655 LINE",
"677 696 OFFCURVE",
"605 714 OFFCURVE",
"505 714 CURVE SMOOTH",
"251 714 OFFCURVE",
"92 575 OFFCURVE",
"44 349 CURVE SMOOTH",
"-4 123 OFFCURVE",
"124 -15 OFFCURVE",
"350 -15 CURVE SMOOTH"
);
},
{
closed = 1;
nodes = (
"390 -248 OFFCURVE",
"451 -203 OFFCURVE",
"465 -139 CURVE SMOOTH",
"475 -90 OFFCURVE",
"450 -54 OFFCURVE",
"392 -46 CURVE",
"420 0 LINE",
"289 0 LINE",
"238 -87 LINE",
"314 -87 OFFCURVE",
"337 -100 OFFCURVE",
"331 -131 CURVE",
"324 -160 OFFCURVE",
"299 -168 OFFCURVE",
"259 -168 CURVE SMOOTH",
"236 -168 OFFCURVE",
"210 -162 OFFCURVE",
"196 -153 CURVE",
"179 -233 LINE",
"200 -242 OFFCURVE",
"232 -248 OFFCURVE",
"285 -248 CURVE SMOOTH"
);
}
);
width = 676;
}
);
leftKerningGroup = C;
note = Ccedilla;
rightKerningGroup = C;
unicode = 00C7;
},
{
glyphname = Ccircumflex;
lastChange = "2015-12-01 01:43:09 +0000";
layers = (
{
layerId = "3EB4D4D8-7151-4DFB-AE23-ECE37F7A1310";
name = "Bold Italic";
paths = (
{
closed = 1;
nodes = (
"450 -15 OFFCURVE",
"539 4 OFFCURVE",
"615 46 CURVE",
"656 236 LINE",
"580 190 OFFCURVE",
"502 169 OFFCURVE",
"407 169 CURVE SMOOTH",
"259 169 OFFCURVE",
"229 229 OFFCURVE",
"255 349 CURVE SMOOTH",
"280 468 OFFCURVE",
"360 528 OFFCURVE",
"484 528 CURVE SMOOTH",
"578 528 OFFCURVE",
"646 510 OFFCURVE",
"696 464 CURVE",
"737 655 LINE",
"677 696 OFFCURVE",
"605 714 OFFCURVE",
"505 714 CURVE SMOOTH",
"251 714 OFFCURVE",
"92 575 OFFCURVE",
"44 349 CURVE SMOOTH",
"-4 123 OFFCURVE",
"124 -15 OFFCURVE",
"350 -15 CURVE SMOOTH"
);
},
{
closed = 1;
nodes = (
"425 748 LINE",
"498 819 LINE",
"541 748 LINE",
"708 748 LINE",
"597 920 LINE",
"432 920 LINE",
"248 748 LINE"
);
}
);
width = 676;
}
);
leftKerningGroup = C;
note = Ccircumflex;
rightKerningGroup = C;
unicode = 0108;
},
{
glyphname = Cdotaccent;
lastChange = "2015-12-01 01:43:12 +0000";
layers = (
{
layerId = "3EB4D4D8-7151-4DFB-AE23-ECE37F7A1310";
name = "Bold Italic";
paths = (
{
closed = 1;
nodes = (
"450 -15 OFFCURVE",
"539 4 OFFCURVE",
"615 46 CURVE",
"656 236 LINE",
"580 190 OFFCURVE",
"502 169 OFFCURVE",
"407 169 CURVE SMOOTH",
"259 169 OFFCURVE",
"229 229 OFFCURVE",
"255 349 CURVE SMOOTH",
"280 468 OFFCURVE",
"360 528 OFFCURVE",
"484 528 CURVE SMOOTH",
"578 528 OFFCURVE",
"646 510 OFFCURVE",
"696 464 CURVE",
"737 655 LINE",
"677 696 OFFCURVE",
"605 714 OFFCURVE",
"505 714 CURVE SMOOTH",
"251 714 OFFCURVE",
"92 575 OFFCURVE",
"44 349 CURVE SMOOTH",
"-4 123 OFFCURVE",
"124 -15 OFFCURVE",
"350 -15 CURVE SMOOTH"
);
},
{
closed = 1;
nodes = (
"552 742 OFFCURVE",
"595 777 OFFCURVE",
"605 823 CURVE SMOOTH",
"615 869 OFFCURVE",
"587 906 OFFCURVE",
"542 906 CURVE SMOOTH",
"497 906 OFFCURVE",
"451 869 OFFCURVE",
"441 823 CURVE SMOOTH",
"431 777 OFFCURVE",
"462 742 OFFCURVE",
"507 742 CURVE SMOOTH"
);
}
);
width = 676;
}
);
leftKerningGroup = C;
note = Cdotaccent;
rightKerningGroup = C;
unicode = 010A;
},
{
glyphname = D;
lastChange = "2015-12-01 01:43:09 +0000";
layers = (
{
layerId = "3EB4D4D8-7151-4DFB-AE23-ECE37F7A1310";
name = "Bold Italic";
paths = (
{
closed = 1;
nodes = (
"260 0 LINE SMOOTH",
"502 0 OFFCURVE",
"657 116 OFFCURVE",
"708 353 CURVE SMOOTH",
"750 550 OFFCURVE",
"622 699 OFFCURVE",
"397 699 CURVE SMOOTH",
"138 699 LINE",
"-10 0 LINE"
);
},
{
closed = 1;
nodes = (
"308 525 LINE",
"376 525 LINE SMOOTH",
"504 525 OFFCURVE",
"519 455 OFFCURVE",
"497 353 CURVE SMOOTH",
"474 245 OFFCURVE",
"402 174 OFFCURVE",
"298 174 CURVE SMOOTH",
"233 174 LINE"
);
}
);
width = 703;
}
);
note = D;
rightKerningGroup = D;
unicode = 0044;
},
{
glyphname = Eth;
lastChange = "2015-12-01 01:43:13 +0000";
layers = (
{
layerId = "3EB4D4D8-7151-4DFB-AE23-ECE37F7A1310";
name = "Bold Italic";
paths = (
{
closed = 1;
nodes = (
"296 0 LINE SMOOTH",
"538 0 OFFCURVE",
"693 116 OFFCURVE",
"744 353 CURVE SMOOTH",
"786 550 OFFCURVE",
"658 699 OFFCURVE",
"433 699 CURVE SMOOTH",
"174 699 LINE",
"116 424 LINE",
"70 424 LINE",
"38 274 LINE",
"84 274 LINE",
"26 0 LINE"
);
},
{
closed = 1;
nodes = (
"290 274 LINE",
"415 274 LINE",
"447 424 LINE",
"322 424 LINE",
"344 525 LINE",
"412 525 LINE SMOOTH",
"540 525 OFFCURVE",
"555 455 OFFCURVE",
"533 353 CURVE SMOOTH",
"510 245 OFFCURVE",
"438 174 OFFCURVE",
"334 174 CURVE SMOOTH",
"269 174 LINE"
);
}
);
width = 739;
}
);
note = Eth;
rightKerningGroup = D;
unicode = 00D0;
},
{
glyphname = Dcaron;
lastChange = "2015-12-01 01:43:09 +0000";
layers = (
{
layerId = "3EB4D4D8-7151-4DFB-AE23-ECE37F7A1310";
name = "Bold Italic";
paths = (
{
closed = 1;
nodes = (
"260 0 LINE SMOOTH",
"502 0 OFFCURVE",
"657 116 OFFCURVE",
"708 353 CURVE SMOOTH",
"750 550 OFFCURVE",
"622 699 OFFCURVE",
"397 699 CURVE SMOOTH",
"138 699 LINE",
"-10 0 LINE"
);
},
{
closed = 1;
nodes = (
"308 525 LINE",
"376 525 LINE SMOOTH",
"504 525 OFFCURVE",
"519 455 OFFCURVE",
"497 353 CURVE SMOOTH",
"474 245 OFFCURVE",
"402 174 OFFCURVE",
"298 174 CURVE SMOOTH",
"233 174 LINE"
);
},
{
closed = 1;
nodes = (
"497 748 LINE",
"682 920 LINE",
"505 920 LINE",
"432 849 LINE",
"389 920 LINE",
"222 920 LINE",
"332 748 LINE"
);
}
);
width = 703;
}
);
note = Dcaron;
rightKerningGroup = D;
unicode = 010E;
},
{
glyphname = Dcroat;
lastChange = "2015-12-01 01:43:11 +0000";
layers = (
{
layerId = "3EB4D4D8-7151-4DFB-AE23-ECE37F7A1310";
name = "Bold Italic";
paths = (
{
closed = 1;
nodes = (
"296 0 LINE SMOOTH",
"538 0 OFFCURVE",
"693 116 OFFCURVE",
"744 353 CURVE SMOOTH",
"786 550 OFFCURVE",
"658 699 OFFCURVE",
"433 699 CURVE SMOOTH",
"174 699 LINE",
"116 424 LINE",
"70 424 LINE",
"38 274 LINE",
"84 274 LINE",
"26 0 LINE"
);
},
{
closed = 1;
nodes = (
"290 274 LINE",
"415 274 LINE",
"447 424 LINE",
"322 424 LINE",
"344 525 LINE",
"412 525 LINE SMOOTH",
"540 525 OFFCURVE",
"555 455 OFFCURVE",
"533 353 CURVE SMOOTH",
"510 245 OFFCURVE",
"438 174 OFFCURVE",
"334 174 CURVE SMOOTH",
"269 174 LINE"
);
}
);
width = 739;
}
);
note = Dcroat;
rightKerningGroup = D;
unicode = 0110;
},
{
glyphname = Ddotbelow;
lastChange = "2015-12-01 01:43:10 +0000";
layers = (
{
layerId = "3EB4D4D8-7151-4DFB-AE23-ECE37F7A1310";
name = "Bold Italic";
paths = (
{
closed = 1;
nodes = (
"260 0 LINE SMOOTH",
"502 0 OFFCURVE",
"657 116 OFFCURVE",
"708 353 CURVE SMOOTH",
"750 550 OFFCURVE",
"622 699 OFFCURVE",
"397 699 CURVE SMOOTH",
"138 699 LINE",
"-10 0 LINE"
);
},
{
closed = 1;
nodes = (
"264 -210 OFFCURVE",
"308 -174 OFFCURVE",
"317 -128 CURVE SMOOTH",
"327 -82 OFFCURVE",
"299 -46 OFFCURVE",
"255 -46 CURVE SMOOTH",
"210 -46 OFFCURVE",
"164 -82 OFFCURVE",
"154 -128 CURVE SMOOTH",
"145 -174 OFFCURVE",
"175 -210 OFFCURVE",
"220 -210 CURVE SMOOTH"
);
},
{
closed = 1;
nodes = (
"308 525 LINE",
"376 525 LINE SMOOTH",
"504 525 OFFCURVE",
"519 455 OFFCURVE",
"497 353 CURVE SMOOTH",
"474 245 OFFCURVE",
"402 174 OFFCURVE",
"298 174 CURVE SMOOTH",
"233 174 LINE"
);
}
);
width = 703;
}
);
note = Ddotbelow;
rightKerningGroup = D;
unicode = 1E0C;
},
{
glyphname = Dlinebelow;
lastChange = "2015-12-01 01:43:11 +0000";
layers = (
{
layerId = "3EB4D4D8-7151-4DFB-AE23-ECE37F7A1310";
name = "Bold Italic";
paths = (
{
closed = 1;
nodes = (
"260 0 LINE SMOOTH",
"502 0 OFFCURVE",
"657 116 OFFCURVE",
"708 353 CURVE SMOOTH",
"750 550 OFFCURVE",
"622 699 OFFCURVE",
"397 699 CURVE SMOOTH",
"138 699 LINE",
"-10 0 LINE"
);
},
{
closed = 1;
nodes = (
"403 -172 LINE",
"428 -54 LINE",
"73 -54 LINE",
"48 -172 LINE"
);
},
{
closed = 1;
nodes = (
"308 525 LINE",
"376 525 LINE SMOOTH",
"504 525 OFFCURVE",
"519 455 OFFCURVE",
"497 353 CURVE SMOOTH",
"474 245 OFFCURVE",
"402 174 OFFCURVE",
"298 174 CURVE SMOOTH",
"233 174 LINE"
);
}
);
width = 703;
}
);
note = Dlinebelow;
rightKerningGroup = D;
unicode = 1E0E;
},
{
glyphname = E;
lastChange = "2015-12-01 01:43:12 +0000";
layers = (
{
layerId = "3EB4D4D8-7151-4DFB-AE23-ECE37F7A1310";
name = "Bold Italic";
paths = (
{
closed = 1;
nodes = (
"497 0 LINE",
"533 174 LINE",
"233 174 LINE",
"254 270 LINE",
"470 270 LINE",
"504 429 LINE",
"288 429 LINE",
"308 525 LINE",
"608 525 LINE",
"645 699 LINE",
"138 699 LINE",
"-10 0 LINE"
);
}
);
width = 557;
}
);
leftKerningGroup = E;
note = E;
rightKerningGroup = E;
unicode = 0045;
},
{
glyphname = Eacute;
lastChange = "2015-12-01 01:43:11 +0000";
layers = (
{
layerId = "3EB4D4D8-7151-4DFB-AE23-ECE37F7A1310";
name = "Bold Italic";
paths = (
{
closed = 1;
nodes = (
"497 0 LINE",
"533 174 LINE",
"233 174 LINE",
"254 270 LINE",
"470 270 LINE",
"504 429 LINE",
"288 429 LINE",
"308 525 LINE",
"608 525 LINE",
"645 699 LINE",
"138 699 LINE",
"-10 0 LINE"
);
},
{
closed = 1;
nodes = (
"460 737 LINE",
"591 917 LINE",
"390 917 LINE",
"283 737 LINE"
);
}
);
width = 557;
}
);
leftKerningGroup = E;
note = Eacute;
rightKerningGroup = E;
unicode = 00C9;
},
{
glyphname = Ebreve;
lastChange = "2015-12-01 01:43:10 +0000";
layers = (
{
layerId = "3EB4D4D8-7151-4DFB-AE23-ECE37F7A1310";
name = "Bold Italic";
paths = (
{
closed = 1;
nodes = (
"497 0 LINE",
"533 174 LINE",
"233 174 LINE",
"254 270 LINE",
"470 270 LINE",
"504 429 LINE",
"288 429 LINE",
"308 525 LINE",
"608 525 LINE",
"645 699 LINE",
"138 699 LINE",
"-10 0 LINE"
);
},
{
closed = 1;
nodes = (
"508 741 OFFCURVE",
"592 812 OFFCURVE",
"616 925 CURVE",
"462 925 LINE",
"454 885 OFFCURVE",
"434 865 OFFCURVE",
"405 865 CURVE SMOOTH",
"375 865 OFFCURVE",
"364 885 OFFCURVE",
"372 925 CURVE",
"229 925 LINE",
"205 812 OFFCURVE",
"259 741 OFFCURVE",
"383 741 CURVE SMOOTH"
);
}
);
width = 557;
}
);
leftKerningGroup = E;
note = Ebreve;
rightKerningGroup = E;
unicode = 0114;
},
{
glyphname = Ecaron;
lastChange = "2015-12-01 01:43:09 +0000";
layers = (
{
layerId = "3EB4D4D8-7151-4DFB-AE23-ECE37F7A1310";
name = "Bold Italic";
paths = (
{
closed = 1;
nodes = (
"497 0 LINE",
"533 174 LINE",
"233 174 LINE",
"254 270 LINE",
"470 270 LINE",
"504 429 LINE",
"288 429 LINE",
"308 525 LINE",
"608 525 LINE",
"645 699 LINE",
"138 699 LINE",
"-10 0 LINE"
);
},
{
closed = 1;
nodes = (
"476 748 LINE",
"661 920 LINE",
"484 920 LINE",
"411 849 LINE",
"368 920 LINE",
"201 920 LINE",
"311 748 LINE"
);
}
);
width = 557;
}
);
leftKerningGroup = E;
note = Ecaron;
rightKerningGroup = E;
unicode = 011A;
},
{
glyphname = Ecircumflex;
lastChange = "2015-12-01 01:43:11 +0000";
layers = (
{
layerId = "3EB4D4D8-7151-4DFB-AE23-ECE37F7A1310";
name = "Bold Italic";
paths = (
{
closed = 1;
nodes = (
"497 0 LINE",
"533 174 LINE",
"233 174 LINE",
"254 270 LINE",
"470 270 LINE",
"504 429 LINE",
"288 429 LINE",
"308 525 LINE",
"608 525 LINE",
"645 699 LINE",
"138 699 LINE",
"-10 0 LINE"
);
},
{
closed = 1;
nodes = (
"326 744 LINE",
"399 815 LINE",
"442 744 LINE",
"609 744 LINE",
"498 916 LINE",
"333 916 LINE",
"149 744 LINE"
);
}
);
width = 557;
}
);
leftKerningGroup = E;
note = Ecircumflex;
rightKerningGroup = E;
unicode = 00CA;
},
{
glyphname = Ecircumflexacute;
lastChange = "2015-12-01 01:43:09 +0000";
layers = (
{
layerId = "3EB4D4D8-7151-4DFB-AE23-ECE37F7A1310";
name = "Bold Italic";
paths = (
{
closed = 1;
nodes = (
"497 0 LINE",
"533 174 LINE",
"233 174 LINE",
"254 270 LINE",
"470 270 LINE",
"504 429 LINE",
"288 429 LINE",
"308 525 LINE",
"608 525 LINE",
"645 699 LINE",
"138 699 LINE",
"-10 0 LINE"
);
},
{
closed = 1;
nodes = (
"343 741 LINE",
"419 809 LINE",
"465 741 LINE",
"628 741 LINE",
"504 900 LINE",
"371 900 LINE",
"179 741 LINE"
);
},
{
closed = 1;
nodes = (
"704 865 LINE",
"817 1009 LINE",
"653 1009 LINE",
"564 865 LINE"
);
}
);
width = 557;
}
);
leftKerningGroup = E;
note = Ecircumflexacute;
rightKerningGroup = E;
unicode = 1EBE;
},
{
glyphname = Ecircumflexdotbelow;
lastChange = "2015-12-01 01:43:13 +0000";
layers = (
{
layerId = "3EB4D4D8-7151-4DFB-AE23-ECE37F7A1310";
name = "Bold Italic";
paths = (
{
closed = 1;
nodes = (
"497 0 LINE",
"533 174 LINE",
"233 174 LINE",
"254 270 LINE",
"470 270 LINE",
"504 429 LINE",
"288 429 LINE",
"308 525 LINE",
"608 525 LINE",
"645 699 LINE",
"138 699 LINE",
"-10 0 LINE"
);
},
{
closed = 1;
nodes = (
"253 -210 OFFCURVE",
"297 -174 OFFCURVE",
"306 -128 CURVE SMOOTH",
"316 -82 OFFCURVE",
"288 -46 OFFCURVE",
"244 -46 CURVE SMOOTH",
"199 -46 OFFCURVE",
"153 -82 OFFCURVE",
"143 -128 CURVE SMOOTH",
"134 -174 OFFCURVE",
"164 -210 OFFCURVE",
"209 -210 CURVE SMOOTH"
);
},
{
closed = 1;
nodes = (
"337 748 LINE",
"410 819 LINE",
"453 748 LINE",
"620 748 LINE",
"509 920 LINE",
"344 920 LINE",
"160 748 LINE"
);
}
);
width = 557;
}
);
leftKerningGroup = E;
note = Ecircumflexdotbelow;
rightKerningGroup = E;
unicode = 1EC6;
},
{
glyphname = Ecircumflexgrave;
lastChange = "2015-12-01 01:43:12 +0000";
layers = (
{
layerId = "3EB4D4D8-7151-4DFB-AE23-ECE37F7A1310";
name = "Bold Italic";
paths = (
{
closed = 1;
nodes = (
"497 0 LINE",
"533 174 LINE",
"233 174 LINE",
"254 270 LINE",
"470 270 LINE",
"504 429 LINE",
"288 429 LINE",
"308 525 LINE",
"608 525 LINE",
"645 699 LINE",
"138 699 LINE",
"-10 0 LINE"
);
},
{
closed = 1;
nodes = (
"300 865 LINE",
"273 1009 LINE",
"109 1009 LINE",
"160 865 LINE"
);
},
{
closed = 1;
nodes = (
"348 741 LINE",
"424 809 LINE",
"470 741 LINE",
"633 741 LINE",
"509 900 LINE",
"377 900 LINE",
"184 741 LINE"
);
}
);
width = 557;
}
);
leftKerningGroup = E;
note = Ecircumflexgrave;
rightKerningGroup = E;
unicode = 1EC0;
},
{
glyphname = Ecircumflexhookabove;
lastChange = "2015-12-01 01:43:09 +0000";
layers = (
{
layerId = "3EB4D4D8-7151-4DFB-AE23-ECE37F7A1310";
name = "Bold Italic";
paths = (
{
closed = 1;
nodes = (
"497 0 LINE",
"533 174 LINE",
"233 174 LINE",
"254 270 LINE",
"470 270 LINE",
"504 429 LINE",
"288 429 LINE",
"308 525 LINE",
"608 525 LINE",
"645 699 LINE",
"138 699 LINE",
"-10 0 LINE"
);
},
{
closed = 1;
nodes = (
"335 741 LINE",
"411 809 LINE",
"457 741 LINE",
"620 741 LINE",
"496 900 LINE",
"363 900 LINE",
"171 741 LINE"
);
},
{
closed = 1;
nodes = (
"671 854 LINE",
"676 879 LINE",
"716 890 OFFCURVE",
"743 912 OFFCURVE",
"750 945 CURVE SMOOTH",
"760 990 OFFCURVE",
"727 1020 OFFCURVE",
"652 1020 CURVE SMOOTH",
"623 1020 OFFCURVE",
"581 1014 OFFCURVE",
"557 1008 CURVE",
"543 944 LINE",
"553 948 OFFCURVE",
"569 950 OFFCURVE",
"580 950 CURVE SMOOTH",
"606 950 OFFCURVE",
"617 943 OFFCURVE",
"614 929 CURVE SMOOTH",
"610 911 OFFCURVE",
"590 905 OFFCURVE",
"560 905 CURVE",
"549 854 LINE"
);
}
);
width = 557;
}
);
leftKerningGroup = E;
note = Ecircumflexhookabove;
rightKerningGroup = E;
unicode = 1EC2;
},
{
glyphname = Ecircumflextilde;
lastChange = "2015-12-01 01:43:12 +0000";
layers = (
{
layerId = "3EB4D4D8-7151-4DFB-AE23-ECE37F7A1310";
name = "Bold Italic";
paths = (
{
closed = 1;
nodes = (
"497 0 LINE",
"533 174 LINE",
"233 174 LINE",
"254 270 LINE",
"470 270 LINE",
"504 429 LINE",
"288 429 LINE",
"308 525 LINE",
"608 525 LINE",
"645 699 LINE",
"138 699 LINE",
"-10 0 LINE"
);
},
{
closed = 1;
nodes = (
"341 741 LINE",
"417 809 LINE",
"463 741 LINE",
"626 741 LINE",
"502 900 LINE",
"369 900 LINE",
"177 741 LINE"
);
},
{
closed = 1;
nodes = (
"564 911 OFFCURVE",
"595 920 OFFCURVE",
"620 943 CURVE",
"643 1051 LINE",
"613 1023 OFFCURVE",
"581 1011 OFFCURVE",
"548 1011 CURVE SMOOTH",
"498 1011 OFFCURVE",
"450 1052 OFFCURVE",
"396 1052 CURVE SMOOTH",
"360 1052 OFFCURVE",
"329 1042 OFFCURVE",
"304 1019 CURVE",
"281 912 LINE",
"311 940 OFFCURVE",
"343 952 OFFCURVE",
"375 952 CURVE SMOOTH",
"426 952 OFFCURVE",
"471 911 OFFCURVE",
"528 911 CURVE SMOOTH"
);
}
);
width = 557;
}
);
leftKerningGroup = E;
note = Ecircumflextilde;
rightKerningGroup = E;
unicode = 1EC4;
},
{
glyphname = Edieresis;
lastChange = "2015-12-01 01:43:11 +0000";
layers = (
{
layerId = "3EB4D4D8-7151-4DFB-AE23-ECE37F7A1310";
name = "Bold Italic";
paths = (
{
closed = 1;
nodes = (
"497 0 LINE",
"533 174 LINE",
"233 174 LINE",
"254 270 LINE",
"470 270 LINE",
"504 429 LINE",
"288 429 LINE",
"308 525 LINE",
"608 525 LINE",
"645 699 LINE",
"138 699 LINE",
"-10 0 LINE"
);
},
{
closed = 1;
nodes = (
"317 747 OFFCURVE",
"361 782 OFFCURVE",
"371 828 CURVE SMOOTH",
"381 874 OFFCURVE",
"352 911 OFFCURVE",
"307 911 CURVE SMOOTH",
"264 911 OFFCURVE",
"217 874 OFFCURVE",
"207 828 CURVE SMOOTH",
"197 782 OFFCURVE",
"229 747 OFFCURVE",
"272 747 CURVE SMOOTH"
);
},
{
closed = 1;
nodes = (
"552 747 OFFCURVE",
"596 782 OFFCURVE",
"606 828 CURVE SMOOTH",
"616 874 OFFCURVE",
"587 911 OFFCURVE",
"543 911 CURVE SMOOTH",
"498 911 OFFCURVE",
"452 874 OFFCURVE",
"442 828 CURVE SMOOTH",
"432 782 OFFCURVE",
"463 747 OFFCURVE",
"508 747 CURVE SMOOTH"
);
}
);
width = 557;
}
);
leftKerningGroup = E;
note = Edieresis;
rightKerningGroup = E;
unicode = 00CB;
},
{
glyphname = Edotaccent;
lastChange = "2015-12-01 01:43:11 +0000";
layers = (
{
layerId = "3EB4D4D8-7151-4DFB-AE23-ECE37F7A1310";
name = "Bold Italic";
paths = (
{
closed = 1;
nodes = (
"497 0 LINE",
"533 174 LINE",
"233 174 LINE",
"254 270 LINE",
"470 270 LINE",
"504 429 LINE",
"288 429 LINE",
"308 525 LINE",
"608 525 LINE",
"645 699 LINE",
"138 699 LINE",
"-10 0 LINE"
);
},
{
closed = 1;
nodes = (
"429 742 OFFCURVE",
"472 777 OFFCURVE",
"482 823 CURVE SMOOTH",
"492 869 OFFCURVE",
"464 906 OFFCURVE",
"419 906 CURVE SMOOTH",
"374 906 OFFCURVE",
"328 869 OFFCURVE",
"318 823 CURVE SMOOTH",
"308 777 OFFCURVE",
"339 742 OFFCURVE",
"384 742 CURVE SMOOTH"
);
}
);
width = 557;
}
);
leftKerningGroup = E;
note = Edotaccent;
rightKerningGroup = E;
unicode = 0116;
},
{
glyphname = Edotbelow;
lastChange = "2015-12-01 01:43:12 +0000";
layers = (
{
layerId = "3EB4D4D8-7151-4DFB-AE23-ECE37F7A1310";
name = "Bold Italic";
paths = (
{
closed = 1;
nodes = (
"497 0 LINE",
"533 174 LINE",
"233 174 LINE",
"254 270 LINE",
"470 270 LINE",
"504 429 LINE",
"288 429 LINE",
"308 525 LINE",
"608 525 LINE",
"645 699 LINE",
"138 699 LINE",
"-10 0 LINE"
);
},
{
closed = 1;
nodes = (
"237 -210 OFFCURVE",
"281 -174 OFFCURVE",
"290 -128 CURVE SMOOTH",
"300 -82 OFFCURVE",
"272 -46 OFFCURVE",
"228 -46 CURVE SMOOTH",
"183 -46 OFFCURVE",
"137 -82 OFFCURVE",
"127 -128 CURVE SMOOTH",
"118 -174 OFFCURVE",
"148 -210 OFFCURVE",
"193 -210 CURVE SMOOTH"
);
}
);
width = 557;
}
);
leftKerningGroup = E;
note = Edotbelow;
rightKerningGroup = E;
unicode = 1EB8;
},
{
glyphname = Egrave;
lastChange = "2015-12-01 01:43:09 +0000";
layers = (
{
layerId = "3EB4D4D8-7151-4DFB-AE23-ECE37F7A1310";
name = "Bold Italic";
paths = (
{
closed = 1;
nodes = (
"497 0 LINE",
"533 174 LINE",
"233 174 LINE",
"254 270 LINE",
"470 270 LINE",
"504 429 LINE",
"288 429 LINE",
"308 525 LINE",
"608 525 LINE",
"645 699 LINE",
"138 699 LINE",
"-10 0 LINE"
);
},
{
closed = 1;
nodes = (
"480 743 LINE",
"449 923 LINE",
"248 923 LINE",
"303 743 LINE"
);
}
);
width = 557;
}
);
leftKerningGroup = E;
note = Egrave;
rightKerningGroup = E;
unicode = 00C8;
},
{
glyphname = Ehookabove;
lastChange = "2015-12-01 01:43:13 +0000";
layers = (
{
layerId = "3EB4D4D8-7151-4DFB-AE23-ECE37F7A1310";
name = "Bold Italic";
paths = (
{
closed = 1;
nodes = (
"497 0 LINE",
"533 174 LINE",
"233 174 LINE",
"254 270 LINE",
"470 270 LINE",
"504 429 LINE",
"288 429 LINE",
"308 525 LINE",
"608 525 LINE",
"645 699 LINE",
"138 699 LINE",
"-10 0 LINE"
);
},
{
closed = 1;
nodes = (
"449 742 LINE",
"455 772 LINE",
"524 783 OFFCURVE",
"562 820 OFFCURVE",
"573 868 CURVE SMOOTH",
"586 933 OFFCURVE",
"541 978 OFFCURVE",
"428 978 CURVE SMOOTH",
"376 978 OFFCURVE",
"327 970 OFFCURVE",
"294 960 CURVE",
"276 876 LINE",
"289 881 OFFCURVE",
"317 886 OFFCURVE",
"340 886 CURVE SMOOTH",
"387 886 OFFCURVE",
"399 871 OFFCURVE",
"395 853 CURVE SMOOTH",
"389 825 OFFCURVE",
"353 814 OFFCURVE",
"298 814 CURVE",
"283 742 LINE"
);
}
);
width = 557;
}
);
leftKerningGroup = E;
note = Ehookabove;
rightKerningGroup = E;
unicode = 1EBA;
},
{
glyphname = Emacron;
lastChange = "2015-12-01 01:43:13 +0000";
layers = (
{
layerId = "3EB4D4D8-7151-4DFB-AE23-ECE37F7A1310";
name = "Bold Italic";
paths = (
{
closed = 1;
nodes = (
"497 0 LINE",
"533 174 LINE",
"233 174 LINE",
"254 270 LINE",
"470 270 LINE",
"504 429 LINE",
"288 429 LINE",
"308 525 LINE",
"608 525 LINE",
"645 699 LINE",
"138 699 LINE",
"-10 0 LINE"
);
},
{
closed = 1;
nodes = (
"572 757 LINE",
"597 875 LINE",
"242 875 LINE",
"217 757 LINE"
);
}
);
width = 557;
}
);
leftKerningGroup = E;
note = Emacron;
rightKerningGroup = E;
unicode = 0112;
},
{
glyphname = Eogonek;
lastChange = "2015-12-01 01:43:13 +0000";
layers = (
{
layerId = "3EB4D4D8-7151-4DFB-AE23-ECE37F7A1310";
name = "Bold Italic";
paths = (
{
closed = 1;
nodes = (
"497 0 LINE",
"533 174 LINE",
"233 174 LINE",
"254 270 LINE",
"470 270 LINE",
"504 429 LINE",
"288 429 LINE",
"308 525 LINE",
"608 525 LINE",
"645 699 LINE",
"138 699 LINE",
"-10 0 LINE"
);
},
{
closed = 1;
nodes = (
"379 -218 OFFCURVE",
"425 -211 OFFCURVE",
"456 -202 CURVE",
"479 -94 LINE",
"461 -102 OFFCURVE",
"443 -106 OFFCURVE",
"427 -106 CURVE SMOOTH",
"408 -106 OFFCURVE",
"395 -95 OFFCURVE",
"399 -78 CURVE SMOOTH",
"405 -50 OFFCURVE",
"438 -28 OFFCURVE",
"499 0 CURVE",
"317 0 LINE",
"270 -25 OFFCURVE",
"234 -65 OFFCURVE",
"222 -118 CURVE SMOOTH",
"208 -188 OFFCURVE",
"260 -218 OFFCURVE",
"337 -218 CURVE SMOOTH"
);
}
);
width = 557;
}
);
leftKerningGroup = E;
note = Eogonek;
rightKerningGroup = E;
unicode = 0118;
},
{
glyphname = Etilde;
lastChange = "2015-12-01 01:43:11 +0000";
layers = (
{
layerId = "3EB4D4D8-7151-4DFB-AE23-ECE37F7A1310";
name = "Bold Italic";
paths = (
{
closed = 1;
nodes = (
"497 0 LINE",
"533 174 LINE",
"233 174 LINE",
"254 270 LINE",
"470 270 LINE",
"504 429 LINE",
"288 429 LINE",
"308 525 LINE",
"608 525 LINE",
"645 699 LINE",
"138 699 LINE",
"-10 0 LINE"
);
},
{
closed = 1;
nodes = (
"227 778 OFFCURVE",
"265 792 OFFCURVE",
"305 792 CURVE SMOOTH",
"369 792 OFFCURVE",
"423 742 OFFCURVE",
"496 742 CURVE SMOOTH",
"541 742 OFFCURVE",
"580 753 OFFCURVE",
"611 783 CURVE",
"640 923 LINE",
"603 888 OFFCURVE",
"565 874 OFFCURVE",
"524 874 CURVE SMOOTH",
"459 874 OFFCURVE",
"402 924 OFFCURVE",
"334 924 CURVE SMOOTH",
"290 924 OFFCURVE",
"249 912 OFFCURVE",
"218 883 CURVE",
"188 742 LINE"
);
}
);
width = 557;
}
);
leftKerningGroup = E;
note = Etilde;
rightKerningGroup = E;
unicode = 1EBC;
},
{
glyphname = F;
lastChange = "2015-12-01 01:43:09 +0000";
layers = (
{
layerId = "3EB4D4D8-7151-4DFB-AE23-ECE37F7A1310";
name = "Bold Italic";
paths = (
{
closed = 1;
nodes = (
"197 0 LINE",
"254 270 LINE",
"470 270 LINE",
"504 429 LINE",
"288 429 LINE",
"308 525 LINE",
"608 525 LINE",
"645 699 LINE",
"138 699 LINE",
"-10 0 LINE"
);
}
);
width = 547;
}
);
note = F;
unicode = 0046;
},
{
glyphname = G;
lastChange = "2015-12-01 01:43:10 +0000";
layers = (
{
layerId = "3EB4D4D8-7151-4DFB-AE23-ECE37F7A1310";
name = "Bold Italic";
paths = (
{
closed = 1;
nodes = (
"462 -15 OFFCURVE",
"557 10 OFFCURVE",
"631 51 CURVE",
"706 401 LINE",
"421 401 LINE",
"393 270 LINE",
"489 270 LINE",
"470 181 LINE",
"450 173 OFFCURVE",
"425 169 OFFCURVE",
"397 169 CURVE SMOOTH",
"260 169 OFFCURVE",
"228 219 OFFCURVE",
"255 349 CURVE SMOOTH",
"278 460 OFFCURVE",
"344 528 OFFCURVE",
"484 528 CURVE SMOOTH",
"578 528 OFFCURVE",
"646 510 OFFCURVE",
"696 465 CURVE",
"737 656 LINE",
"689 693 OFFCURVE",
"606 714 OFFCURVE",
"505 714 CURVE SMOOTH",
"256 714 OFFCURVE",
"92 575 OFFCURVE",
"44 349 CURVE SMOOTH",
"-4 123 OFFCURVE",
"131 -15 OFFCURVE",
"350 -15 CURVE SMOOTH"
);
}
);
width = 691;
}
);
leftKerningGroup = C;
note = G;
unicode = 0047;
},
{
glyphname = Gbreve;
lastChange = "2015-12-01 01:43:12 +0000";
layers = (
{
layerId = "3EB4D4D8-7151-4DFB-AE23-ECE37F7A1310";
name = "Bold Italic";
paths = (
{
closed = 1;
nodes = (
"462 -15 OFFCURVE",
"557 10 OFFCURVE",
"631 51 CURVE",
"706 401 LINE",
"421 401 LINE",
"393 270 LINE",
"489 270 LINE",
"470 181 LINE",
"450 173 OFFCURVE",
"425 169 OFFCURVE",
"397 169 CURVE SMOOTH",
"260 169 OFFCURVE",
"228 219 OFFCURVE",
"255 349 CURVE SMOOTH",
"278 460 OFFCURVE",
"344 528 OFFCURVE",
"484 528 CURVE SMOOTH",
"578 528 OFFCURVE",
"646 510 OFFCURVE",
"696 465 CURVE",
"737 656 LINE",
"689 693 OFFCURVE",
"606 714 OFFCURVE",
"505 714 CURVE SMOOTH",
"256 714 OFFCURVE",
"92 575 OFFCURVE",
"44 349 CURVE SMOOTH",
"-4 123 OFFCURVE",
"131 -15 OFFCURVE",
"350 -15 CURVE SMOOTH"
);
},
{
closed = 1;
nodes = (
"628 741 OFFCURVE",
"712 812 OFFCURVE",
"736 925 CURVE",
"582 925 LINE",
"574 885 OFFCURVE",
"554 865 OFFCURVE",
"525 865 CURVE SMOOTH",
"495 865 OFFCURVE",
"484 885 OFFCURVE",
"492 925 CURVE",
"349 925 LINE",
"325 812 OFFCURVE",
"379 741 OFFCURVE",
"503 741 CURVE SMOOTH"
);
}
);
width = 691;
}
);
leftKerningGroup = C;
note = Gbreve;
unicode = 011E;
},
{
glyphname = Gcaron;
lastChange = "2015-12-01 01:43:11 +0000";
layers = (
{
layerId = "3EB4D4D8-7151-4DFB-AE23-ECE37F7A1310";
name = "Bold Italic";
paths = (
{
closed = 1;
nodes = (
"462 -15 OFFCURVE",
"557 10 OFFCURVE",
"631 51 CURVE",
"706 401 LINE",
"421 401 LINE",
"393 270 LINE",
"489 270 LINE",
"470 181 LINE",
"450 173 OFFCURVE",
"425 169 OFFCURVE",
"397 169 CURVE SMOOTH",
"260 169 OFFCURVE",
"228 219 OFFCURVE",
"255 349 CURVE SMOOTH",
"278 460 OFFCURVE",
"344 528 OFFCURVE",
"484 528 CURVE SMOOTH",
"578 528 OFFCURVE",
"646 510 OFFCURVE",
"696 465 CURVE",
"737 656 LINE",
"689 693 OFFCURVE",
"606 714 OFFCURVE",
"505 714 CURVE SMOOTH",
"256 714 OFFCURVE",
"92 575 OFFCURVE",
"44 349 CURVE SMOOTH",
"-4 123 OFFCURVE",
"131 -15 OFFCURVE",
"350 -15 CURVE SMOOTH"
);
},
{
closed = 1;
nodes = (
"521 754 LINE",
"706 926 LINE",
"529 926 LINE",
"456 855 LINE",
"413 926 LINE",
"246 926 LINE",
"356 754 LINE"
);
}
);
width = 691;
}
);
leftKerningGroup = C;
note = Gcaron;
unicode = 01E6;
},
{
glyphname = Gcircumflex;
lastChange = "2015-12-01 01:43:09 +0000";
layers = (
{
layerId = "3EB4D4D8-7151-4DFB-AE23-ECE37F7A1310";
name = "Bold Italic";
paths = (
{
closed = 1;
nodes = (
"462 -15 OFFCURVE",
"557 10 OFFCURVE",
"631 51 CURVE",
"706 401 LINE",
"421 401 LINE",
"393 270 LINE",
"489 270 LINE",
"470 181 LINE",
"450 173 OFFCURVE",
"425 169 OFFCURVE",
"397 169 CURVE SMOOTH",
"260 169 OFFCURVE",
"228 219 OFFCURVE",
"255 349 CURVE SMOOTH",
"278 460 OFFCURVE",
"344 528 OFFCURVE",
"484 528 CURVE SMOOTH",
"578 528 OFFCURVE",
"646 510 OFFCURVE",
"696 465 CURVE",
"737 656 LINE",
"689 693 OFFCURVE",
"606 714 OFFCURVE",
"505 714 CURVE SMOOTH",
"256 714 OFFCURVE",
"92 575 OFFCURVE",
"44 349 CURVE SMOOTH",
"-4 123 OFFCURVE",
"131 -15 OFFCURVE",
"350 -15 CURVE SMOOTH"
);
},
{
closed = 1;
nodes = (
"430 748 LINE",
"503 819 LINE",
"546 748 LINE",
"713 748 LINE",
"602 920 LINE",
"437 920 LINE",
"253 748 LINE"
);
}
);
width = 691;
}
);
leftKerningGroup = C;
note = Gcircumflex;
unicode = 011C;
},
{
glyphname = Gcommaaccent;
lastChange = "2015-12-01 01:43:09 +0000";
layers = (
{
layerId = "3EB4D4D8-7151-4DFB-AE23-ECE37F7A1310";
name = "Bold Italic";
paths = (
{
closed = 1;
nodes = (
"462 -15 OFFCURVE",
"557 10 OFFCURVE",
"631 51 CURVE",
"706 401 LINE",
"421 401 LINE",
"393 270 LINE",
"489 270 LINE",
"470 181 LINE",
"450 173 OFFCURVE",
"425 169 OFFCURVE",
"397 169 CURVE SMOOTH",
"260 169 OFFCURVE",
"228 219 OFFCURVE",
"255 349 CURVE SMOOTH",
"278 460 OFFCURVE",
"344 528 OFFCURVE",
"484 528 CURVE SMOOTH",
"578 528 OFFCURVE",
"646 510 OFFCURVE",
"696 465 CURVE",
"737 656 LINE",
"689 693 OFFCURVE",
"606 714 OFFCURVE",
"505 714 CURVE SMOOTH",
"256 714 OFFCURVE",
"92 575 OFFCURVE",
"44 349 CURVE SMOOTH",
"-4 123 OFFCURVE",
"131 -15 OFFCURVE",
"350 -15 CURVE SMOOTH"
);
},
{
closed = 1;
nodes = (
"302 -260 LINE",
"456 -45 LINE",
"259 -45 LINE",
"131 -260 LINE"
);
}
);
width = 691;
}
);
leftKerningGroup = C;
note = Gcommaaccent;
unicode = 0122;
},
{
glyphname = Gdotaccent;
lastChange = "2015-12-01 01:43:09 +0000";
layers = (
{
layerId = "3EB4D4D8-7151-4DFB-AE23-ECE37F7A1310";
name = "Bold Italic";
paths = (
{
closed = 1;
nodes = (
"462 -15 OFFCURVE",
"557 10 OFFCURVE",
"631 51 CURVE",
"706 401 LINE",
"421 401 LINE",
"393 270 LINE",
"489 270 LINE",
"470 181 LINE",
"450 173 OFFCURVE",
"425 169 OFFCURVE",
"397 169 CURVE SMOOTH",
"260 169 OFFCURVE",
"228 219 OFFCURVE",
"255 349 CURVE SMOOTH",
"278 460 OFFCURVE",
"344 528 OFFCURVE",
"484 528 CURVE SMOOTH",
"578 528 OFFCURVE",
"646 510 OFFCURVE",
"696 465 CURVE",
"737 656 LINE",
"689 693 OFFCURVE",
"606 714 OFFCURVE",
"505 714 CURVE SMOOTH",
"256 714 OFFCURVE",
"92 575 OFFCURVE",
"44 349 CURVE SMOOTH",
"-4 123 OFFCURVE",
"131 -15 OFFCURVE",
"350 -15 CURVE SMOOTH"
);
},
{
closed = 1;
nodes = (
"549 742 OFFCURVE",
"592 777 OFFCURVE",
"602 823 CURVE SMOOTH",
"612 869 OFFCURVE",
"584 906 OFFCURVE",
"539 906 CURVE SMOOTH",
"494 906 OFFCURVE",
"448 869 OFFCURVE",
"438 823 CURVE SMOOTH",
"428 777 OFFCURVE",
"459 742 OFFCURVE",
"504 742 CURVE SMOOTH"
);
}
);
width = 691;
}
);
leftKerningGroup = C;
note = Gdotaccent;
unicode = 0120;
},
{
glyphname = Gmacron;
lastChange = "2015-12-01 01:43:13 +0000";
layers = (
{
layerId = "3EB4D4D8-7151-4DFB-AE23-ECE37F7A1310";
name = "Bold Italic";
paths = (
{
closed = 1;
nodes = (
"462 -15 OFFCURVE",
"557 10 OFFCURVE",
"631 51 CURVE",
"706 401 LINE",
"421 401 LINE",
"393 270 LINE",
"489 270 LINE",
"470 181 LINE",
"450 173 OFFCURVE",
"425 169 OFFCURVE",
"397 169 CURVE SMOOTH",
"260 169 OFFCURVE",
"228 219 OFFCURVE",
"255 349 CURVE SMOOTH",
"278 460 OFFCURVE",
"344 528 OFFCURVE",
"484 528 CURVE SMOOTH",
"578 528 OFFCURVE",
"646 510 OFFCURVE",
"696 465 CURVE",
"737 656 LINE",
"689 693 OFFCURVE",
"606 714 OFFCURVE",
"505 714 CURVE SMOOTH",
"256 714 OFFCURVE",
"92 575 OFFCURVE",
"44 349 CURVE SMOOTH",
"-4 123 OFFCURVE",
"131 -15 OFFCURVE",
"350 -15 CURVE SMOOTH"
);
},
{
closed = 1;
nodes = (
"670 757 LINE",
"695 875 LINE",
"340 875 LINE",
"315 757 LINE"
);
}
);
width = 691;
}
);
leftKerningGroup = C;
note = Gmacron;
unicode = 1E20;
},
{
glyphname = H;
lastChange = "2015-12-01 01:43:12 +0000";
layers = (
{
layerId = "3EB4D4D8-7151-4DFB-AE23-ECE37F7A1310";
name = "Bold Italic";
paths = (
{
closed = 1;
nodes = (
"197 0 LINE",
"253 268 LINE",
"486 268 LINE",
"430 0 LINE",
"637 0 LINE",
"785 699 LINE",
"578 699 LINE",
"523 442 LINE",
"290 442 LINE",
"345 699 LINE",
"138 699 LINE",
"-10 0 LINE"
);
}
);
width = 727;
}
);
note = H;
unicode = 0048;
},
{
glyphname = Hbar;
lastChange = "2015-12-01 01:43:09 +0000";
layers = (
{
layerId = "3EB4D4D8-7151-4DFB-AE23-ECE37F7A1310";
name = "Bold Italic";
paths = (
{
closed = 1;
nodes = (
"233 0 LINE",
"287 257 LINE",
"512 257 LINE",
"458 0 LINE",
"669 0 LINE",
"778 517 LINE",
"821 517 LINE",
"849 649 LINE",
"806 649 LINE",
"817 699 LINE",
"606 699 LINE",
"595 649 LINE",
"370 649 LINE",
"381 699 LINE",
"170 699 LINE",
"159 649 LINE",
"117 649 LINE",
"89 517 LINE",
"131 517 LINE",
"22 0 LINE"
);
},
{
closed = 1;
nodes = (
"342 517 LINE",
"567 517 LINE",
"554 453 LINE",
"329 453 LINE"
);
}
);
width = 792;
}
);
note = Hbar;
unicode = 0126;
},
{
glyphname = Hbrevebelow;
lastChange = "2015-12-01 01:43:11 +0000";
layers = (
{
layerId = "3EB4D4D8-7151-4DFB-AE23-ECE37F7A1310";
name = "Bold Italic";
paths = (
{
closed = 1;
nodes = (
"197 0 LINE",
"253 268 LINE",
"486 268 LINE",
"430 0 LINE",
"637 0 LINE",
"785 699 LINE",
"578 699 LINE",
"523 442 LINE",
"290 442 LINE",
"345 699 LINE",
"138 699 LINE",
"-10 0 LINE"
);
},
{
closed = 1;
nodes = (
"387 -236 OFFCURVE",
"471 -165 OFFCURVE",
"495 -52 CURVE",
"341 -52 LINE",
"333 -92 OFFCURVE",
"313 -112 OFFCURVE",
"285 -112 CURVE SMOOTH",
"255 -112 OFFCURVE",
"244 -92 OFFCURVE",
"252 -52 CURVE",
"108 -52 LINE",
"84 -165 OFFCURVE",
"138 -236 OFFCURVE",
"263 -236 CURVE SMOOTH"
);
}
);
width = 727;
}
);
note = Hbrevebelow;
unicode = 1E2A;
},
{
glyphname = Hcircumflex;
lastChange = "2015-12-01 01:43:08 +0000";
layers = (
{
layerId = "3EB4D4D8-7151-4DFB-AE23-ECE37F7A1310";
name = "Bold Italic";
paths = (
{
closed = 1;
nodes = (
"197 0 LINE",
"253 268 LINE",
"486 268 LINE",
"430 0 LINE",
"637 0 LINE",
"785 699 LINE",
"578 699 LINE",
"523 442 LINE",
"290 442 LINE",
"345 699 LINE",
"138 699 LINE",
"-10 0 LINE"
);
},
{
closed = 1;
nodes = (
"399 748 LINE",
"472 819 LINE",
"515 748 LINE",
"682 748 LINE",
"571 920 LINE",
"406 920 LINE",
"222 748 LINE"
);
}
);
width = 727;
}
);
note = Hcircumflex;
unicode = 0124;
},
{
glyphname = Hdotbelow;
lastChange = "2015-12-01 01:43:12 +0000";
layers = (
{
layerId = "3EB4D4D8-7151-4DFB-AE23-ECE37F7A1310";
name = "Bold Italic";
paths = (
{
closed = 1;
nodes = (
"197 0 LINE",
"253 268 LINE",
"486 268 LINE",
"430 0 LINE",
"637 0 LINE",
"785 699 LINE",
"578 699 LINE",
"523 442 LINE",
"290 442 LINE",
"345 699 LINE",
"138 699 LINE",
"-10 0 LINE"
);
},
{
closed = 1;
nodes = (
"314 -210 OFFCURVE",
"358 -174 OFFCURVE",
"367 -128 CURVE SMOOTH",
"377 -82 OFFCURVE",
"349 -46 OFFCURVE",
"305 -46 CURVE SMOOTH",
"260 -46 OFFCURVE",
"214 -82 OFFCURVE",
"204 -128 CURVE SMOOTH",
"195 -174 OFFCURVE",
"225 -210 OFFCURVE",
"270 -210 CURVE SMOOTH"
);
}
);
width = 727;
}
);
note = Hdotbelow;
unicode = 1E24;
},
{
glyphname = I;
lastChange = "2015-12-01 01:43:09 +0000";
layers = (
{
layerId = "3EB4D4D8-7151-4DFB-AE23-ECE37F7A1310";
name = "Bold Italic";
paths = (
{
closed = 1;
nodes = (
"197 0 LINE",
"345 699 LINE",
"138 699 LINE",
"-10 0 LINE"
);
}
);
width = 287;
}
);
note = I;
unicode = 0049;
},
{
glyphname = IJ;
lastChange = "2015-12-01 01:43:09 +0000";
layers = (
{
layerId = "3EB4D4D8-7151-4DFB-AE23-ECE37F7A1310";
name = "Bold Italic";
paths = (
{
closed = 1;
nodes = (
"528 -15 OFFCURVE",
"611 76 OFFCURVE",
"642 222 CURVE SMOOTH",
"743 699 LINE",
"536 699 LINE",
"440 246 LINE SMOOTH",
"429 193 OFFCURVE",
"406 172 OFFCURVE",
"350 172 CURVE SMOOTH",
"319 172 OFFCURVE",
"290 178 OFFCURVE",
"271 188 CURVE",
"234 10 LINE",
"255 -4 OFFCURVE",
"313 -15 OFFCURVE",
"357 -15 CURVE SMOOTH"
);
},
{
closed = 1;
nodes = (
"197 0 LINE",
"345 699 LINE",
"138 699 LINE",
"-10 0 LINE"
);
}
);
width = 680;
}
);
note = IJ;
rightKerningGroup = J;
unicode = 0132;
},
{
glyphname = Iacute;
lastChange = "2015-12-01 01:43:12 +0000";
layers = (
{
layerId = "3EB4D4D8-7151-4DFB-AE23-ECE37F7A1310";
name = "Bold Italic";
paths = (
{
closed = 1;
nodes = (
"197 0 LINE",
"345 699 LINE",
"138 699 LINE",
"-10 0 LINE"
);
},
{
closed = 1;
nodes = (
"316 737 LINE",
"447 917 LINE",
"246 917 LINE",
"139 737 LINE"
);
}
);
width = 287;
}
);
note = Iacute;
unicode = 00CD;
},
{
glyphname = Ibreve;
lastChange = "2015-12-01 01:43:12 +0000";
layers = (
{
layerId = "3EB4D4D8-7151-4DFB-AE23-ECE37F7A1310";
name = "Bold Italic";
paths = (
{
closed = 1;
nodes = (
"197 0 LINE",
"345 699 LINE",
"138 699 LINE",
"-10 0 LINE"
);
},
{
closed = 1;
nodes = (
"354 741 OFFCURVE",
"438 812 OFFCURVE",
"462 925 CURVE",
"308 925 LINE",
"300 885 OFFCURVE",
"280 865 OFFCURVE",
"251 865 CURVE SMOOTH",
"221 865 OFFCURVE",
"210 885 OFFCURVE",
"218 925 CURVE",
"75 925 LINE",
"51 812 OFFCURVE",
"105 741 OFFCURVE",
"229 741 CURVE SMOOTH"
);
}
);
width = 287;
}
);
note = Ibreve;
unicode = 012C;
},
{
glyphname = Icaron;
lastChange = "2015-12-01 01:43:10 +0000";
layers = (
{
layerId = "3EB4D4D8-7151-4DFB-AE23-ECE37F7A1310";
name = "Bold Italic";
paths = (
{
closed = 1;
nodes = (
"197 0 LINE",
"345 699 LINE",
"138 699 LINE",
"-10 0 LINE"
);
},
{
closed = 1;
nodes = (
"314 751 LINE",
"499 923 LINE",
"322 923 LINE",
"249 852 LINE",
"206 923 LINE",
"39 923 LINE",
"149 751 LINE"
);
}
);
width = 287;
}
);
note = Icaron;
unicode = 01CF;
},
{
glyphname = Icircumflex;
lastChange = "2015-12-01 01:43:11 +0000";
layers = (
{
layerId = "3EB4D4D8-7151-4DFB-AE23-ECE37F7A1310";
name = "Bold Italic";
paths = (
{
closed = 1;
nodes = (
"197 0 LINE",
"345 699 LINE",
"138 699 LINE",
"-10 0 LINE"
);
},
{
closed = 1;
nodes = (
"177 741 LINE",
"250 812 LINE",
"293 741 LINE",
"460 741 LINE",
"349 913 LINE",
"184 913 LINE",
"0 741 LINE"
);
}
);
width = 287;
}
);
note = Icircumflex;
unicode = 00CE;
},
{
glyphname = Idieresis;
lastChange = "2015-12-01 01:43:09 +0000";
layers = (
{
layerId = "3EB4D4D8-7151-4DFB-AE23-ECE37F7A1310";
name = "Bold Italic";
paths = (
{
closed = 1;
nodes = (
"197 0 LINE",
"345 699 LINE",
"138 699 LINE",
"-10 0 LINE"
);
},
{
closed = 1;
nodes = (
"158 742 OFFCURVE",
"202 777 OFFCURVE",
"212 823 CURVE SMOOTH",
"222 869 OFFCURVE",
"193 906 OFFCURVE",
"148 906 CURVE SMOOTH",
"105 906 OFFCURVE",
"58 869 OFFCURVE",
"48 823 CURVE SMOOTH",
"38 777 OFFCURVE",
"70 742 OFFCURVE",
"113 742 CURVE SMOOTH"
);
},
{
closed = 1;
nodes = (
"393 742 OFFCURVE",
"437 777 OFFCURVE",
"447 823 CURVE SMOOTH",
"457 869 OFFCURVE",
"428 906 OFFCURVE",
"384 906 CURVE SMOOTH",
"339 906 OFFCURVE",
"293 869 OFFCURVE",
"283 823 CURVE SMOOTH",
"273 777 OFFCURVE",
"304 742 OFFCURVE",
"349 742 CURVE SMOOTH"
);
}
);
width = 287;
}
);
note = Idieresis;
unicode = 00CF;
},
{
glyphname = Idotaccent;
lastChange = "2015-12-01 01:43:09 +0000";
layers = (
{
layerId = "3EB4D4D8-7151-4DFB-AE23-ECE37F7A1310";
name = "Bold Italic";
paths = (
{
closed = 1;
nodes = (
"197 0 LINE",
"345 699 LINE",
"138 699 LINE",
"-10 0 LINE"
);
},
{
closed = 1;
nodes = (
"276 742 OFFCURVE",
"319 777 OFFCURVE",
"329 823 CURVE SMOOTH",
"339 869 OFFCURVE",
"311 906 OFFCURVE",
"266 906 CURVE SMOOTH",
"221 906 OFFCURVE",
"175 869 OFFCURVE",
"165 823 CURVE SMOOTH",
"155 777 OFFCURVE",
"186 742 OFFCURVE",
"231 742 CURVE SMOOTH"
);
}
);
width = 287;
}
);
note = Idotaccent;
unicode = 0130;
},
{
glyphname = Idotbelow;
lastChange = "2015-12-01 01:43:10 +0000";
layers = (
{
layerId = "3EB4D4D8-7151-4DFB-AE23-ECE37F7A1310";
name = "Bold Italic";
paths = (
{
closed = 1;
nodes = (
"197 0 LINE",
"345 699 LINE",
"138 699 LINE",
"-10 0 LINE"
);
},
{
closed = 1;
nodes = (
"94 -210 OFFCURVE",
"138 -174 OFFCURVE",
"147 -128 CURVE SMOOTH",
"157 -82 OFFCURVE",
"129 -46 OFFCURVE",
"85 -46 CURVE SMOOTH",
"40 -46 OFFCURVE",
"-6 -82 OFFCURVE",
"-16 -128 CURVE SMOOTH",
"-25 -174 OFFCURVE",
"5 -210 OFFCURVE",
"50 -210 CURVE SMOOTH"
);
}
);
width = 287;
}
);
note = Idotbelow;
unicode = 1ECA;
},
{
glyphname = Igrave;
lastChange = "2015-12-01 01:43:13 +0000";
layers = (
{
layerId = "3EB4D4D8-7151-4DFB-AE23-ECE37F7A1310";
name = "Bold Italic";
paths = (
{
closed = 1;
nodes = (
"197 0 LINE",
"345 699 LINE",
"138 699 LINE",
"-10 0 LINE"
);
},
{
closed = 1;
nodes = (
"320 737 LINE",
"289 917 LINE",
"88 917 LINE",
"143 737 LINE"
);
}
);
width = 287;
}
);
note = Igrave;
unicode = 00CC;
},
{
glyphname = Ihookabove;
lastChange = "2015-12-01 01:55:16 +0000";
layers = (
{
layerId = "3EB4D4D8-7151-4DFB-AE23-ECE37F7A1310";
name = "Bold Italic";
paths = (
{
closed = 1;
nodes = (
"197 0 LINE",
"345 699 LINE",
"138 699 LINE",
"-10 0 LINE"
);
},
{
closed = 1;
nodes = (
"314 742 LINE",
"320 772 LINE",
"389 783 OFFCURVE",
"427 820 OFFCURVE",
"438 868 CURVE SMOOTH",
"451 933 OFFCURVE",
"406 978 OFFCURVE",
"293 978 CURVE SMOOTH",
"241 978 OFFCURVE",
"192 970 OFFCURVE",
"159 960 CURVE",
"141 876 LINE",
"154 881 OFFCURVE",
"182 886 OFFCURVE",
"205 886 CURVE SMOOTH",
"252 886 OFFCURVE",
"264 871 OFFCURVE",
"260 853 CURVE SMOOTH",
"254 825 OFFCURVE",
"218 814 OFFCURVE",
"163 814 CURVE",
"148 742 LINE"
);
}
);
width = 287;
}
);
note = Ihookabove;
unicode = 1EC8;
},
{
glyphname = Imacron;
lastChange = "2015-12-01 01:43:09 +0000";
layers = (
{
layerId = "3EB4D4D8-7151-4DFB-AE23-ECE37F7A1310";
name = "Bold Italic";
paths = (
{
closed = 1;
nodes = (
"197 0 LINE",
"345 699 LINE",
"138 699 LINE",
"-10 0 LINE"
);
},
{
closed = 1;
nodes = (
"438 747 LINE",
"466 875 LINE",
"93 875 LINE",
"65 747 LINE"
);
}
);
width = 287;
}
);
note = Imacron;
unicode = 012A;
},
{
glyphname = Iogonek;
lastChange = "2015-12-01 01:43:08 +0000";
layers = (
{
layerId = "3EB4D4D8-7151-4DFB-AE23-ECE37F7A1310";
name = "Bold Italic";
paths = (
{
closed = 1;
nodes = (
"197 0 LINE",
"345 699 LINE",
"138 699 LINE",
"-10 0 LINE"
);
},
{
closed = 1;
nodes = (
"72 -218 OFFCURVE",
"118 -211 OFFCURVE",
"149 -202 CURVE",
"172 -94 LINE",
"154 -102 OFFCURVE",
"136 -106 OFFCURVE",
"120 -106 CURVE SMOOTH",
"101 -106 OFFCURVE",
"88 -95 OFFCURVE",
"92 -78 CURVE SMOOTH",
"98 -50 OFFCURVE",
"131 -28 OFFCURVE",
"192 0 CURVE",
"10 0 LINE",
"-37 -25 OFFCURVE",
"-73 -65 OFFCURVE",
"-85 -118 CURVE SMOOTH",
"-99 -188 OFFCURVE",
"-47 -218 OFFCURVE",
"30 -218 CURVE SMOOTH"
);
}
);
width = 287;
}
);
note = Iogonek;
unicode = 012E;
},
{
glyphname = Itilde;
lastChange = "2015-12-01 01:43:11 +0000";
layers = (
{
layerId = "3EB4D4D8-7151-4DFB-AE23-ECE37F7A1310";
name = "Bold Italic";
paths = (
{
closed = 1;
nodes = (
"197 0 LINE",
"345 699 LINE",
"138 699 LINE",
"-10 0 LINE"
);
},
{
closed = 1;
nodes = (
"63 778 OFFCURVE",
"101 792 OFFCURVE",
"141 792 CURVE SMOOTH",
"205 792 OFFCURVE",
"259 742 OFFCURVE",
"332 742 CURVE SMOOTH",
"377 742 OFFCURVE",
"416 753 OFFCURVE",
"447 783 CURVE",
"476 923 LINE",
"439 888 OFFCURVE",
"401 874 OFFCURVE",
"360 874 CURVE SMOOTH",
"295 874 OFFCURVE",
"238 924 OFFCURVE",
"170 924 CURVE SMOOTH",
"126 924 OFFCURVE",
"85 912 OFFCURVE",
"54 883 CURVE",
"24 742 LINE"
);
}
);
width = 287;
}
);
note = Itilde;
unicode = 0128;
},
{
glyphname = J;
lastChange = "2015-12-01 01:43:10 +0000";
layers = (
{
layerId = "3EB4D4D8-7151-4DFB-AE23-ECE37F7A1310";
name = "Bold Italic";
paths = (
{
closed = 1;
nodes = (
"246 -15 OFFCURVE",
"329 76 OFFCURVE",
"360 222 CURVE SMOOTH",
"461 699 LINE",
"254 699 LINE",
"158 246 LINE SMOOTH",
"147 193 OFFCURVE",
"124 172 OFFCURVE",
"68 172 CURVE SMOOTH",
"37 172 OFFCURVE",
"8 178 OFFCURVE",
"-11 188 CURVE",
"-48 10 LINE",
"-27 -4 OFFCURVE",
"31 -15 OFFCURVE",
"75 -15 CURVE SMOOTH"
);
}
);
width = 398;
}
);
note = J;
rightKerningGroup = J;
unicode = 004A;
},
{
glyphname = Jcircumflex;
lastChange = "2015-12-01 01:43:13 +0000";
layers = (
{
layerId = "3EB4D4D8-7151-4DFB-AE23-ECE37F7A1310";
name = "Bold Italic";
paths = (
{
closed = 1;
nodes = (
"246 -15 OFFCURVE",
"329 76 OFFCURVE",
"360 222 CURVE SMOOTH",
"461 699 LINE",
"254 699 LINE",
"158 246 LINE SMOOTH",
"147 193 OFFCURVE",
"124 172 OFFCURVE",
"68 172 CURVE SMOOTH",
"37 172 OFFCURVE",
"8 178 OFFCURVE",
"-11 188 CURVE",
"-48 10 LINE",
"-27 -4 OFFCURVE",
"31 -15 OFFCURVE",
"75 -15 CURVE SMOOTH"
);
},
{
closed = 1;
nodes = (
"286 741 LINE",
"359 812 LINE",
"402 741 LINE",
"569 741 LINE",
"458 913 LINE",
"293 913 LINE",
"109 741 LINE"
);
}
);
width = 398;
}
);
note = Jcircumflex;
rightKerningGroup = J;
unicode = 0134;
},
{
glyphname = K;
lastChange = "2015-12-01 01:43:09 +0000";
layers = (
{
layerId = "3EB4D4D8-7151-4DFB-AE23-ECE37F7A1310";
name = "Bold Italic";
paths = (
{
closed = 1;
nodes = (
"197 0 LINE",
"259 292 LINE",
"431 0 LINE",
"675 0 LINE",
"463 360 LINE",
"804 699 LINE",
"560 699 LINE",
"287 428 LINE",
"345 699 LINE",
"138 699 LINE",
"-10 0 LINE"
);
}
);
width = 745;
}
);
leftKerningGroup = K;
note = K;
rightKerningGroup = K;
unicode = 004B;
},
{
glyphname = Kcommaaccent;
lastChange = "2015-12-01 01:43:12 +0000";
layers = (
{
layerId = "3EB4D4D8-7151-4DFB-AE23-ECE37F7A1310";
name = "Bold Italic";
paths = (
{
closed = 1;
nodes = (
"197 0 LINE",
"259 292 LINE",
"431 0 LINE",
"675 0 LINE",
"463 360 LINE",
"804 699 LINE",
"560 699 LINE",
"287 428 LINE",
"345 699 LINE",
"138 699 LINE",
"-10 0 LINE"
);
},
{
closed = 1;
nodes = (
"246 -260 LINE",
"400 -45 LINE",
"203 -45 LINE",
"75 -260 LINE"
);
}
);
width = 745;
}
);
leftKerningGroup = K;
note = Kcommaaccent;
rightKerningGroup = K;
unicode = 0136;
},
{
glyphname = L;
lastChange = "2015-12-01 01:43:11 +0000";
layers = (
{
layerId = "3EB4D4D8-7151-4DFB-AE23-ECE37F7A1310";
name = "Bold Italic";
paths = (
{
closed = 1;
nodes = (
"479 0 LINE",
"515 174 LINE",
"233 174 LINE",
"345 699 LINE",
"138 699 LINE",
"-10 0 LINE"
);
}
);
width = 529;
}
);
note = L;
rightKerningGroup = L;
unicode = 004C;
},
{
glyphname = Lacute;
lastChange = "2015-12-01 01:43:12 +0000";
layers = (
{
layerId = "3EB4D4D8-7151-4DFB-AE23-ECE37F7A1310";
name = "Bold Italic";
paths = (
{
closed = 1;
nodes = (
"479 0 LINE",
"515 174 LINE",
"233 174 LINE",
"345 699 LINE",
"138 699 LINE",
"-10 0 LINE"
);
},
{
closed = 1;
nodes = (
"322 740 LINE",
"453 920 LINE",
"252 920 LINE",
"145 740 LINE"
);
}
);
width = 529;
}
);
note = Lacute;
rightKerningGroup = L;
unicode = 0139;
},
{
glyphname = Lcaron;
lastChange = "2015-12-01 01:43:10 +0000";
layers = (
{
layerId = "3EB4D4D8-7151-4DFB-AE23-ECE37F7A1310";
name = "Bold Italic";
paths = (
{
closed = 1;
nodes = (
"479 0 LINE",
"515 174 LINE",
"233 174 LINE",
"345 699 LINE",
"138 699 LINE",
"-10 0 LINE"
);
},
{
closed = 1;
nodes = (
"549 503 LINE",
"703 718 LINE",
"506 718 LINE",
"378 503 LINE"
);
}
);
width = 549;
}
);
note = Lcaron;
rightKerningGroup = L;
unicode = 013D;
},
{
glyphname = Lcommaaccent;
lastChange = "2015-12-01 01:43:08 +0000";
layers = (
{
layerId = "3EB4D4D8-7151-4DFB-AE23-ECE37F7A1310";
name = "Bold Italic";
paths = (
{
closed = 1;
nodes = (
"479 0 LINE",
"515 174 LINE",
"233 174 LINE",
"345 699 LINE",
"138 699 LINE",
"-10 0 LINE"
);
},
{
closed = 1;
nodes = (
"197 -260 LINE",
"351 -45 LINE",
"154 -45 LINE",
"26 -260 LINE"
);
}
);
width = 529;
}
);
note = Lcommaaccent;
rightKerningGroup = L;
unicode = 013B;
},
{
glyphname = Ldot;
lastChange = "2015-12-01 01:43:09 +0000";
layers = (
{
layerId = "3EB4D4D8-7151-4DFB-AE23-ECE37F7A1310";
name = "Bold Italic";
paths = (
{
closed = 1;
nodes = (
"479 0 LINE",
"515 174 LINE",
"233 174 LINE",
"345 699 LINE",
"138 699 LINE",
"-10 0 LINE"
);
},
{
closed = 1;
nodes = (
"468 317 OFFCURVE",
"511 352 OFFCURVE",
"521 398 CURVE SMOOTH",
"531 444 OFFCURVE",
"503 481 OFFCURVE",
"458 481 CURVE SMOOTH",
"413 481 OFFCURVE",
"367 444 OFFCURVE",
"357 398 CURVE SMOOTH",
"347 352 OFFCURVE",
"378 317 OFFCURVE",
"423 317 CURVE SMOOTH"
);
}
);
width = 529;
}
);
note = Ldot;
rightKerningGroup = L;
unicode = 013F;
},
{
glyphname = Ldotbelow;
lastChange = "2015-12-01 01:43:09 +0000";
layers = (
{
layerId = "3EB4D4D8-7151-4DFB-AE23-ECE37F7A1310";
name = "Bold Italic";
paths = (
{
closed = 1;
nodes = (
"479 0 LINE",
"515 174 LINE",
"233 174 LINE",
"345 699 LINE",
"138 699 LINE",
"-10 0 LINE"
);
},
{
closed = 1;
nodes = (
"232 -210 OFFCURVE",
"276 -174 OFFCURVE",
"285 -128 CURVE SMOOTH",
"295 -82 OFFCURVE",
"267 -46 OFFCURVE",
"223 -46 CURVE SMOOTH",
"178 -46 OFFCURVE",
"132 -82 OFFCURVE",
"122 -128 CURVE SMOOTH",
"113 -174 OFFCURVE",
"143 -210 OFFCURVE",
"188 -210 CURVE SMOOTH"
);
}
);
width = 529;
}
);
note = Ldotbelow;
rightKerningGroup = L;
unicode = 1E36;
},
{
glyphname = Ldotbelowmacron;
lastChange = "2015-12-01 01:43:13 +0000";
layers = (
{
layerId = "3EB4D4D8-7151-4DFB-AE23-ECE37F7A1310";
name = "Bold Italic";
paths = (
{
closed = 1;
nodes = (
"480 0 LINE",
"516 174 LINE",
"234 174 LINE",
"346 699 LINE",
"139 699 LINE",
"-9 0 LINE"
);
},
{
closed = 1;
nodes = (
"232 -210 OFFCURVE",
"276 -174 OFFCURVE",
"285 -128 CURVE SMOOTH",
"295 -82 OFFCURVE",
"267 -46 OFFCURVE",
"223 -46 CURVE SMOOTH",
"178 -46 OFFCURVE",
"132 -82 OFFCURVE",
"122 -128 CURVE SMOOTH",
"113 -174 OFFCURVE",
"143 -210 OFFCURVE",
"188 -210 CURVE SMOOTH"
);
},
{
closed = 1;
nodes = (
"447 764 LINE",
"472 882 LINE",
"117 882 LINE",
"92 764 LINE"
);
}
);
width = 530;
}
);
note = Ldotbelowmacron;
rightKerningGroup = L;
unicode = 1E38;
},
{
glyphname = Llinebelow;
lastChange = "2015-12-01 01:43:09 +0000";
layers = (
{
layerId = "3EB4D4D8-7151-4DFB-AE23-ECE37F7A1310";
name = "Bold Italic";
paths = (
{
closed = 1;
nodes = (
"479 0 LINE",
"515 174 LINE",
"233 174 LINE",
"345 699 LINE",
"138 699 LINE",
"-10 0 LINE"
);
},
{
closed = 1;
nodes = (
"379 -172 LINE",
"404 -54 LINE",
"49 -54 LINE",
"24 -172 LINE"
);
}
);
width = 529;
}
);
note = Llinebelow;
rightKerningGroup = L;
unicode = 1E3A;
},
{
glyphname = Lslash;
lastChange = "2015-12-01 01:43:13 +0000";
layers = (
{
layerId = "3EB4D4D8-7151-4DFB-AE23-ECE37F7A1310";
name = "Bold Italic";
paths = (
{
closed = 1;
nodes = (
"487 0 LINE",
"524 177 LINE",
"246 177 LINE",
"280 337 LINE",
"419 394 LINE",
"460 587 LINE",
"321 530 LINE",
"357 699 LINE",
"146 699 LINE",
"90 436 LINE",
"16 406 LINE",
"-25 212 LINE",
"49 242 LINE",
"-2 0 LINE"
);
}
);
width = 537;
}
);
note = Lslash;
rightKerningGroup = L;
unicode = 0141;
},
{
glyphname = M;
lastChange = "2015-12-01 01:43:10 +0000";
layers = (
{
layerId = "3EB4D4D8-7151-4DFB-AE23-ECE37F7A1310";
name = "Bold Italic";
paths = (
{
closed = 1;
nodes = (
"183 0 LINE",
"248 310 LINE",
"326 0 LINE",
"412 0 LINE",
"620 310 LINE",
"555 0 LINE",
"748 0 LINE",
"896 699 LINE",
"697 699 LINE",
"420 288 LINE",
"317 699 LINE",
"138 699 LINE",
"-10 0 LINE"
);
}
);
width = 838;
}
);
note = M;
unicode = 004D;
},
{
glyphname = Mdotbelow;
lastChange = "2015-12-01 01:43:11 +0000";
layers = (
{
layerId = "3EB4D4D8-7151-4DFB-AE23-ECE37F7A1310";
name = "Bold Italic";
paths = (
{
closed = 1;
nodes = (
"183 0 LINE",
"248 310 LINE",
"326 0 LINE",
"412 0 LINE",
"620 310 LINE",
"555 0 LINE",
"748 0 LINE",
"896 699 LINE",
"697 699 LINE",
"420 288 LINE",
"317 699 LINE",
"138 699 LINE",
"-10 0 LINE"
);
},
{
closed = 1;
nodes = (
"376 -210 OFFCURVE",
"420 -174 OFFCURVE",
"429 -128 CURVE SMOOTH",
"439 -82 OFFCURVE",
"411 -46 OFFCURVE",
"367 -46 CURVE SMOOTH",
"322 -46 OFFCURVE",
"276 -82 OFFCURVE",
"266 -128 CURVE SMOOTH",
"257 -174 OFFCURVE",
"287 -210 OFFCURVE",
"332 -210 CURVE SMOOTH"
);
}
);
width = 838;
}
);
note = Mdotbelow;
unicode = 1E42;
},
{
glyphname = N;
lastChange = "2015-12-01 01:43:12 +0000";
layers = (
{
layerId = "3EB4D4D8-7151-4DFB-AE23-ECE37F7A1310";
name = "Bold Italic";
paths = (
{
closed = 1;
nodes = (
"197 0 LINE",
"274 366 LINE",
"416 0 LINE",
"616 0 LINE",
"764 699 LINE",
"557 699 LINE",
"479 333 LINE",
"339 699 LINE",
"138 699 LINE",
"-10 0 LINE"
);
}
);
width = 706;
}
);
note = N;
unicode = 004E;
},
{
glyphname = Nacute;
lastChange = "2015-12-01 01:43:11 +0000";
layers = (
{
layerId = "3EB4D4D8-7151-4DFB-AE23-ECE37F7A1310";
name = "Bold Italic";
paths = (
{
closed = 1;
nodes = (
"197 0 LINE",
"274 366 LINE",
"416 0 LINE",
"616 0 LINE",
"764 699 LINE",
"557 699 LINE",
"479 333 LINE",
"339 699 LINE",
"138 699 LINE",
"-10 0 LINE"
);
},
{
closed = 1;
nodes = (
"526 737 LINE",
"657 917 LINE",
"456 917 LINE",
"349 737 LINE"
);
}
);
width = 706;
}
);
note = Nacute;
unicode = 0143;
},
{
glyphname = Ncaron;
lastChange = "2015-12-01 01:43:09 +0000";
layers = (
{
layerId = "3EB4D4D8-7151-4DFB-AE23-ECE37F7A1310";
name = "Bold Italic";
paths = (
{
closed = 1;
nodes = (
"197 0 LINE",
"274 366 LINE",
"416 0 LINE",
"616 0 LINE",
"764 699 LINE",
"557 699 LINE",
"479 333 LINE",
"339 699 LINE",
"138 699 LINE",
"-10 0 LINE"
);
},
{
closed = 1;
nodes = (
"531 748 LINE",
"716 920 LINE",
"539 920 LINE",
"466 849 LINE",
"423 920 LINE",
"256 920 LINE",
"366 748 LINE"
);
}
);
width = 706;
}
);
note = Ncaron;
unicode = 0147;
},
{
glyphname = Ncommaaccent;
lastChange = "2015-12-01 01:43:09 +0000";
layers = (
{
layerId = "3EB4D4D8-7151-4DFB-AE23-ECE37F7A1310";
name = "Bold Italic";
paths = (
{
closed = 1;
nodes = (
"197 0 LINE",
"274 366 LINE",
"416 0 LINE",
"616 0 LINE",
"764 699 LINE",
"557 699 LINE",
"479 333 LINE",
"339 699 LINE",
"138 699 LINE",
"-10 0 LINE"
);
},
{
closed = 1;
nodes = (
"252 -260 LINE",
"406 -45 LINE",
"209 -45 LINE",
"81 -260 LINE"
);
}
);
width = 706;
}
);
note = Ncommaaccent;
unicode = 0145;
},
{
glyphname = Ndotaccent;
lastChange = "2015-12-01 01:43:10 +0000";
layers = (
{
layerId = "3EB4D4D8-7151-4DFB-AE23-ECE37F7A1310";
name = "Bold Italic";
paths = (
{
closed = 1;
nodes = (
"197 0 LINE",
"274 366 LINE",
"416 0 LINE",
"616 0 LINE",
"764 699 LINE",
"557 699 LINE",
"479 333 LINE",
"339 699 LINE",
"138 699 LINE",
"-10 0 LINE"
);
},
{
closed = 1;
nodes = (
"493 742 OFFCURVE",
"536 777 OFFCURVE",
"546 823 CURVE SMOOTH",
"556 869 OFFCURVE",
"528 906 OFFCURVE",
"483 906 CURVE SMOOTH",
"438 906 OFFCURVE",
"392 869 OFFCURVE",
"382 823 CURVE SMOOTH",
"372 777 OFFCURVE",
"403 742 OFFCURVE",
"448 742 CURVE SMOOTH"
);
}
);
width = 706;
}
);
note = Ndotaccent;
unicode = 1E44;
},
{
glyphname = Ndotbelow;
lastChange = "2015-12-01 01:43:11 +0000";
layers = (
{
layerId = "3EB4D4D8-7151-4DFB-AE23-ECE37F7A1310";
name = "Bold Italic";
paths = (
{
closed = 1;
nodes = (
"197 0 LINE",
"274 366 LINE",
"416 0 LINE",
"616 0 LINE",
"764 699 LINE",
"557 699 LINE",
"479 333 LINE",
"339 699 LINE",
"138 699 LINE",
"-10 0 LINE"
);
},
{
closed = 1;
nodes = (
"310 -210 OFFCURVE",
"354 -174 OFFCURVE",
"363 -128 CURVE SMOOTH",
"373 -82 OFFCURVE",
"345 -46 OFFCURVE",
"301 -46 CURVE SMOOTH",
"256 -46 OFFCURVE",
"210 -82 OFFCURVE",
"200 -128 CURVE SMOOTH",
"191 -174 OFFCURVE",
"221 -210 OFFCURVE",
"266 -210 CURVE SMOOTH"
);
}
);
width = 706;
}
);
note = Ndotbelow;
unicode = 1E46;
},
{
glyphname = Eng;
lastChange = "2015-12-01 01:43:10 +0000";
layers = (
{
layerId = "3EB4D4D8-7151-4DFB-AE23-ECE37F7A1310";
name = "Bold Italic";
paths = (
{
closed = 1;
nodes = (
"483 -231 OFFCURVE",
"581 -161 OFFCURVE",
"611 -20 CURVE SMOOTH",
"764 699 LINE",
"557 699 LINE",
"479 333 LINE",
"339 699 LINE",
"138 699 LINE",
"-10 0 LINE",
"197 0 LINE",
"274 366 LINE",
"416 6 LINE",
"414 -1 LINE",
"404 -48 OFFCURVE",
"373 -68 OFFCURVE",
"333 -68 CURVE SMOOTH",
"303 -68 OFFCURVE",
"283 -63 OFFCURVE",
"265 -53 CURVE",
"231 -212 LINE",
"254 -224 OFFCURVE",
"286 -231 OFFCURVE",
"329 -231 CURVE SMOOTH"
);
}
);
width = 706;
}
);
note = Eng;
unicode = 014A;
},
{
glyphname = Nlinebelow;
lastChange = "2015-12-01 01:43:09 +0000";
layers = (
{
layerId = "3EB4D4D8-7151-4DFB-AE23-ECE37F7A1310";
name = "Bold Italic";
paths = (
{
closed = 1;
nodes = (
"197 0 LINE",
"274 366 LINE",
"416 0 LINE",
"616 0 LINE",
"764 699 LINE",
"557 699 LINE",
"479 333 LINE",
"339 699 LINE",
"138 699 LINE",
"-10 0 LINE"
);
},
{
closed = 1;
nodes = (
"452 -172 LINE",
"477 -54 LINE",
"122 -54 LINE",
"97 -172 LINE"
);
}
);
width = 706;
}
);
note = Nlinebelow;
unicode = 1E48;
},
{
glyphname = Ntilde;
lastChange = "2015-12-01 01:43:09 +0000";
layers = (
{
layerId = "3EB4D4D8-7151-4DFB-AE23-ECE37F7A1310";
name = "Bold Italic";
paths = (
{
closed = 1;
nodes = (
"197 0 LINE",
"274 366 LINE",
"416 0 LINE",
"616 0 LINE",
"764 699 LINE",
"557 699 LINE",
"479 333 LINE",
"339 699 LINE",
"138 699 LINE",
"-10 0 LINE"
);
},
{
closed = 1;
nodes = (
"285 778 OFFCURVE",
"323 792 OFFCURVE",
"363 792 CURVE SMOOTH",
"427 792 OFFCURVE",
"481 742 OFFCURVE",
"554 742 CURVE SMOOTH",
"599 742 OFFCURVE",
"638 753 OFFCURVE",
"669 783 CURVE",
"698 923 LINE",
"661 888 OFFCURVE",
"623 874 OFFCURVE",
"582 874 CURVE SMOOTH",
"517 874 OFFCURVE",
"460 924 OFFCURVE",
"392 924 CURVE SMOOTH",
"348 924 OFFCURVE",
"307 912 OFFCURVE",
"276 883 CURVE",
"246 742 LINE"
);
}
);
width = 706;
}
);
note = Ntilde;
unicode = 00D1;
},
{
glyphname = O;
lastChange = "2015-12-01 01:43:09 +0000";
layers = (
{
layerId = "3EB4D4D8-7151-4DFB-AE23-ECE37F7A1310";
name = "Bold Italic";
paths = (
{
closed = 1;
nodes = (
"567 -15 OFFCURVE",
"751 131 OFFCURVE",
"798 349 CURVE SMOOTH",
"844 568 OFFCURVE",
"711 714 OFFCURVE",
"499 714 CURVE SMOOTH",
"275 714 OFFCURVE",
"90 568 OFFCURVE",
"44 349 CURVE SMOOTH",
"-3 131 OFFCURVE",
"131 -15 OFFCURVE",
"344 -15 CURVE SMOOTH"
);
},
{
closed = 1;
nodes = (
"278 179 OFFCURVE",
"232 242 OFFCURVE",
"255 349 CURVE SMOOTH",
"277 454 OFFCURVE",
"364 518 OFFCURVE",
"458 518 CURVE SMOOTH",
"565 518 OFFCURVE",
"609 454 OFFCURVE",
"587 349 CURVE SMOOTH",
"564 242 OFFCURVE",
"477 179 OFFCURVE",
"386 179 CURVE SMOOTH"
);
}
);
width = 794;
}
);
leftKerningGroup = O;
note = O;
rightKerningGroup = O;
unicode = 004F;
},
{
glyphname = Oacute;
lastChange = "2015-12-01 01:43:09 +0000";
layers = (
{
layerId = "3EB4D4D8-7151-4DFB-AE23-ECE37F7A1310";
name = "Bold Italic";
paths = (
{
closed = 1;
nodes = (
"567 -15 OFFCURVE",
"751 131 OFFCURVE",
"798 349 CURVE SMOOTH",
"844 568 OFFCURVE",
"711 714 OFFCURVE",
"499 714 CURVE SMOOTH",
"275 714 OFFCURVE",
"90 568 OFFCURVE",
"44 349 CURVE SMOOTH",
"-3 131 OFFCURVE",
"131 -15 OFFCURVE",
"344 -15 CURVE SMOOTH"
);
},
{
closed = 1;
nodes = (
"278 179 OFFCURVE",
"232 242 OFFCURVE",
"255 349 CURVE SMOOTH",
"277 454 OFFCURVE",
"364 518 OFFCURVE",
"458 518 CURVE SMOOTH",
"565 518 OFFCURVE",
"609 454 OFFCURVE",
"587 349 CURVE SMOOTH",
"564 242 OFFCURVE",
"477 179 OFFCURVE",
"386 179 CURVE SMOOTH"
);
},
{
closed = 1;
nodes = (
"562 737 LINE",
"693 917 LINE",
"492 917 LINE",
"385 737 LINE"
);
}
);
width = 794;
}
);
leftKerningGroup = O;
note = Oacute;
rightKerningGroup = O;
unicode = 00D3;
},
{
glyphname = Obreve;
lastChange = "2015-12-01 01:43:13 +0000";
layers = (
{
layerId = "3EB4D4D8-7151-4DFB-AE23-ECE37F7A1310";
name = "Bold Italic";
paths = (
{
closed = 1;
nodes = (
"567 -15 OFFCURVE",
"751 131 OFFCURVE",
"798 349 CURVE SMOOTH",
"844 568 OFFCURVE",
"711 714 OFFCURVE",
"499 714 CURVE SMOOTH",
"275 714 OFFCURVE",
"90 568 OFFCURVE",
"44 349 CURVE SMOOTH",
"-3 131 OFFCURVE",
"131 -15 OFFCURVE",
"344 -15 CURVE SMOOTH"
);
},
{
closed = 1;
nodes = (
"278 179 OFFCURVE",
"232 242 OFFCURVE",
"255 349 CURVE SMOOTH",
"277 454 OFFCURVE",
"364 518 OFFCURVE",
"458 518 CURVE SMOOTH",
"565 518 OFFCURVE",
"609 454 OFFCURVE",
"587 349 CURVE SMOOTH",
"564 242 OFFCURVE",
"477 179 OFFCURVE",
"386 179 CURVE SMOOTH"
);
},
{
closed = 1;
nodes = (
"608 741 OFFCURVE",
"692 812 OFFCURVE",
"716 925 CURVE",
"562 925 LINE",
"554 885 OFFCURVE",
"534 865 OFFCURVE",
"505 865 CURVE SMOOTH",
"475 865 OFFCURVE",
"464 885 OFFCURVE",
"472 925 CURVE",
"329 925 LINE",
"305 812 OFFCURVE",
"359 741 OFFCURVE",
"483 741 CURVE SMOOTH"
);
}
);
width = 794;
}
);
leftKerningGroup = O;
note = Obreve;
rightKerningGroup = O;
unicode = 014E;
},
{
glyphname = Ocaron;
lastChange = "2015-12-01 01:43:10 +0000";
layers = (
{
layerId = "3EB4D4D8-7151-4DFB-AE23-ECE37F7A1310";
name = "Bold Italic";
paths = (
{
closed = 1;
nodes = (
"567 -15 OFFCURVE",
"751 131 OFFCURVE",
"798 349 CURVE SMOOTH",
"844 568 OFFCURVE",
"711 714 OFFCURVE",
"499 714 CURVE SMOOTH",
"275 714 OFFCURVE",
"90 568 OFFCURVE",
"44 349 CURVE SMOOTH",
"-3 131 OFFCURVE",
"131 -15 OFFCURVE",
"344 -15 CURVE SMOOTH"
);
},
{
closed = 1;
nodes = (
"278 179 OFFCURVE",
"232 242 OFFCURVE",
"255 349 CURVE SMOOTH",
"277 454 OFFCURVE",
"364 518 OFFCURVE",
"458 518 CURVE SMOOTH",
"565 518 OFFCURVE",
"609 454 OFFCURVE",
"587 349 CURVE SMOOTH",
"564 242 OFFCURVE",
"477 179 OFFCURVE",
"386 179 CURVE SMOOTH"
);
},
{
closed = 1;
nodes = (
"568 748 LINE",
"753 920 LINE",
"576 920 LINE",
"503 849 LINE",
"460 920 LINE",
"293 920 LINE",
"403 748 LINE"
);
}
);
width = 794;
}
);
leftKerningGroup = O;
note = Ocaron;
rightKerningGroup = O;
unicode = 01D1;
},
{
glyphname = Ocircumflex;
lastChange = "2015-12-01 01:43:12 +0000";
layers = (
{
layerId = "3EB4D4D8-7151-4DFB-AE23-ECE37F7A1310";
name = "Bold Italic";
paths = (
{
closed = 1;
nodes = (
"567 -15 OFFCURVE",
"751 131 OFFCURVE",
"798 349 CURVE SMOOTH",
"844 568 OFFCURVE",
"711 714 OFFCURVE",
"499 714 CURVE SMOOTH",
"275 714 OFFCURVE",
"90 568 OFFCURVE",
"44 349 CURVE SMOOTH",
"-3 131 OFFCURVE",
"131 -15 OFFCURVE",
"344 -15 CURVE SMOOTH"
);
},
{
closed = 1;
nodes = (
"278 179 OFFCURVE",
"232 242 OFFCURVE",
"255 349 CURVE SMOOTH",
"277 454 OFFCURVE",
"364 518 OFFCURVE",
"458 518 CURVE SMOOTH",
"565 518 OFFCURVE",
"609 454 OFFCURVE",
"587 349 CURVE SMOOTH",
"564 242 OFFCURVE",
"477 179 OFFCURVE",
"386 179 CURVE SMOOTH"
);
},
{
closed = 1;
nodes = (
"433 749 LINE",
"506 820 LINE",
"549 749 LINE",
"716 749 LINE",
"605 921 LINE",
"440 921 LINE",
"256 749 LINE"
);
}
);
width = 794;
}
);
leftKerningGroup = O;
note = Ocircumflex;
rightKerningGroup = O;
unicode = 00D4;
},
{
glyphname = Ocircumflexacute;
lastChange = "2015-12-01 01:43:09 +0000";
layers = (
{
layerId = "3EB4D4D8-7151-4DFB-AE23-ECE37F7A1310";
name = "Bold Italic";
paths = (
{
closed = 1;
nodes = (
"567 -15 OFFCURVE",
"751 131 OFFCURVE",
"798 349 CURVE SMOOTH",
"844 568 OFFCURVE",
"711 714 OFFCURVE",
"499 714 CURVE SMOOTH",
"275 714 OFFCURVE",
"90 568 OFFCURVE",
"44 349 CURVE SMOOTH",
"-3 131 OFFCURVE",
"131 -15 OFFCURVE",
"344 -15 CURVE SMOOTH"
);
},
{
closed = 1;
nodes = (
"278 179 OFFCURVE",
"232 242 OFFCURVE",
"255 349 CURVE SMOOTH",
"277 454 OFFCURVE",
"364 518 OFFCURVE",
"458 518 CURVE SMOOTH",
"565 518 OFFCURVE",
"609 454 OFFCURVE",
"587 349 CURVE SMOOTH",
"564 242 OFFCURVE",
"477 179 OFFCURVE",
"386 179 CURVE SMOOTH"
);
},
{
closed = 1;
nodes = (
"444 741 LINE",
"520 809 LINE",
"566 741 LINE",
"729 741 LINE",
"605 900 LINE",
"472 900 LINE",
"280 741 LINE"
);
},
{
closed = 1;
nodes = (
"805 865 LINE",
"918 1009 LINE",
"754 1009 LINE",
"665 865 LINE"
);
}
);
width = 794;
}
);
leftKerningGroup = O;
note = Ocircumflexacute;
rightKerningGroup = O;
unicode = 1ED0;
},
{
glyphname = Ocircumflexdotbelow;
lastChange = "2015-12-01 01:43:09 +0000";
layers = (
{
layerId = "3EB4D4D8-7151-4DFB-AE23-ECE37F7A1310";
name = "Bold Italic";
paths = (
{
closed = 1;
nodes = (
"567 -15 OFFCURVE",
"751 131 OFFCURVE",
"798 349 CURVE SMOOTH",
"844 568 OFFCURVE",
"711 714 OFFCURVE",
"499 714 CURVE SMOOTH",
"275 714 OFFCURVE",
"90 568 OFFCURVE",
"44 349 CURVE SMOOTH",
"-3 131 OFFCURVE",
"131 -15 OFFCURVE",
"344 -15 CURVE SMOOTH"
);
},
{
closed = 1;
nodes = (
"348 -210 OFFCURVE",
"392 -174 OFFCURVE",
"401 -128 CURVE SMOOTH",
"411 -82 OFFCURVE",
"383 -46 OFFCURVE",
"339 -46 CURVE SMOOTH",
"294 -46 OFFCURVE",
"248 -82 OFFCURVE",
"238 -128 CURVE SMOOTH",
"229 -174 OFFCURVE",
"259 -210 OFFCURVE",
"304 -210 CURVE SMOOTH"
);
},
{
closed = 1;
nodes = (
"278 179 OFFCURVE",
"232 242 OFFCURVE",
"255 349 CURVE SMOOTH",
"277 454 OFFCURVE",
"364 518 OFFCURVE",
"458 518 CURVE SMOOTH",
"565 518 OFFCURVE",
"609 454 OFFCURVE",
"587 349 CURVE SMOOTH",
"564 242 OFFCURVE",
"477 179 OFFCURVE",
"386 179 CURVE SMOOTH"
);
},
{
closed = 1;
nodes = (
"433 748 LINE",
"506 819 LINE",
"549 748 LINE",
"716 748 LINE",
"605 920 LINE",
"440 920 LINE",
"256 748 LINE"
);
}
);
width = 794;
}
);
leftKerningGroup = O;
note = Ocircumflexdotbelow;
rightKerningGroup = O;
unicode = 1ED8;
},
{
glyphname = Ocircumflexgrave;
lastChange = "2015-12-01 01:43:11 +0000";
layers = (
{
layerId = "3EB4D4D8-7151-4DFB-AE23-ECE37F7A1310";
name = "Bold Italic";
paths = (
{
closed = 1;
nodes = (
"567 -15 OFFCURVE",
"751 131 OFFCURVE",
"798 349 CURVE SMOOTH",
"844 568 OFFCURVE",
"711 714 OFFCURVE",
"499 714 CURVE SMOOTH",
"275 714 OFFCURVE",
"90 568 OFFCURVE",
"44 349 CURVE SMOOTH",
"-3 131 OFFCURVE",
"131 -15 OFFCURVE",
"344 -15 CURVE SMOOTH"
);
},
{
closed = 1;
nodes = (
"278 179 OFFCURVE",
"232 242 OFFCURVE",
"255 349 CURVE SMOOTH",
"277 454 OFFCURVE",
"364 518 OFFCURVE",
"458 518 CURVE SMOOTH",
"565 518 OFFCURVE",
"609 454 OFFCURVE",
"587 349 CURVE SMOOTH",
"564 242 OFFCURVE",
"477 179 OFFCURVE",
"386 179 CURVE SMOOTH"
);
},
{
closed = 1;
nodes = (
"393 865 LINE",
"366 1009 LINE",
"202 1009 LINE",
"253 865 LINE"
);
},
{
closed = 1;
nodes = (
"441 741 LINE",
"517 809 LINE",
"563 741 LINE",
"726 741 LINE",
"602 900 LINE",
"470 900 LINE",
"277 741 LINE"
);
}
);
width = 794;
}
);
leftKerningGroup = O;
note = Ocircumflexgrave;
rightKerningGroup = O;
unicode = 1ED2;
},
{
glyphname = Ocircumflexhookabove;
lastChange = "2015-12-01 01:43:11 +0000";
layers = (
{
layerId = "3EB4D4D8-7151-4DFB-AE23-ECE37F7A1310";
name = "Bold Italic";
paths = (
{
closed = 1;
nodes = (
"567 -15 OFFCURVE",
"751 131 OFFCURVE",
"798 349 CURVE SMOOTH",
"844 568 OFFCURVE",
"711 714 OFFCURVE",
"499 714 CURVE SMOOTH",
"275 714 OFFCURVE",
"90 568 OFFCURVE",
"44 349 CURVE SMOOTH",
"-3 131 OFFCURVE",
"131 -15 OFFCURVE",
"344 -15 CURVE SMOOTH"
);
},
{
closed = 1;
nodes = (
"278 179 OFFCURVE",
"232 242 OFFCURVE",
"255 349 CURVE SMOOTH",
"277 454 OFFCURVE",
"364 518 OFFCURVE",
"458 518 CURVE SMOOTH",
"565 518 OFFCURVE",
"609 454 OFFCURVE",
"587 349 CURVE SMOOTH",
"564 242 OFFCURVE",
"477 179 OFFCURVE",
"386 179 CURVE SMOOTH"
);
},
{
closed = 1;
nodes = (
"457 741 LINE",
"533 809 LINE",
"579 741 LINE",
"742 741 LINE",
"618 900 LINE",
"485 900 LINE",
"293 741 LINE"
);
},
{
closed = 1;
nodes = (
"793 854 LINE",
"798 879 LINE",
"838 890 OFFCURVE",
"865 912 OFFCURVE",
"872 945 CURVE SMOOTH",
"882 990 OFFCURVE",
"849 1020 OFFCURVE",
"774 1020 CURVE SMOOTH",
"745 1020 OFFCURVE",
"703 1014 OFFCURVE",
"679 1008 CURVE",
"665 944 LINE",
"675 948 OFFCURVE",
"691 950 OFFCURVE",
"702 950 CURVE SMOOTH",
"728 950 OFFCURVE",
"739 943 OFFCURVE",
"736 929 CURVE SMOOTH",
"732 911 OFFCURVE",
"712 905 OFFCURVE",
"682 905 CURVE",
"671 854 LINE"
);
}
);
width = 794;
}
);
leftKerningGroup = O;
note = Ocircumflexhookabove;
rightKerningGroup = O;
unicode = 1ED4;
},
{
glyphname = Ocircumflextilde;
lastChange = "2015-12-01 01:43:10 +0000";
layers = (
{
layerId = "3EB4D4D8-7151-4DFB-AE23-ECE37F7A1310";
name = "Bold Italic";
paths = (
{
closed = 1;
nodes = (
"567 -15 OFFCURVE",
"751 131 OFFCURVE",
"798 349 CURVE SMOOTH",
"844 568 OFFCURVE",
"711 714 OFFCURVE",
"499 714 CURVE SMOOTH",
"275 714 OFFCURVE",
"90 568 OFFCURVE",
"44 349 CURVE SMOOTH",
"-3 131 OFFCURVE",
"131 -15 OFFCURVE",
"344 -15 CURVE SMOOTH"
);
},
{
closed = 1;
nodes = (
"278 179 OFFCURVE",
"232 242 OFFCURVE",
"255 349 CURVE SMOOTH",
"277 454 OFFCURVE",
"364 518 OFFCURVE",
"458 518 CURVE SMOOTH",
"565 518 OFFCURVE",
"609 454 OFFCURVE",
"587 349 CURVE SMOOTH",
"564 242 OFFCURVE",
"477 179 OFFCURVE",
"386 179 CURVE SMOOTH"
);
},
{
closed = 1;
nodes = (
"612 741 OFFCURVE",
"698 800 OFFCURVE",
"718 897 CURVE",
"592 897 LINE",
"585 862 OFFCURVE",
"563 844 OFFCURVE",
"527 844 CURVE SMOOTH",
"490 844 OFFCURVE",
"477 862 OFFCURVE",
"484 897 CURVE",
"356 897 LINE",
"336 800 OFFCURVE",
"398 741 OFFCURVE",
"505 741 CURVE SMOOTH"
);
},
{
closed = 1;
nodes = (
"659 920 OFFCURVE",
"690 929 OFFCURVE",
"715 952 CURVE",
"738 1060 LINE",
"708 1032 OFFCURVE",
"676 1020 OFFCURVE",
"645 1020 CURVE SMOOTH",
"593 1020 OFFCURVE",
"545 1061 OFFCURVE",
"491 1061 CURVE SMOOTH",
"455 1061 OFFCURVE",
"424 1051 OFFCURVE",
"399 1028 CURVE",
"376 921 LINE",
"406 949 OFFCURVE",
"438 961 OFFCURVE",
"470 961 CURVE SMOOTH",
"521 961 OFFCURVE",
"566 920 OFFCURVE",
"624 920 CURVE SMOOTH"
);
}
);
width = 794;
}
);
leftKerningGroup = O;
note = Ocircumflextilde;
rightKerningGroup = O;
unicode = 1ED6;
},
{
glyphname = Odieresis;
lastChange = "2015-12-01 01:43:12 +0000";
layers = (
{
layerId = "3EB4D4D8-7151-4DFB-AE23-ECE37F7A1310";
name = "Bold Italic";
paths = (
{
closed = 1;
nodes = (
"567 -15 OFFCURVE",
"751 131 OFFCURVE",
"798 349 CURVE SMOOTH",
"844 568 OFFCURVE",
"711 714 OFFCURVE",
"499 714 CURVE SMOOTH",
"275 714 OFFCURVE",
"90 568 OFFCURVE",
"44 349 CURVE SMOOTH",
"-3 131 OFFCURVE",
"131 -15 OFFCURVE",
"344 -15 CURVE SMOOTH"
);
},
{
closed = 1;
nodes = (
"278 179 OFFCURVE",
"232 242 OFFCURVE",
"255 349 CURVE SMOOTH",
"277 454 OFFCURVE",
"364 518 OFFCURVE",
"458 518 CURVE SMOOTH",
"565 518 OFFCURVE",
"609 454 OFFCURVE",
"587 349 CURVE SMOOTH",
"564 242 OFFCURVE",
"477 179 OFFCURVE",
"386 179 CURVE SMOOTH"
);
},
{
closed = 1;
nodes = (
"413 749 OFFCURVE",
"457 784 OFFCURVE",
"467 830 CURVE SMOOTH",
"477 876 OFFCURVE",
"448 913 OFFCURVE",
"403 913 CURVE SMOOTH",
"360 913 OFFCURVE",
"313 876 OFFCURVE",
"303 830 CURVE SMOOTH",
"293 784 OFFCURVE",
"325 749 OFFCURVE",
"368 749 CURVE SMOOTH"
);
},
{
closed = 1;
nodes = (
"648 749 OFFCURVE",
"692 784 OFFCURVE",
"702 830 CURVE SMOOTH",
"712 876 OFFCURVE",
"683 913 OFFCURVE",
"639 913 CURVE SMOOTH",
"594 913 OFFCURVE",
"548 876 OFFCURVE",
"538 830 CURVE SMOOTH",
"528 784 OFFCURVE",
"559 749 OFFCURVE",
"604 749 CURVE SMOOTH"
);
}
);
width = 794;
}
);
leftKerningGroup = O;
note = Odieresis;
rightKerningGroup = O;
unicode = 00D6;
},
{
glyphname = Odotbelow;
lastChange = "2015-12-01 01:43:10 +0000";
layers = (
{
layerId = "3EB4D4D8-7151-4DFB-AE23-ECE37F7A1310";
name = "Bold Italic";
paths = (
{
closed = 1;
nodes = (
"567 -15 OFFCURVE",
"751 131 OFFCURVE",
"798 349 CURVE SMOOTH",
"844 568 OFFCURVE",
"711 714 OFFCURVE",
"499 714 CURVE SMOOTH",
"275 714 OFFCURVE",
"90 568 OFFCURVE",
"44 349 CURVE SMOOTH",
"-3 131 OFFCURVE",
"131 -15 OFFCURVE",
"344 -15 CURVE SMOOTH"
);
},
{
closed = 1;
nodes = (
"348 -210 OFFCURVE",
"392 -174 OFFCURVE",
"401 -128 CURVE SMOOTH",
"411 -82 OFFCURVE",
"383 -46 OFFCURVE",
"339 -46 CURVE SMOOTH",
"294 -46 OFFCURVE",
"248 -82 OFFCURVE",
"238 -128 CURVE SMOOTH",
"229 -174 OFFCURVE",
"259 -210 OFFCURVE",
"304 -210 CURVE SMOOTH"
);
},
{
closed = 1;
nodes = (
"278 179 OFFCURVE",
"232 242 OFFCURVE",
"255 349 CURVE SMOOTH",
"277 454 OFFCURVE",
"364 518 OFFCURVE",
"458 518 CURVE SMOOTH",
"565 518 OFFCURVE",
"609 454 OFFCURVE",
"587 349 CURVE SMOOTH",
"564 242 OFFCURVE",
"477 179 OFFCURVE",
"386 179 CURVE SMOOTH"
);
}
);
width = 794;
}
);
leftKerningGroup = O;
note = Odotbelow;
rightKerningGroup = O;
unicode = 1ECC;
},
{
glyphname = Ograve;
lastChange = "2015-12-01 01:43:10 +0000";
layers = (
{
layerId = "3EB4D4D8-7151-4DFB-AE23-ECE37F7A1310";
name = "Bold Italic";
paths = (
{
closed = 1;
nodes = (
"567 -15 OFFCURVE",
"751 131 OFFCURVE",
"798 349 CURVE SMOOTH",
"844 568 OFFCURVE",
"711 714 OFFCURVE",
"499 714 CURVE SMOOTH",
"275 714 OFFCURVE",
"90 568 OFFCURVE",
"44 349 CURVE SMOOTH",
"-3 131 OFFCURVE",
"131 -15 OFFCURVE",
"344 -15 CURVE SMOOTH"
);
},
{
closed = 1;
nodes = (
"278 179 OFFCURVE",
"232 242 OFFCURVE",
"255 349 CURVE SMOOTH",
"277 454 OFFCURVE",
"364 518 OFFCURVE",
"458 518 CURVE SMOOTH",
"565 518 OFFCURVE",
"609 454 OFFCURVE",
"587 349 CURVE SMOOTH",
"564 242 OFFCURVE",
"477 179 OFFCURVE",
"386 179 CURVE SMOOTH"
);
},
{
closed = 1;
nodes = (
"585 737 LINE",
"554 917 LINE",
"353 917 LINE",
"408 737 LINE"
);
}
);
width = 794;
}
);
leftKerningGroup = O;
note = Ograve;
rightKerningGroup = O;
unicode = 00D2;
},
{
glyphname = Ohookabove;
lastChange = "2015-12-01 01:43:11 +0000";
layers = (
{
layerId = "3EB4D4D8-7151-4DFB-AE23-ECE37F7A1310";
name = "Bold Italic";
paths = (
{
closed = 1;
nodes = (
"567 -15 OFFCURVE",
"751 131 OFFCURVE",
"798 349 CURVE SMOOTH",
"844 568 OFFCURVE",
"711 714 OFFCURVE",
"499 714 CURVE SMOOTH",
"275 714 OFFCURVE",
"90 568 OFFCURVE",
"44 349 CURVE SMOOTH",
"-3 131 OFFCURVE",
"131 -15 OFFCURVE",
"344 -15 CURVE SMOOTH"
);
},
{
closed = 1;
nodes = (
"278 179 OFFCURVE",
"232 242 OFFCURVE",
"255 349 CURVE SMOOTH",
"277 454 OFFCURVE",
"364 518 OFFCURVE",
"458 518 CURVE SMOOTH",
"565 518 OFFCURVE",
"609 454 OFFCURVE",
"587 349 CURVE SMOOTH",
"564 242 OFFCURVE",
"477 179 OFFCURVE",
"386 179 CURVE SMOOTH"
);
},
{
closed = 1;
nodes = (
"551 742 LINE",
"557 772 LINE",
"626 783 OFFCURVE",
"664 820 OFFCURVE",
"675 868 CURVE SMOOTH",
"688 933 OFFCURVE",
"643 978 OFFCURVE",
"530 978 CURVE SMOOTH",
"478 978 OFFCURVE",
"429 970 OFFCURVE",
"396 960 CURVE",
"378 876 LINE",
"391 881 OFFCURVE",
"419 886 OFFCURVE",
"442 886 CURVE SMOOTH",
"489 886 OFFCURVE",
"501 871 OFFCURVE",
"497 853 CURVE SMOOTH",
"491 825 OFFCURVE",
"455 814 OFFCURVE",
"400 814 CURVE",
"385 742 LINE"
);
}
);
width = 794;
}
);
leftKerningGroup = O;
note = Ohookabove;
rightKerningGroup = O;
unicode = 1ECE;
},
{
glyphname = Ohorn;
lastChange = "2015-12-01 01:43:10 +0000";
layers = (
{
layerId = "3EB4D4D8-7151-4DFB-AE23-ECE37F7A1310";
name = "Bold Italic";
paths = (
{
closed = 1;
nodes = (
"567 -15 OFFCURVE",
"752 131 OFFCURVE",
"798 349 CURVE SMOOTH",
"810 404 OFFCURVE",
"810 455 OFFCURVE",
"800 500 CURVE",
"912 520 OFFCURVE",
"986 599 OFFCURVE",
"1006 701 CURVE SMOOTH",
"1015 747 LINE",
"852 747 LINE",
"845 714 LINE SMOOTH",
"834 661 OFFCURVE",
"805 631 OFFCURVE",
"729 631 CURVE",
"675 684 OFFCURVE",
"595 714 OFFCURVE",
"499 714 CURVE SMOOTH",
"275 714 OFFCURVE",
"91 568 OFFCURVE",
"44 349 CURVE SMOOTH",
"-2 131 OFFCURVE",
"131 -15 OFFCURVE",
"344 -15 CURVE SMOOTH"
);
},
{
closed = 1;
nodes = (
"278 179 OFFCURVE",
"232 242 OFFCURVE",
"255 349 CURVE SMOOTH",
"277 454 OFFCURVE",
"364 518 OFFCURVE",
"458 518 CURVE SMOOTH",
"565 518 OFFCURVE",
"609 454 OFFCURVE",
"587 349 CURVE SMOOTH",
"564 242 OFFCURVE",
"477 179 OFFCURVE",
"386 179 CURVE SMOOTH"
);
}
);
width = 907;
}
);
leftKerningGroup = O;
note = Ohorn;
rightKerningGroup = O;
unicode = 01A0;
},
{
glyphname = Ohornacute;
lastChange = "2015-12-01 01:43:11 +0000";
layers = (
{
layerId = "3EB4D4D8-7151-4DFB-AE23-ECE37F7A1310";
name = "Bold Italic";
paths = (
{
closed = 1;
nodes = (
"567 -15 OFFCURVE",
"752 131 OFFCURVE",
"798 349 CURVE SMOOTH",
"810 404 OFFCURVE",
"810 455 OFFCURVE",
"800 500 CURVE",
"912 520 OFFCURVE",
"986 599 OFFCURVE",
"1006 701 CURVE SMOOTH",
"1015 747 LINE",
"852 747 LINE",
"845 714 LINE SMOOTH",
"834 661 OFFCURVE",
"805 631 OFFCURVE",
"729 631 CURVE",
"675 684 OFFCURVE",
"595 714 OFFCURVE",
"499 714 CURVE SMOOTH",
"275 714 OFFCURVE",
"91 568 OFFCURVE",
"44 349 CURVE SMOOTH",
"-2 131 OFFCURVE",
"131 -15 OFFCURVE",
"344 -15 CURVE SMOOTH"
);
},
{
closed = 1;
nodes = (
"278 179 OFFCURVE",
"232 242 OFFCURVE",
"255 349 CURVE SMOOTH",
"277 454 OFFCURVE",
"364 518 OFFCURVE",
"458 518 CURVE SMOOTH",
"565 518 OFFCURVE",
"609 454 OFFCURVE",
"587 349 CURVE SMOOTH",
"564 242 OFFCURVE",
"477 179 OFFCURVE",
"386 179 CURVE SMOOTH"
);
},
{
closed = 1;
nodes = (
"581 737 LINE",
"712 917 LINE",
"511 917 LINE",
"404 737 LINE"
);
}
);
width = 907;
}
);
leftKerningGroup = O;
note = Ohornacute;
rightKerningGroup = O;
unicode = 1EDA;
},
{
glyphname = Ohorndotbelow;
lastChange = "2015-12-01 01:43:09 +0000";
layers = (
{
layerId = "3EB4D4D8-7151-4DFB-AE23-ECE37F7A1310";
name = "Bold Italic";
paths = (
{
closed = 1;
nodes = (
"567 -15 OFFCURVE",
"752 131 OFFCURVE",
"798 349 CURVE SMOOTH",
"810 404 OFFCURVE",
"810 455 OFFCURVE",
"800 500 CURVE",
"912 520 OFFCURVE",
"986 599 OFFCURVE",
"1006 701 CURVE SMOOTH",
"1015 747 LINE",
"852 747 LINE",
"845 714 LINE SMOOTH",
"834 661 OFFCURVE",
"805 631 OFFCURVE",
"729 631 CURVE",
"675 684 OFFCURVE",
"595 714 OFFCURVE",
"499 714 CURVE SMOOTH",
"275 714 OFFCURVE",
"91 568 OFFCURVE",
"44 349 CURVE SMOOTH",
"-2 131 OFFCURVE",
"131 -15 OFFCURVE",
"344 -15 CURVE SMOOTH"
);
},
{
closed = 1;
nodes = (
"352 -210 OFFCURVE",
"396 -174 OFFCURVE",
"405 -128 CURVE SMOOTH",
"415 -82 OFFCURVE",
"387 -46 OFFCURVE",
"343 -46 CURVE SMOOTH",
"298 -46 OFFCURVE",
"252 -82 OFFCURVE",
"242 -128 CURVE SMOOTH",
"233 -174 OFFCURVE",
"263 -210 OFFCURVE",
"308 -210 CURVE SMOOTH"
);
},
{
closed = 1;
nodes = (
"278 179 OFFCURVE",
"232 242 OFFCURVE",
"255 349 CURVE SMOOTH",
"277 454 OFFCURVE",
"364 518 OFFCURVE",
"458 518 CURVE SMOOTH",
"565 518 OFFCURVE",
"609 454 OFFCURVE",
"587 349 CURVE SMOOTH",
"564 242 OFFCURVE",
"477 179 OFFCURVE",
"386 179 CURVE SMOOTH"
);
}
);
width = 907;
}
);
leftKerningGroup = O;
note = Ohorndotbelow;
rightKerningGroup = O;
unicode = 1EE2;
},
{
glyphname = Ohorngrave;
lastChange = "2015-12-01 01:43:12 +0000";
layers = (
{
layerId = "3EB4D4D8-7151-4DFB-AE23-ECE37F7A1310";
name = "Bold Italic";
paths = (
{
closed = 1;
nodes = (
"567 -15 OFFCURVE",
"752 131 OFFCURVE",
"798 349 CURVE SMOOTH",
"810 404 OFFCURVE",
"810 455 OFFCURVE",
"800 500 CURVE",
"912 520 OFFCURVE",
"986 599 OFFCURVE",
"1006 701 CURVE SMOOTH",
"1015 747 LINE",
"852 747 LINE",
"845 714 LINE SMOOTH",
"834 661 OFFCURVE",
"805 631 OFFCURVE",
"729 631 CURVE",
"675 684 OFFCURVE",
"595 714 OFFCURVE",
"499 714 CURVE SMOOTH",
"275 714 OFFCURVE",
"91 568 OFFCURVE",
"44 349 CURVE SMOOTH",
"-2 131 OFFCURVE",
"131 -15 OFFCURVE",
"344 -15 CURVE SMOOTH"
);
},
{
closed = 1;
nodes = (
"278 179 OFFCURVE",
"232 242 OFFCURVE",
"255 349 CURVE SMOOTH",
"277 454 OFFCURVE",
"364 518 OFFCURVE",
"458 518 CURVE SMOOTH",
"565 518 OFFCURVE",
"609 454 OFFCURVE",
"587 349 CURVE SMOOTH",
"564 242 OFFCURVE",
"477 179 OFFCURVE",
"386 179 CURVE SMOOTH"
);
},
{
closed = 1;
nodes = (
"571 737 LINE",
"540 917 LINE",
"339 917 LINE",
"394 737 LINE"
);
}
);
width = 907;
}
);
leftKerningGroup = O;
note = Ohorngrave;
rightKerningGroup = O;
unicode = 1EDC;
},
{
glyphname = Ohornhookabove;
lastChange = "2015-12-01 01:43:11 +0000";
layers = (
{
layerId = "3EB4D4D8-7151-4DFB-AE23-ECE37F7A1310";
name = "Bold Italic";
paths = (
{
closed = 1;
nodes = (
"567 -15 OFFCURVE",
"752 131 OFFCURVE",
"798 349 CURVE SMOOTH",
"810 404 OFFCURVE",
"810 455 OFFCURVE",
"800 500 CURVE",
"912 520 OFFCURVE",
"986 599 OFFCURVE",
"1006 701 CURVE SMOOTH",
"1015 747 LINE",
"852 747 LINE",
"845 714 LINE SMOOTH",
"834 661 OFFCURVE",
"805 631 OFFCURVE",
"729 631 CURVE",
"675 684 OFFCURVE",
"595 714 OFFCURVE",
"499 714 CURVE SMOOTH",
"275 714 OFFCURVE",
"91 568 OFFCURVE",
"44 349 CURVE SMOOTH",
"-2 131 OFFCURVE",
"131 -15 OFFCURVE",
"344 -15 CURVE SMOOTH"
);
},
{
closed = 1;
nodes = (
"278 179 OFFCURVE",
"232 242 OFFCURVE",
"255 349 CURVE SMOOTH",
"277 454 OFFCURVE",
"364 518 OFFCURVE",
"458 518 CURVE SMOOTH",
"565 518 OFFCURVE",
"609 454 OFFCURVE",
"587 349 CURVE SMOOTH",
"564 242 OFFCURVE",
"477 179 OFFCURVE",
"386 179 CURVE SMOOTH"
);
},
{
closed = 1;
nodes = (
"565 742 LINE",
"571 772 LINE",
"640 783 OFFCURVE",
"678 820 OFFCURVE",
"689 868 CURVE SMOOTH",
"702 933 OFFCURVE",
"657 978 OFFCURVE",
"544 978 CURVE SMOOTH",
"492 978 OFFCURVE",
"443 970 OFFCURVE",
"410 960 CURVE",
"392 876 LINE",
"405 881 OFFCURVE",
"433 886 OFFCURVE",
"456 886 CURVE SMOOTH",
"503 886 OFFCURVE",
"515 871 OFFCURVE",
"511 853 CURVE SMOOTH",
"505 825 OFFCURVE",
"469 814 OFFCURVE",
"414 814 CURVE",
"399 742 LINE"
);
}
);
width = 907;
}
);
leftKerningGroup = O;
note = Ohornhookabove;
rightKerningGroup = O;
unicode = 1EDE;
},
{
glyphname = Ohorntilde;
lastChange = "2015-12-01 01:43:10 +0000";
layers = (
{
layerId = "3EB4D4D8-7151-4DFB-AE23-ECE37F7A1310";
name = "Bold Italic";
paths = (
{
closed = 1;
nodes = (
"567 -15 OFFCURVE",
"752 131 OFFCURVE",
"798 349 CURVE SMOOTH",
"810 404 OFFCURVE",
"810 455 OFFCURVE",
"800 500 CURVE",
"912 520 OFFCURVE",
"986 599 OFFCURVE",
"1006 701 CURVE SMOOTH",
"1015 747 LINE",
"852 747 LINE",
"845 714 LINE SMOOTH",
"834 661 OFFCURVE",
"805 631 OFFCURVE",
"729 631 CURVE",
"675 684 OFFCURVE",
"595 714 OFFCURVE",
"499 714 CURVE SMOOTH",
"275 714 OFFCURVE",
"91 568 OFFCURVE",
"44 349 CURVE SMOOTH",
"-2 131 OFFCURVE",
"131 -15 OFFCURVE",
"344 -15 CURVE SMOOTH"
);
},
{
closed = 1;
nodes = (
"278 179 OFFCURVE",
"232 242 OFFCURVE",
"255 349 CURVE SMOOTH",
"277 454 OFFCURVE",
"364 518 OFFCURVE",
"458 518 CURVE SMOOTH",
"565 518 OFFCURVE",
"609 454 OFFCURVE",
"587 349 CURVE SMOOTH",
"564 242 OFFCURVE",
"477 179 OFFCURVE",
"386 179 CURVE SMOOTH"
);
},
{
closed = 1;
nodes = (
"334 778 OFFCURVE",
"372 792 OFFCURVE",
"412 792 CURVE SMOOTH",
"476 792 OFFCURVE",
"530 742 OFFCURVE",
"603 742 CURVE SMOOTH",
"648 742 OFFCURVE",
"687 753 OFFCURVE",
"718 783 CURVE",
"747 923 LINE",
"710 888 OFFCURVE",
"672 874 OFFCURVE",
"631 874 CURVE SMOOTH",
"566 874 OFFCURVE",
"509 924 OFFCURVE",
"441 924 CURVE SMOOTH",
"397 924 OFFCURVE",
"356 912 OFFCURVE",
"325 883 CURVE",
"295 742 LINE"
);
}
);
width = 907;
}
);
leftKerningGroup = O;
note = Ohorntilde;
rightKerningGroup = O;
unicode = 1EE0;
},
{
glyphname = Ohungarumlaut;
lastChange = "2015-12-01 01:43:09 +0000";
layers = (
{
layerId = "3EB4D4D8-7151-4DFB-AE23-ECE37F7A1310";
name = "Bold Italic";
paths = (
{
closed = 1;
nodes = (
"567 -15 OFFCURVE",
"751 131 OFFCURVE",
"798 349 CURVE SMOOTH",
"844 568 OFFCURVE",
"711 714 OFFCURVE",
"499 714 CURVE SMOOTH",
"275 714 OFFCURVE",
"90 568 OFFCURVE",
"44 349 CURVE SMOOTH",
"-3 131 OFFCURVE",
"131 -15 OFFCURVE",
"344 -15 CURVE SMOOTH"
);
},
{
closed = 1;
nodes = (
"278 179 OFFCURVE",
"232 242 OFFCURVE",
"255 349 CURVE SMOOTH",
"277 454 OFFCURVE",
"364 518 OFFCURVE",
"458 518 CURVE SMOOTH",
"565 518 OFFCURVE",
"609 454 OFFCURVE",
"587 349 CURVE SMOOTH",
"564 242 OFFCURVE",
"477 179 OFFCURVE",
"386 179 CURVE SMOOTH"
);
},
{
closed = 1;
nodes = (
"429 741 LINE",
"560 920 LINE",
"367 920 LINE",
"261 741 LINE"
);
},
{
closed = 1;
nodes = (
"695 741 LINE",
"825 920 LINE",
"632 920 LINE",
"526 741 LINE"
);
}
);
width = 794;
}
);
leftKerningGroup = O;
note = Ohungarumlaut;
rightKerningGroup = O;
unicode = 0150;
},
{
glyphname = Omacron;
lastChange = "2015-12-01 01:43:10 +0000";
layers = (
{
layerId = "3EB4D4D8-7151-4DFB-AE23-ECE37F7A1310";
name = "Bold Italic";
paths = (
{
closed = 1;
nodes = (
"567 -15 OFFCURVE",
"751 131 OFFCURVE",
"798 349 CURVE SMOOTH",
"844 568 OFFCURVE",
"711 714 OFFCURVE",
"499 714 CURVE SMOOTH",
"275 714 OFFCURVE",
"90 568 OFFCURVE",
"44 349 CURVE SMOOTH",
"-3 131 OFFCURVE",
"131 -15 OFFCURVE",
"344 -15 CURVE SMOOTH"
);
},
{
closed = 1;
nodes = (
"278 179 OFFCURVE",
"232 242 OFFCURVE",
"255 349 CURVE SMOOTH",
"277 454 OFFCURVE",
"364 518 OFFCURVE",
"458 518 CURVE SMOOTH",
"565 518 OFFCURVE",
"609 454 OFFCURVE",
"587 349 CURVE SMOOTH",
"564 242 OFFCURVE",
"477 179 OFFCURVE",
"386 179 CURVE SMOOTH"
);
},
{
closed = 1;
nodes = (
"666 757 LINE",
"691 875 LINE",
"336 875 LINE",
"311 757 LINE"
);
}
);
width = 794;
}
);
leftKerningGroup = O;
note = Omacron;
rightKerningGroup = O;
unicode = 014C;
},
{
glyphname = Oslash;
lastChange = "2015-12-01 01:43:13 +0000";
layers = (
{
layerId = "3EB4D4D8-7151-4DFB-AE23-ECE37F7A1310";
name = "Bold Italic";
paths = (
{
closed = 1;
nodes = (
"211 -86 LINE",
"259 -6 LINE",
"286 -12 OFFCURVE",
"314 -15 OFFCURVE",
"344 -15 CURVE SMOOTH",
"567 -15 OFFCURVE",
"752 131 OFFCURVE",
"798 349 CURVE SMOOTH",
"830 497 OFFCURVE",
"778 612 OFFCURVE",
"676 671 CURVE",
"746 784 LINE",
"625 784 LINE",
"577 707 LINE",
"553 712 OFFCURVE",
"526 714 OFFCURVE",
"499 714 CURVE SMOOTH",
"275 714 OFFCURVE",
"91 568 OFFCURVE",
"44 349 CURVE SMOOTH",
"13 203 OFFCURVE",
"62 90 OFFCURVE",
"161 30 CURVE",
"90 -86 LINE"
);
},
{
closed = 1;
nodes = (
"250 246 OFFCURVE",
"242 291 OFFCURVE",
"255 349 CURVE SMOOTH",
"277 454 OFFCURVE",
"364 518 OFFCURVE",
"458 518 CURVE SMOOTH",
"461 518 LINE",
"276 217 LINE"
);
},
{
closed = 1;
nodes = (
"561 484 LINE",
"590 455 OFFCURVE",
"599 408 OFFCURVE",
"587 349 CURVE SMOOTH",
"564 242 OFFCURVE",
"477 179 OFFCURVE",
"386 179 CURVE SMOOTH",
"374 179 LINE"
);
}
);
width = 794;
}
);
leftKerningGroup = O;
note = Oslash;
rightKerningGroup = O;
unicode = 00D8;
},
{
glyphname = Oslashacute;
lastChange = "2015-12-01 01:43:10 +0000";
layers = (
{
layerId = "3EB4D4D8-7151-4DFB-AE23-ECE37F7A1310";
name = "Bold Italic";
paths = (
{
closed = 1;
nodes = (
"219 -86 LINE",
"267 -8 LINE",
"291 -12 OFFCURVE",
"317 -15 OFFCURVE",
"344 -15 CURVE SMOOTH",
"556 -15 OFFCURVE",
"751 131 OFFCURVE",
"798 349 CURVE SMOOTH",
"828 494 OFFCURVE",
"780 607 OFFCURVE",
"682 667 CURVE",
"754 784 LINE",
"617 784 LINE",
"570 708 LINE",
"548 712 OFFCURVE",
"524 714 OFFCURVE",
"499 714 CURVE SMOOTH",
"286 714 OFFCURVE",
"90 568 OFFCURVE",
"44 349 CURVE SMOOTH",
"13 206 OFFCURVE",
"60 94 OFFCURVE",
"156 34 CURVE",
"83 -86 LINE"
);
},
{
closed = 1;
nodes = (
"255 258 OFFCURVE",
"247 298 OFFCURVE",
"258 349 CURVE SMOOTH",
"279 450 OFFCURVE",
"361 513 OFFCURVE",
"452 515 CURVE",
"276 229 LINE"
);
},
{
closed = 1;
nodes = (
"562 471 LINE",
"586 443 OFFCURVE",
"595 401 OFFCURVE",
"584 349 CURVE SMOOTH",
"561 244 OFFCURVE",
"476 182 OFFCURVE",
"386 182 CURVE SMOOTH",
"384 182 LINE"
);
},
{
closed = 1;
nodes = (
"558 742 LINE",
"688 921 LINE",
"477 921 LINE",
"371 742 LINE"
);
}
);
width = 794;
}
);
leftKerningGroup = O;
note = Oslashacute;
rightKerningGroup = O;
unicode = 01FE;
},
{
glyphname = Otilde;
lastChange = "2015-12-01 01:43:11 +0000";
layers = (
{
layerId = "3EB4D4D8-7151-4DFB-AE23-ECE37F7A1310";
name = "Bold Italic";
paths = (
{
closed = 1;
nodes = (
"567 -15 OFFCURVE",
"751 131 OFFCURVE",
"798 349 CURVE SMOOTH",
"844 568 OFFCURVE",
"711 714 OFFCURVE",
"499 714 CURVE SMOOTH",
"275 714 OFFCURVE",
"90 568 OFFCURVE",
"44 349 CURVE SMOOTH",
"-3 131 OFFCURVE",
"131 -15 OFFCURVE",
"344 -15 CURVE SMOOTH"
);
},
{
closed = 1;
nodes = (
"278 179 OFFCURVE",
"232 242 OFFCURVE",
"255 349 CURVE SMOOTH",
"277 454 OFFCURVE",
"364 518 OFFCURVE",
"458 518 CURVE SMOOTH",
"565 518 OFFCURVE",
"609 454 OFFCURVE",
"587 349 CURVE SMOOTH",
"564 242 OFFCURVE",
"477 179 OFFCURVE",
"386 179 CURVE SMOOTH"
);
},
{
closed = 1;
nodes = (
"320 787 OFFCURVE",
"358 801 OFFCURVE",
"398 801 CURVE SMOOTH",
"462 801 OFFCURVE",
"516 751 OFFCURVE",
"589 751 CURVE SMOOTH",
"634 751 OFFCURVE",
"673 762 OFFCURVE",
"704 792 CURVE",
"733 932 LINE",
"696 897 OFFCURVE",
"658 883 OFFCURVE",
"617 883 CURVE SMOOTH",
"552 883 OFFCURVE",
"495 933 OFFCURVE",
"427 933 CURVE SMOOTH",
"383 933 OFFCURVE",
"342 921 OFFCURVE",
"311 892 CURVE",
"281 751 LINE"
);
}
);
width = 794;
}
);
leftKerningGroup = O;
note = Otilde;
rightKerningGroup = O;
unicode = 00D5;
},
{
glyphname = OE;
lastChange = "2015-12-01 01:43:10 +0000";
layers = (
{
layerId = "3EB4D4D8-7151-4DFB-AE23-ECE37F7A1310";
name = "Bold Italic";
paths = (
{
closed = 1;
nodes = (
"821 0 LINE",
"857 174 LINE",
"591 174 LINE",
"612 270 LINE",
"794 270 LINE",
"828 429 LINE",
"646 429 LINE",
"666 525 LINE",
"932 525 LINE",
"969 699 LINE",
"525 699 LINE SMOOTH",
"267 699 OFFCURVE",
"90 568 OFFCURVE",
"44 349 CURVE SMOOTH",
"-3 131 OFFCURVE",
"157 0 OFFCURVE",
"377 0 CURVE SMOOTH"
);
},
{
closed = 1;
nodes = (
"262 186 OFFCURVE",
"232 242 OFFCURVE",
"255 349 CURVE SMOOTH",
"277 455 OFFCURVE",
"349 512 OFFCURVE",
"456 512 CURVE",
"387 186 LINE"
);
}
);
width = 891;
}
);
leftKerningGroup = O;
note = OE;
rightKerningGroup = E;
unicode = 0152;
},
{
glyphname = P;
lastChange = "2015-12-01 01:43:09 +0000";
layers = (
{
layerId = "3EB4D4D8-7151-4DFB-AE23-ECE37F7A1310";
name = "Bold Italic";
paths = (
{
closed = 1;
nodes = (
"197 0 LINE",
"239 200 LINE",
"354 200 LINE SMOOTH",
"536 200 OFFCURVE",
"647 286 OFFCURVE",
"682 450 CURVE SMOOTH",
"717 613 OFFCURVE",
"609 699 OFFCURVE",
"460 699 CURVE SMOOTH",
"138 699 LINE",
"-10 0 LINE"
);
},
{
closed = 1;
nodes = (
"310 535 LINE",
"386 535 LINE SMOOTH",
"456 535 OFFCURVE",
"485 518 OFFCURVE",
"470 450 CURVE SMOOTH",
"456 382 OFFCURVE",
"407 364 OFFCURVE",
"350 364 CURVE SMOOTH",
"274 364 LINE"
);
}
);
width = 647;
}
);
note = P;
unicode = 0050;
},
{
glyphname = Thorn;
lastChange = "2015-12-01 01:43:11 +0000";
layers = (
{
layerId = "3EB4D4D8-7151-4DFB-AE23-ECE37F7A1310";
name = "Bold Italic";
paths = (
{
closed = 1;
nodes = (
"197 0 LINE",
"219 107 LINE",
"336 107 LINE SMOOTH",
"513 107 OFFCURVE",
"625 188 OFFCURVE",
"661 352 CURVE SMOOTH",
"695 508 OFFCURVE",
"585 597 OFFCURVE",
"440 597 CURVE SMOOTH",
"323 597 LINE",
"345 699 LINE",
"138 699 LINE",
"-10 0 LINE"
);
},
{
closed = 1;
nodes = (
"289 433 LINE",
"365 433 LINE SMOOTH",
"442 433 OFFCURVE",
"463 418 OFFCURVE",
"449 352 CURVE SMOOTH",
"435 286 OFFCURVE",
"395 271 OFFCURVE",
"330 271 CURVE SMOOTH",
"254 271 LINE"
);
}
);
width = 647;
}
);
note = Thorn;
unicode = 00DE;
},
{
glyphname = Q;
lastChange = "2015-12-01 01:43:11 +0000";
layers = (
{
layerId = "3EB4D4D8-7151-4DFB-AE23-ECE37F7A1310";
name = "Bold Italic";
paths = (
{
closed = 1;
nodes = (
"744 0 LINE",
"776 155 LINE",
"669 155 LINE",
"727 198 OFFCURVE",
"782 275 OFFCURVE",
"798 349 CURVE SMOOTH",
"844 568 OFFCURVE",
"711 714 OFFCURVE",
"499 714 CURVE SMOOTH",
"267 714 OFFCURVE",
"90 568 OFFCURVE",
"44 349 CURVE SMOOTH",
"-2 132 OFFCURVE",
"140 0 OFFCURVE",
"373 0 CURVE SMOOTH"
);
},
{
closed = 1;
nodes = (
"271 179 OFFCURVE",
"232 242 OFFCURVE",
"255 349 CURVE SMOOTH",
"277 454 OFFCURVE",
"364 518 OFFCURVE",
"458 518 CURVE SMOOTH",
"568 518 OFFCURVE",
"609 454 OFFCURVE",
"587 349 CURVE SMOOTH",
"564 242 OFFCURVE",
"493 179 OFFCURVE",
"386 179 CURVE SMOOTH"
);
}
);
width = 799;
}
);
leftKerningGroup = O;
note = Q;
rightKerningGroup = O;
unicode = 0051;
},
{
glyphname = R;
lastChange = "2015-12-01 01:43:09 +0000";
layers = (
{
layerId = "3EB4D4D8-7151-4DFB-AE23-ECE37F7A1310";
name = "Bold Italic";
paths = (
{
closed = 1;
nodes = (
"197 0 LINE",
"240 205 LINE",
"309 205 LINE",
"367 0 LINE",
"579 0 LINE",
"512 235 LINE",
"598 273 OFFCURVE",
"660 347 OFFCURVE",
"683 452 CURVE SMOOTH",
"716 609 OFFCURVE",
"618 699 OFFCURVE",
"463 699 CURVE SMOOTH",
"138 699 LINE",
"-10 0 LINE"
);
},
{
closed = 1;
nodes = (
"310 535 LINE",
"387 535 LINE SMOOTH",
"459 535 OFFCURVE",
"485 518 OFFCURVE",
"471 452 CURVE SMOOTH",
"457 387 OFFCURVE",
"420 369 OFFCURVE",
"352 369 CURVE SMOOTH",
"275 369 LINE"
);
}
);
width = 657;
}
);
note = R;
rightKerningGroup = R;
unicode = 0052;
},
{
glyphname = Racute;
lastChange = "2015-12-01 01:43:11 +0000";
layers = (
{
layerId = "3EB4D4D8-7151-4DFB-AE23-ECE37F7A1310";
name = "Bold Italic";
paths = (
{
closed = 1;
nodes = (
"197 0 LINE",
"240 205 LINE",
"309 205 LINE",
"367 0 LINE",
"579 0 LINE",
"512 235 LINE",
"598 273 OFFCURVE",
"660 347 OFFCURVE",
"683 452 CURVE SMOOTH",
"716 609 OFFCURVE",
"618 699 OFFCURVE",
"463 699 CURVE SMOOTH",
"138 699 LINE",
"-10 0 LINE"
);
},
{
closed = 1;
nodes = (
"310 535 LINE",
"387 535 LINE SMOOTH",
"459 535 OFFCURVE",
"485 518 OFFCURVE",
"471 452 CURVE SMOOTH",
"457 387 OFFCURVE",
"420 369 OFFCURVE",
"352 369 CURVE SMOOTH",
"275 369 LINE"
);
},
{
closed = 1;
nodes = (
"451 737 LINE",
"582 917 LINE",
"381 917 LINE",
"274 737 LINE"
);
}
);
width = 657;
}
);
note = Racute;
rightKerningGroup = R;
unicode = 0154;
},
{
glyphname = Rcaron;
lastChange = "2015-12-01 01:43:08 +0000";
layers = (
{
layerId = "3EB4D4D8-7151-4DFB-AE23-ECE37F7A1310";
name = "Bold Italic";
paths = (
{
closed = 1;
nodes = (
"197 0 LINE",
"240 205 LINE",
"309 205 LINE",
"367 0 LINE",
"579 0 LINE",
"512 235 LINE",
"598 273 OFFCURVE",
"660 347 OFFCURVE",
"683 452 CURVE SMOOTH",
"716 609 OFFCURVE",
"618 699 OFFCURVE",
"463 699 CURVE SMOOTH",
"138 699 LINE",
"-10 0 LINE"
);
},
{
closed = 1;
nodes = (
"310 535 LINE",
"387 535 LINE SMOOTH",
"459 535 OFFCURVE",
"485 518 OFFCURVE",
"471 452 CURVE SMOOTH",
"457 387 OFFCURVE",
"420 369 OFFCURVE",
"352 369 CURVE SMOOTH",
"275 369 LINE"
);
},
{
closed = 1;
nodes = (
"500 748 LINE",
"685 920 LINE",
"508 920 LINE",
"435 849 LINE",
"392 920 LINE",
"225 920 LINE",
"335 748 LINE"
);
}
);
width = 657;
}
);
note = Rcaron;
rightKerningGroup = R;
unicode = 0158;
},
{
glyphname = Rcommaaccent;
lastChange = "2015-12-01 01:43:10 +0000";
layers = (
{
layerId = "3EB4D4D8-7151-4DFB-AE23-ECE37F7A1310";
name = "Bold Italic";
paths = (
{
closed = 1;
nodes = (
"197 0 LINE",
"240 205 LINE",
"309 205 LINE",
"367 0 LINE",
"579 0 LINE",
"512 235 LINE",
"598 273 OFFCURVE",
"660 347 OFFCURVE",
"683 452 CURVE SMOOTH",
"716 609 OFFCURVE",
"618 699 OFFCURVE",
"463 699 CURVE SMOOTH",
"138 699 LINE",
"-10 0 LINE"
);
},
{
closed = 1;
nodes = (
"214 -260 LINE",
"368 -45 LINE",
"171 -45 LINE",
"43 -260 LINE"
);
},
{
closed = 1;
nodes = (
"310 535 LINE",
"387 535 LINE SMOOTH",
"459 535 OFFCURVE",
"485 518 OFFCURVE",
"471 452 CURVE SMOOTH",
"457 387 OFFCURVE",
"420 369 OFFCURVE",
"352 369 CURVE SMOOTH",
"275 369 LINE"
);
}
);
width = 657;
}
);
note = Rcommaaccent;
rightKerningGroup = R;
unicode = 0156;
},
{
glyphname = Rdotbelow;
lastChange = "2015-12-01 01:43:12 +0000";
layers = (
{
layerId = "3EB4D4D8-7151-4DFB-AE23-ECE37F7A1310";
name = "Bold Italic";
paths = (
{
closed = 1;
nodes = (
"197 0 LINE",
"240 205 LINE",
"309 205 LINE",
"367 0 LINE",
"579 0 LINE",
"512 235 LINE",
"598 273 OFFCURVE",
"660 347 OFFCURVE",
"683 452 CURVE SMOOTH",
"716 609 OFFCURVE",
"618 699 OFFCURVE",
"463 699 CURVE SMOOTH",
"138 699 LINE",
"-10 0 LINE"
);
},
{
closed = 1;
nodes = (
"273 -210 OFFCURVE",
"317 -174 OFFCURVE",
"326 -128 CURVE SMOOTH",
"336 -82 OFFCURVE",
"308 -46 OFFCURVE",
"264 -46 CURVE SMOOTH",
"219 -46 OFFCURVE",
"173 -82 OFFCURVE",
"163 -128 CURVE SMOOTH",
"154 -174 OFFCURVE",
"184 -210 OFFCURVE",
"229 -210 CURVE SMOOTH"
);
},
{
closed = 1;
nodes = (
"310 535 LINE",
"387 535 LINE SMOOTH",
"459 535 OFFCURVE",
"485 518 OFFCURVE",
"471 452 CURVE SMOOTH",
"457 387 OFFCURVE",
"420 369 OFFCURVE",
"352 369 CURVE SMOOTH",
"275 369 LINE"
);
}
);
width = 657;
}
);
note = Rdotbelow;
rightKerningGroup = R;
unicode = 1E5A;
},
{
glyphname = Rdotbelowmacron;
lastChange = "2015-12-01 01:43:09 +0000";
layers = (
{
layerId = "3EB4D4D8-7151-4DFB-AE23-ECE37F7A1310";
name = "Bold Italic";
paths = (
{
closed = 1;
nodes = (
"197 0 LINE",
"240 205 LINE",
"309 205 LINE",
"367 0 LINE",
"579 0 LINE",
"512 235 LINE",
"598 273 OFFCURVE",
"660 347 OFFCURVE",
"683 452 CURVE SMOOTH",
"716 609 OFFCURVE",
"618 699 OFFCURVE",
"463 699 CURVE SMOOTH",
"138 699 LINE",
"-10 0 LINE"
);
},
{
closed = 1;
nodes = (
"273 -210 OFFCURVE",
"317 -174 OFFCURVE",
"326 -128 CURVE SMOOTH",
"336 -82 OFFCURVE",
"308 -46 OFFCURVE",
"264 -46 CURVE SMOOTH",
"219 -46 OFFCURVE",
"173 -82 OFFCURVE",
"163 -128 CURVE SMOOTH",
"154 -174 OFFCURVE",
"184 -210 OFFCURVE",
"229 -210 CURVE SMOOTH"
);
},
{
closed = 1;
nodes = (
"310 535 LINE",
"387 535 LINE SMOOTH",
"459 535 OFFCURVE",
"485 518 OFFCURVE",
"471 452 CURVE SMOOTH",
"457 387 OFFCURVE",
"420 369 OFFCURVE",
"352 369 CURVE SMOOTH",
"275 369 LINE"
);
},
{
closed = 1;
nodes = (
"575 757 LINE",
"600 875 LINE",
"245 875 LINE",
"220 757 LINE"
);
}
);
width = 657;
}
);
note = Rdotbelowmacron;
rightKerningGroup = R;
unicode = 1E5C;
},
{
glyphname = Rlinebelow;
lastChange = "2015-12-01 01:43:13 +0000";
layers = (
{
layerId = "3EB4D4D8-7151-4DFB-AE23-ECE37F7A1310";
name = "Bold Italic";
paths = (
{
closed = 1;
nodes = (
"197 0 LINE",
"240 205 LINE",
"309 205 LINE",
"367 0 LINE",
"579 0 LINE",
"512 235 LINE",
"598 273 OFFCURVE",
"660 347 OFFCURVE",
"683 452 CURVE SMOOTH",
"716 609 OFFCURVE",
"618 699 OFFCURVE",
"463 699 CURVE SMOOTH",
"138 699 LINE",
"-10 0 LINE"
);
},
{
closed = 1;
nodes = (
"414 -172 LINE",
"439 -54 LINE",
"84 -54 LINE",
"59 -172 LINE"
);
},
{
closed = 1;
nodes = (
"310 535 LINE",
"387 535 LINE SMOOTH",
"459 535 OFFCURVE",
"485 518 OFFCURVE",
"471 452 CURVE SMOOTH",
"457 387 OFFCURVE",
"420 369 OFFCURVE",
"352 369 CURVE SMOOTH",
"275 369 LINE"
);
}
);
width = 657;
}
);
note = Rlinebelow;
rightKerningGroup = R;
unicode = 1E5E;
},
{
glyphname = S;
lastChange = "2015-12-01 01:43:11 +0000";
layers = (
{
layerId = "3EB4D4D8-7151-4DFB-AE23-ECE37F7A1310";
name = "Bold Italic";
paths = (
{
closed = 1;
nodes = (
"424 -15 OFFCURVE",
"518 68 OFFCURVE",
"545 196 CURVE SMOOTH",
"569 308 OFFCURVE",
"535 357 OFFCURVE",
"409 414 CURVE SMOOTH",
"336 447 OFFCURVE",
"294 461 OFFCURVE",
"302 496 CURVE SMOOTH",
"309 527 OFFCURVE",
"349 541 OFFCURVE",
"399 541 CURVE SMOOTH",
"456 541 OFFCURVE",
"514 526 OFFCURVE",
"567 493 CURVE",
"605 670 LINE",
"548 700 OFFCURVE",
"487 714 OFFCURVE",
"398 714 CURVE SMOOTH",
"221 714 OFFCURVE",
"106 627 OFFCURVE",
"79 501 CURVE SMOOTH",
"58 402 OFFCURVE",
"101 340 OFFCURVE",
"217 285 CURVE SMOOTH",
"295 248 OFFCURVE",
"325 233 OFFCURVE",
"318 198 CURVE SMOOTH",
"312 171 OFFCURVE",
"285 157 OFFCURVE",
"232 157 CURVE SMOOTH",
"164 157 OFFCURVE",
"83 176 OFFCURVE",
"16 217 CURVE",
"-23 34 LINE",
"27 4 OFFCURVE",
"122 -15 OFFCURVE",
"211 -15 CURVE SMOOTH"
);
}
);
width = 574;
}
);
leftKerningGroup = S;
note = S;
rightKerningGroup = S;
unicode = 0053;
},
{
glyphname = Sacute;
lastChange = "2015-12-01 01:43:11 +0000";
layers = (
{
layerId = "3EB4D4D8-7151-4DFB-AE23-ECE37F7A1310";
name = "Bold Italic";
paths = (
{
closed = 1;
nodes = (
"424 -15 OFFCURVE",
"518 68 OFFCURVE",
"545 196 CURVE SMOOTH",
"569 308 OFFCURVE",
"535 357 OFFCURVE",
"409 414 CURVE SMOOTH",
"336 447 OFFCURVE",
"294 461 OFFCURVE",
"302 496 CURVE SMOOTH",
"309 527 OFFCURVE",
"349 541 OFFCURVE",
"399 541 CURVE SMOOTH",
"456 541 OFFCURVE",
"514 526 OFFCURVE",
"567 493 CURVE",
"605 670 LINE",
"548 700 OFFCURVE",
"487 714 OFFCURVE",
"398 714 CURVE SMOOTH",
"221 714 OFFCURVE",
"106 627 OFFCURVE",
"79 501 CURVE SMOOTH",
"58 402 OFFCURVE",
"101 340 OFFCURVE",
"217 285 CURVE SMOOTH",
"295 248 OFFCURVE",
"325 233 OFFCURVE",
"318 198 CURVE SMOOTH",
"312 171 OFFCURVE",
"285 157 OFFCURVE",
"232 157 CURVE SMOOTH",
"164 157 OFFCURVE",
"83 176 OFFCURVE",
"16 217 CURVE",
"-23 34 LINE",
"27 4 OFFCURVE",
"122 -15 OFFCURVE",
"211 -15 CURVE SMOOTH"
);
},
{
closed = 1;
nodes = (
"458 737 LINE",
"589 917 LINE",
"388 917 LINE",
"281 737 LINE"
);
}
);
width = 574;
}
);
leftKerningGroup = S;
note = Sacute;
rightKerningGroup = S;
unicode = 015A;
},
{
glyphname = Scaron;
lastChange = "2015-12-01 01:43:09 +0000";
layers = (
{
layerId = "3EB4D4D8-7151-4DFB-AE23-ECE37F7A1310";
name = "Bold Italic";
paths = (
{
closed = 1;
nodes = (
"424 -15 OFFCURVE",
"518 68 OFFCURVE",
"545 196 CURVE SMOOTH",
"569 308 OFFCURVE",
"535 357 OFFCURVE",
"409 414 CURVE SMOOTH",
"336 447 OFFCURVE",
"294 461 OFFCURVE",
"302 496 CURVE SMOOTH",
"309 527 OFFCURVE",
"349 541 OFFCURVE",
"399 541 CURVE SMOOTH",
"456 541 OFFCURVE",
"514 526 OFFCURVE",
"567 493 CURVE",
"605 670 LINE",
"548 700 OFFCURVE",
"487 714 OFFCURVE",
"398 714 CURVE SMOOTH",
"221 714 OFFCURVE",
"106 627 OFFCURVE",
"79 501 CURVE SMOOTH",
"58 402 OFFCURVE",
"101 340 OFFCURVE",
"217 285 CURVE SMOOTH",
"295 248 OFFCURVE",
"325 233 OFFCURVE",
"318 198 CURVE SMOOTH",
"312 171 OFFCURVE",
"285 157 OFFCURVE",
"232 157 CURVE SMOOTH",
"164 157 OFFCURVE",
"83 176 OFFCURVE",
"16 217 CURVE",
"-23 34 LINE",
"27 4 OFFCURVE",
"122 -15 OFFCURVE",
"211 -15 CURVE SMOOTH"
);
},
{
closed = 1;
nodes = (
"457 748 LINE",
"642 920 LINE",
"465 920 LINE",
"392 849 LINE",
"349 920 LINE",
"182 920 LINE",
"292 748 LINE"
);
}
);
width = 574;
}
);
leftKerningGroup = S;
note = Scaron;
rightKerningGroup = S;
unicode = 0160;
},
{
glyphname = Scedilla;
lastChange = "2015-12-01 01:43:11 +0000";
layers = (
{
layerId = "3EB4D4D8-7151-4DFB-AE23-ECE37F7A1310";
name = "Bold Italic";
paths = (
{
closed = 1;
nodes = (
"424 -15 OFFCURVE",
"518 68 OFFCURVE",
"545 196 CURVE SMOOTH",
"569 308 OFFCURVE",
"535 357 OFFCURVE",
"409 414 CURVE SMOOTH",
"336 447 OFFCURVE",
"294 461 OFFCURVE",
"302 496 CURVE SMOOTH",
"309 527 OFFCURVE",
"349 541 OFFCURVE",
"399 541 CURVE SMOOTH",
"456 541 OFFCURVE",
"514 526 OFFCURVE",
"567 493 CURVE",
"605 670 LINE",
"548 700 OFFCURVE",
"487 714 OFFCURVE",
"398 714 CURVE SMOOTH",
"221 714 OFFCURVE",
"106 627 OFFCURVE",
"79 501 CURVE SMOOTH",
"58 402 OFFCURVE",
"101 340 OFFCURVE",
"217 285 CURVE SMOOTH",
"295 248 OFFCURVE",
"325 233 OFFCURVE",
"318 198 CURVE SMOOTH",
"312 171 OFFCURVE",
"285 157 OFFCURVE",
"232 157 CURVE SMOOTH",
"164 157 OFFCURVE",
"83 176 OFFCURVE",
"16 217 CURVE",
"-23 34 LINE",
"27 4 OFFCURVE",
"122 -15 OFFCURVE",
"211 -15 CURVE SMOOTH"
);
},
{
closed = 1;
nodes = (
"256 -248 OFFCURVE",
"317 -203 OFFCURVE",
"331 -139 CURVE SMOOTH",
"341 -90 OFFCURVE",
"316 -54 OFFCURVE",
"258 -46 CURVE",
"286 0 LINE",
"155 0 LINE",
"104 -87 LINE",
"180 -87 OFFCURVE",
"203 -100 OFFCURVE",
"197 -131 CURVE",
"190 -160 OFFCURVE",
"165 -168 OFFCURVE",
"125 -168 CURVE SMOOTH",
"102 -168 OFFCURVE",
"76 -162 OFFCURVE",
"62 -153 CURVE",
"45 -233 LINE",
"66 -242 OFFCURVE",
"98 -248 OFFCURVE",
"151 -248 CURVE SMOOTH"
);
}
);
width = 574;
}
);
leftKerningGroup = S;
note = Scedilla;
rightKerningGroup = S;
unicode = 015E;
},
{
glyphname = Scircumflex;
lastChange = "2015-12-01 01:43:09 +0000";
layers = (
{
layerId = "3EB4D4D8-7151-4DFB-AE23-ECE37F7A1310";
name = "Bold Italic";
paths = (
{
closed = 1;
nodes = (
"424 -15 OFFCURVE",
"518 68 OFFCURVE",
"545 196 CURVE SMOOTH",
"569 308 OFFCURVE",
"535 357 OFFCURVE",
"409 414 CURVE SMOOTH",
"336 447 OFFCURVE",
"294 461 OFFCURVE",
"302 496 CURVE SMOOTH",
"309 527 OFFCURVE",
"349 541 OFFCURVE",
"399 541 CURVE SMOOTH",
"456 541 OFFCURVE",
"514 526 OFFCURVE",
"567 493 CURVE",
"605 670 LINE",
"548 700 OFFCURVE",
"487 714 OFFCURVE",
"398 714 CURVE SMOOTH",
"221 714 OFFCURVE",
"106 627 OFFCURVE",
"79 501 CURVE SMOOTH",
"58 402 OFFCURVE",
"101 340 OFFCURVE",
"217 285 CURVE SMOOTH",
"295 248 OFFCURVE",
"325 233 OFFCURVE",
"318 198 CURVE SMOOTH",
"312 171 OFFCURVE",
"285 157 OFFCURVE",
"232 157 CURVE SMOOTH",
"164 157 OFFCURVE",
"83 176 OFFCURVE",
"16 217 CURVE",
"-23 34 LINE",
"27 4 OFFCURVE",
"122 -15 OFFCURVE",
"211 -15 CURVE SMOOTH"
);
},
{
closed = 1;
nodes = (
"323 748 LINE",
"396 819 LINE",
"439 748 LINE",
"606 748 LINE",
"495 920 LINE",
"330 920 LINE",
"146 748 LINE"
);
}
);
width = 574;
}
);
leftKerningGroup = S;
note = Scircumflex;
rightKerningGroup = S;
unicode = 015C;
},
{
glyphname = Scommaaccent;
lastChange = "2015-12-01 01:43:12 +0000";
layers = (
{
layerId = "3EB4D4D8-7151-4DFB-AE23-ECE37F7A1310";
name = "Bold Italic";
paths = (
{
closed = 1;
nodes = (
"424 -15 OFFCURVE",
"518 68 OFFCURVE",
"545 196 CURVE SMOOTH",
"569 308 OFFCURVE",
"535 357 OFFCURVE",
"409 414 CURVE SMOOTH",
"336 447 OFFCURVE",
"294 461 OFFCURVE",
"302 496 CURVE SMOOTH",
"309 527 OFFCURVE",
"349 541 OFFCURVE",
"399 541 CURVE SMOOTH",
"456 541 OFFCURVE",
"514 526 OFFCURVE",
"567 493 CURVE",
"605 670 LINE",
"548 700 OFFCURVE",
"487 714 OFFCURVE",
"398 714 CURVE SMOOTH",
"221 714 OFFCURVE",
"106 627 OFFCURVE",
"79 501 CURVE SMOOTH",
"58 402 OFFCURVE",
"101 340 OFFCURVE",
"217 285 CURVE SMOOTH",
"295 248 OFFCURVE",
"325 233 OFFCURVE",
"318 198 CURVE SMOOTH",
"312 171 OFFCURVE",
"285 157 OFFCURVE",
"232 157 CURVE SMOOTH",
"164 157 OFFCURVE",
"83 176 OFFCURVE",
"16 217 CURVE",
"-23 34 LINE",
"27 4 OFFCURVE",
"122 -15 OFFCURVE",
"211 -15 CURVE SMOOTH"
);
},
{
closed = 1;
nodes = (
"187 -259 LINE",
"339 -45 LINE",
"134 -45 LINE",
"4 -259 LINE"
);
}
);
width = 574;
}
);
leftKerningGroup = S;
note = Scommaaccent;
rightKerningGroup = S;
unicode = 0218;
},
{
glyphname = Sdotaccent;
lastChange = "2015-12-01 01:43:11 +0000";
layers = (
{
layerId = "3EB4D4D8-7151-4DFB-AE23-ECE37F7A1310";
name = "Bold Italic";
paths = (
{
closed = 1;
nodes = (
"424 -15 OFFCURVE",
"518 68 OFFCURVE",
"545 196 CURVE SMOOTH",
"569 308 OFFCURVE",
"535 357 OFFCURVE",
"409 414 CURVE SMOOTH",
"336 447 OFFCURVE",
"294 461 OFFCURVE",
"302 496 CURVE SMOOTH",
"309 527 OFFCURVE",
"349 541 OFFCURVE",
"399 541 CURVE SMOOTH",
"456 541 OFFCURVE",
"514 526 OFFCURVE",
"567 493 CURVE",
"605 670 LINE",
"548 700 OFFCURVE",
"487 714 OFFCURVE",
"398 714 CURVE SMOOTH",
"221 714 OFFCURVE",
"106 627 OFFCURVE",
"79 501 CURVE SMOOTH",
"58 402 OFFCURVE",
"101 340 OFFCURVE",
"217 285 CURVE SMOOTH",
"295 248 OFFCURVE",
"325 233 OFFCURVE",
"318 198 CURVE SMOOTH",
"312 171 OFFCURVE",
"285 157 OFFCURVE",
"232 157 CURVE SMOOTH",
"164 157 OFFCURVE",
"83 176 OFFCURVE",
"16 217 CURVE",
"-23 34 LINE",
"27 4 OFFCURVE",
"122 -15 OFFCURVE",
"211 -15 CURVE SMOOTH"
);
},
{
closed = 1;
nodes = (
"426 742 OFFCURVE",
"469 777 OFFCURVE",
"479 823 CURVE SMOOTH",
"489 869 OFFCURVE",
"461 906 OFFCURVE",
"416 906 CURVE SMOOTH",
"371 906 OFFCURVE",
"325 869 OFFCURVE",
"315 823 CURVE SMOOTH",
"305 777 OFFCURVE",
"336 742 OFFCURVE",
"381 742 CURVE SMOOTH"
);
}
);
width = 574;
}
);
leftKerningGroup = S;
note = Sdotaccent;
rightKerningGroup = S;
unicode = 1E60;
},
{
glyphname = Sdotbelow;
lastChange = "2015-12-01 01:43:11 +0000";
layers = (
{
layerId = "3EB4D4D8-7151-4DFB-AE23-ECE37F7A1310";
name = "Bold Italic";
paths = (
{
closed = 1;
nodes = (
"424 -15 OFFCURVE",
"518 68 OFFCURVE",
"545 196 CURVE SMOOTH",
"569 308 OFFCURVE",
"535 357 OFFCURVE",
"409 414 CURVE SMOOTH",
"336 447 OFFCURVE",
"294 461 OFFCURVE",
"302 496 CURVE SMOOTH",
"309 527 OFFCURVE",
"349 541 OFFCURVE",
"399 541 CURVE SMOOTH",
"456 541 OFFCURVE",
"514 526 OFFCURVE",
"567 493 CURVE",
"605 670 LINE",
"548 700 OFFCURVE",
"487 714 OFFCURVE",
"398 714 CURVE SMOOTH",
"221 714 OFFCURVE",
"106 627 OFFCURVE",
"79 501 CURVE SMOOTH",
"58 402 OFFCURVE",
"101 340 OFFCURVE",
"217 285 CURVE SMOOTH",
"295 248 OFFCURVE",
"325 233 OFFCURVE",
"318 198 CURVE SMOOTH",
"312 171 OFFCURVE",
"285 157 OFFCURVE",
"232 157 CURVE SMOOTH",
"164 157 OFFCURVE",
"83 176 OFFCURVE",
"16 217 CURVE",
"-23 34 LINE",
"27 4 OFFCURVE",
"122 -15 OFFCURVE",
"211 -15 CURVE SMOOTH"
);
},
{
closed = 1;
nodes = (
"234 -210 OFFCURVE",
"278 -174 OFFCURVE",
"287 -128 CURVE SMOOTH",
"297 -82 OFFCURVE",
"269 -46 OFFCURVE",
"225 -46 CURVE SMOOTH",
"180 -46 OFFCURVE",
"134 -82 OFFCURVE",
"124 -128 CURVE SMOOTH",
"115 -174 OFFCURVE",
"145 -210 OFFCURVE",
"190 -210 CURVE SMOOTH"
);
}
);
width = 574;
}
);
leftKerningGroup = S;
note = Sdotbelow;
rightKerningGroup = S;
unicode = 1E62;
},
{
glyphname = Germandbls;
lastChange = "2015-12-01 01:43:11 +0000";
layers = (
{
layerId = "3EB4D4D8-7151-4DFB-AE23-ECE37F7A1310";
name = "Bold Italic";
paths = (
{
closed = 1;
nodes = (
"502 -15 OFFCURVE",
"606 62 OFFCURVE",
"634 195 CURVE SMOOTH",
"654 288 OFFCURVE",
"625 352 OFFCURVE",
"538 381 CURVE",
"656 489 LINE",
"668 602 OFFCURVE",
"611 714 OFFCURVE",
"417 714 CURVE SMOOTH",
"232 714 OFFCURVE",
"115 616 OFFCURVE",
"81 452 CURVE SMOOTH",
"-15 0 LINE",
"191 0 LINE",
"292 477 LINE SMOOTH",
"303 528 OFFCURVE",
"332 561 OFFCURVE",
"387 561 CURVE SMOOTH",
"432 561 OFFCURVE",
"446 532 OFFCURVE",
"441 497 CURVE",
"318 384 LINE",
"297 286 LINE",
"353 286 LINE SMOOTH",
"415 286 OFFCURVE",
"439 264 OFFCURVE",
"428 215 CURVE SMOOTH",
"418 167 OFFCURVE",
"383 146 OFFCURVE",
"331 146 CURVE SMOOTH",
"305 146 OFFCURVE",
"279 152 OFFCURVE",
"263 165 CURVE",
"228 3 LINE",
"255 -10 OFFCURVE",
"305 -15 OFFCURVE",
"348 -15 CURVE SMOOTH"
);
}
);
width = 663;
}
);
note = uni1E9E;
unicode = 1E9E;
},
{
glyphname = Schwa;
lastChange = "2015-12-01 01:43:09 +0000";
layers = (
{
layerId = "3EB4D4D8-7151-4DFB-AE23-ECE37F7A1310";
name = "Bold Italic";
paths = (
{
closed = 1;
nodes = (
"629 -15 OFFCURVE",
"780 130 OFFCURVE",
"827 352 CURVE SMOOTH",
"876 583 OFFCURVE",
"724 714 OFFCURVE",
"473 714 CURVE SMOOTH",
"357 714 OFFCURVE",
"246 693 OFFCURVE",
"169 664 CURVE",
"134 500 LINE",
"210 527 OFFCURVE",
"312 542 OFFCURVE",
"398 542 CURVE SMOOTH",
"557 542 OFFCURVE",
"592 510 OFFCURVE",
"591 426 CURVE",
"60 426 LINE",
"42 341 LINE SMOOTH",
"2 153 OFFCURVE",
"111 -15 OFFCURVE",
"353 -15 CURVE SMOOTH"
);
},
{
closed = 1;
nodes = (
"277 154 OFFCURVE",
"254 212 OFFCURVE",
"259 278 CURVE",
"560 278 LINE",
"536 204 OFFCURVE",
"476 154 OFFCURVE",
"384 154 CURVE SMOOTH"
);
}
);
width = 823;
}
);
note = uni018F;
unicode = 018F;
},
{
glyphname = T;
lastChange = "2015-12-01 01:43:11 +0000";
layers = (
{
layerId = "3EB4D4D8-7151-4DFB-AE23-ECE37F7A1310";
name = "Bold Italic";
paths = (
{
closed = 1;
nodes = (
"350 0 LINE",
"461 525 LINE",
"649 525 LINE",
"686 699 LINE",
"103 699 LINE",
"66 525 LINE",
"254 525 LINE",
"143 0 LINE"
);
}
);
width = 593;
}
);
leftKerningGroup = T;
note = T;
rightKerningGroup = T;
unicode = 0054;
},
{
glyphname = Tbar;
lastChange = "2015-12-01 01:43:12 +0000";
layers = (
{
layerId = "3EB4D4D8-7151-4DFB-AE23-ECE37F7A1310";
name = "Bold Italic";
paths = (
{
closed = 1;
nodes = (
"352 0 LINE",
"402 240 LINE",
"505 240 LINE",
"540 409 LINE",
"438 409 LINE",
"462 521 LINE",
"648 521 LINE",
"686 699 LINE",
"103 699 LINE",
"65 521 LINE",
"251 521 LINE",
"227 409 LINE",
"128 409 LINE",
"93 240 LINE",
"191 240 LINE",
"141 0 LINE"
);
}
);
width = 593;
}
);
leftKerningGroup = T;
note = Tbar;
rightKerningGroup = T;
unicode = 0166;
},
{
glyphname = Tcaron;
lastChange = "2015-12-01 01:43:13 +0000";
layers = (
{
layerId = "3EB4D4D8-7151-4DFB-AE23-ECE37F7A1310";
name = "Bold Italic";
paths = (
{
closed = 1;
nodes = (
"350 0 LINE",
"461 525 LINE",
"649 525 LINE",
"686 699 LINE",
"103 699 LINE",
"66 525 LINE",
"254 525 LINE",
"143 0 LINE"
);
},
{
closed = 1;
nodes = (
"471 748 LINE",
"656 920 LINE",
"479 920 LINE",
"406 849 LINE",
"363 920 LINE",
"196 920 LINE",
"306 748 LINE"
);
}
);
width = 593;
}
);
leftKerningGroup = T;
note = Tcaron;
rightKerningGroup = T;
unicode = 0164;
},
{
glyphname = Tcedilla;
lastChange = "2015-12-01 01:43:09 +0000";
layers = (
{
layerId = "3EB4D4D8-7151-4DFB-AE23-ECE37F7A1310";
name = "Bold Italic";
paths = (
{
closed = 1;
nodes = (
"350 0 LINE",
"461 525 LINE",
"649 525 LINE",
"686 699 LINE",
"103 699 LINE",
"66 525 LINE",
"254 525 LINE",
"143 0 LINE"
);
},
{
closed = 1;
nodes = (
"283 -248 OFFCURVE",
"344 -203 OFFCURVE",
"358 -139 CURVE SMOOTH",
"368 -90 OFFCURVE",
"343 -54 OFFCURVE",
"285 -46 CURVE",
"313 0 LINE",
"182 0 LINE",
"131 -87 LINE",
"207 -87 OFFCURVE",
"230 -100 OFFCURVE",
"224 -131 CURVE",
"217 -160 OFFCURVE",
"192 -168 OFFCURVE",
"152 -168 CURVE SMOOTH",
"129 -168 OFFCURVE",
"103 -162 OFFCURVE",
"89 -153 CURVE",
"72 -233 LINE",
"93 -242 OFFCURVE",
"125 -248 OFFCURVE",
"178 -248 CURVE SMOOTH"
);
}
);
width = 593;
}
);
leftKerningGroup = T;
note = Tcedilla;
rightKerningGroup = T;
unicode = 0162;
},
{
glyphname = Tcommaaccent;
lastChange = "2015-12-01 01:43:09 +0000";
layers = (
{
layerId = "3EB4D4D8-7151-4DFB-AE23-ECE37F7A1310";
name = "Bold Italic";
paths = (
{
closed = 1;
nodes = (
"350 0 LINE",
"461 525 LINE",
"649 525 LINE",
"686 699 LINE",
"103 699 LINE",
"66 525 LINE",
"254 525 LINE",
"143 0 LINE"
);
},
{
closed = 1;
nodes = (
"179 -260 LINE",
"333 -45 LINE",
"136 -45 LINE",
"8 -260 LINE"
);
}
);
width = 593;
}
);
leftKerningGroup = T;
note = Tcommaaccent;
rightKerningGroup = T;
unicode = 021A;
},
{
glyphname = Tdotbelow;
lastChange = "2015-12-01 01:43:11 +0000";
layers = (
{
layerId = "3EB4D4D8-7151-4DFB-AE23-ECE37F7A1310";
name = "Bold Italic";
paths = (
{
closed = 1;
nodes = (
"350 0 LINE",
"461 525 LINE",
"649 525 LINE",
"686 699 LINE",
"103 699 LINE",
"66 525 LINE",
"254 525 LINE",
"143 0 LINE"
);
},
{
closed = 1;
nodes = (
"252 -210 OFFCURVE",
"296 -174 OFFCURVE",
"305 -128 CURVE SMOOTH",
"315 -82 OFFCURVE",
"287 -46 OFFCURVE",
"243 -46 CURVE SMOOTH",
"198 -46 OFFCURVE",
"152 -82 OFFCURVE",
"142 -128 CURVE SMOOTH",
"133 -174 OFFCURVE",
"163 -210 OFFCURVE",
"208 -210 CURVE SMOOTH"
);
}
);
width = 593;
}
);
leftKerningGroup = T;
note = Tdotbelow;
rightKerningGroup = T;
unicode = 1E6C;
},
{
glyphname = Tlinebelow;
lastChange = "2015-12-01 01:43:09 +0000";
layers = (
{
layerId = "3EB4D4D8-7151-4DFB-AE23-ECE37F7A1310";
name = "Bold Italic";
paths = (
{
closed = 1;
nodes = (
"350 0 LINE",
"461 525 LINE",
"649 525 LINE",
"686 699 LINE",
"103 699 LINE",
"66 525 LINE",
"254 525 LINE",
"143 0 LINE"
);
},
{
closed = 1;
nodes = (
"378 -172 LINE",
"403 -54 LINE",
"48 -54 LINE",
"23 -172 LINE"
);
}
);
width = 593;
}
);
leftKerningGroup = T;
note = Tlinebelow;
rightKerningGroup = T;
unicode = 1E6E;
},
{
glyphname = U;
lastChange = "2015-12-01 01:43:12 +0000";
layers = (
{
layerId = "3EB4D4D8-7151-4DFB-AE23-ECE37F7A1310";
name = "Bold Italic";
paths = (
{
closed = 1;
nodes = (
"557 -15 OFFCURVE",
"662 113 OFFCURVE",
"703 304 CURVE SMOOTH",
"787 699 LINE",
"580 699 LINE",
"497 306 LINE SMOOTH",
"478 220 OFFCURVE",
"447 176 OFFCURVE",
"344 176 CURVE SMOOTH",
"262 176 OFFCURVE",
"237 209 OFFCURVE",
"257 306 CURVE SMOOTH",
"340 699 LINE",
"133 699 LINE",
"49 304 LINE SMOOTH",
"8 110 OFFCURVE",
"113 -15 OFFCURVE",
"308 -15 CURVE SMOOTH"
);
}
);
width = 724;
}
);
leftKerningGroup = U;
note = U;
rightKerningGroup = U;
unicode = 0055;
},
{
glyphname = Uacute;
lastChange = "2015-12-01 01:43:09 +0000";
layers = (
{
layerId = "3EB4D4D8-7151-4DFB-AE23-ECE37F7A1310";
name = "Bold Italic";
paths = (
{
closed = 1;
nodes = (
"557 -15 OFFCURVE",
"662 113 OFFCURVE",
"703 304 CURVE SMOOTH",
"787 699 LINE",
"580 699 LINE",
"497 306 LINE SMOOTH",
"478 220 OFFCURVE",
"447 176 OFFCURVE",
"344 176 CURVE SMOOTH",
"262 176 OFFCURVE",
"237 209 OFFCURVE",
"257 306 CURVE SMOOTH",
"340 699 LINE",
"133 699 LINE",
"49 304 LINE SMOOTH",
"8 110 OFFCURVE",
"113 -15 OFFCURVE",
"308 -15 CURVE SMOOTH"
);
},
{
closed = 1;
nodes = (
"540 737 LINE",
"671 917 LINE",
"470 917 LINE",
"363 737 LINE"
);
}
);
width = 724;
}
);
leftKerningGroup = U;
note = Uacute;
rightKerningGroup = U;
unicode = 00DA;
},
{
glyphname = Ubreve;
lastChange = "2015-12-01 01:43:10 +0000";
layers = (
{
layerId = "3EB4D4D8-7151-4DFB-AE23-ECE37F7A1310";
name = "Bold Italic";
paths = (
{
closed = 1;
nodes = (
"557 -15 OFFCURVE",
"662 113 OFFCURVE",
"703 304 CURVE SMOOTH",
"787 699 LINE",
"580 699 LINE",
"497 306 LINE SMOOTH",
"478 220 OFFCURVE",
"447 176 OFFCURVE",
"344 176 CURVE SMOOTH",
"262 176 OFFCURVE",
"237 209 OFFCURVE",
"257 306 CURVE SMOOTH",
"340 699 LINE",
"133 699 LINE",
"49 304 LINE SMOOTH",
"8 110 OFFCURVE",
"113 -15 OFFCURVE",
"308 -15 CURVE SMOOTH"
);
},
{
closed = 1;
nodes = (
"579 741 OFFCURVE",
"663 812 OFFCURVE",
"687 925 CURVE",
"533 925 LINE",
"525 885 OFFCURVE",
"505 865 OFFCURVE",
"476 865 CURVE SMOOTH",
"446 865 OFFCURVE",
"435 885 OFFCURVE",
"443 925 CURVE",
"300 925 LINE",
"276 812 OFFCURVE",
"330 741 OFFCURVE",
"454 741 CURVE SMOOTH"
);
}
);
width = 724;
}
);
leftKerningGroup = U;
note = Ubreve;
rightKerningGroup = U;
unicode = 016C;
},
{
glyphname = Ucaron;
lastChange = "2015-12-01 01:43:11 +0000";
layers = (
{
layerId = "3EB4D4D8-7151-4DFB-AE23-ECE37F7A1310";
name = "Bold Italic";
paths = (
{
closed = 1;
nodes = (
"557 -15 OFFCURVE",
"662 113 OFFCURVE",
"703 304 CURVE SMOOTH",
"787 699 LINE",
"580 699 LINE",
"497 306 LINE SMOOTH",
"478 220 OFFCURVE",
"447 176 OFFCURVE",
"344 176 CURVE SMOOTH",
"262 176 OFFCURVE",
"237 209 OFFCURVE",
"257 306 CURVE SMOOTH",
"340 699 LINE",
"133 699 LINE",
"49 304 LINE SMOOTH",
"8 110 OFFCURVE",
"113 -15 OFFCURVE",
"308 -15 CURVE SMOOTH"
);
},
{
closed = 1;
nodes = (
"538 748 LINE",
"723 920 LINE",
"546 920 LINE",
"473 849 LINE",
"430 920 LINE",
"263 920 LINE",
"373 748 LINE"
);
}
);
width = 724;
}
);
leftKerningGroup = U;
note = Ucaron;
rightKerningGroup = U;
unicode = 01D3;
},
{
glyphname = Ucircumflex;
lastChange = "2015-12-01 01:43:10 +0000";
layers = (
{
layerId = "3EB4D4D8-7151-4DFB-AE23-ECE37F7A1310";
name = "Bold Italic";
paths = (
{
closed = 1;
nodes = (
"557 -15 OFFCURVE",
"662 113 OFFCURVE",
"703 304 CURVE SMOOTH",
"787 699 LINE",
"580 699 LINE",
"497 306 LINE SMOOTH",
"478 220 OFFCURVE",
"447 176 OFFCURVE",
"344 176 CURVE SMOOTH",
"262 176 OFFCURVE",
"237 209 OFFCURVE",
"257 306 CURVE SMOOTH",
"340 699 LINE",
"133 699 LINE",
"49 304 LINE SMOOTH",
"8 110 OFFCURVE",
"113 -15 OFFCURVE",
"308 -15 CURVE SMOOTH"
);
},
{
closed = 1;
nodes = (
"398 748 LINE",
"471 819 LINE",
"514 748 LINE",
"681 748 LINE",
"570 920 LINE",
"405 920 LINE",
"221 748 LINE"
);
}
);
width = 724;
}
);
leftKerningGroup = U;
note = Ucircumflex;
rightKerningGroup = U;
unicode = 00DB;
},
{
glyphname = Udieresis;
lastChange = "2015-12-01 01:43:12 +0000";
layers = (
{
layerId = "3EB4D4D8-7151-4DFB-AE23-ECE37F7A1310";
name = "Bold Italic";
paths = (
{
closed = 1;
nodes = (
"557 -15 OFFCURVE",
"662 113 OFFCURVE",
"703 304 CURVE SMOOTH",
"787 699 LINE",
"580 699 LINE",
"497 306 LINE SMOOTH",
"478 220 OFFCURVE",
"447 176 OFFCURVE",
"344 176 CURVE SMOOTH",
"262 176 OFFCURVE",
"237 209 OFFCURVE",
"257 306 CURVE SMOOTH",
"340 699 LINE",
"133 699 LINE",
"49 304 LINE SMOOTH",
"8 110 OFFCURVE",
"113 -15 OFFCURVE",
"308 -15 CURVE SMOOTH"
);
},
{
closed = 1;
nodes = (
"378 749 OFFCURVE",
"422 784 OFFCURVE",
"432 830 CURVE SMOOTH",
"442 876 OFFCURVE",
"413 913 OFFCURVE",
"368 913 CURVE SMOOTH",
"325 913 OFFCURVE",
"278 876 OFFCURVE",
"268 830 CURVE SMOOTH",
"258 784 OFFCURVE",
"290 749 OFFCURVE",
"333 749 CURVE SMOOTH"
);
},
{
closed = 1;
nodes = (
"613 749 OFFCURVE",
"657 784 OFFCURVE",
"667 830 CURVE SMOOTH",
"677 876 OFFCURVE",
"648 913 OFFCURVE",
"604 913 CURVE SMOOTH",
"559 913 OFFCURVE",
"513 876 OFFCURVE",
"503 830 CURVE SMOOTH",
"493 784 OFFCURVE",
"524 749 OFFCURVE",
"569 749 CURVE SMOOTH"
);
}
);
width = 724;
}
);
leftKerningGroup = U;
note = Udieresis;
rightKerningGroup = U;
unicode = 00DC;
},
{
glyphname = Udieresisacute;
lastChange = "2015-12-01 01:43:10 +0000";
layers = (
{
layerId = "3EB4D4D8-7151-4DFB-AE23-ECE37F7A1310";
name = "Bold Italic";
paths = (
{
closed = 1;
nodes = (
"557 -15 OFFCURVE",
"662 113 OFFCURVE",
"703 304 CURVE SMOOTH",
"787 699 LINE",
"580 699 LINE",
"497 306 LINE SMOOTH",
"478 220 OFFCURVE",
"447 176 OFFCURVE",
"344 176 CURVE SMOOTH",
"262 176 OFFCURVE",
"237 209 OFFCURVE",
"257 306 CURVE SMOOTH",
"340 699 LINE",
"133 699 LINE",
"49 304 LINE SMOOTH",
"8 110 OFFCURVE",
"113 -15 OFFCURVE",
"308 -15 CURVE SMOOTH"
);
},
{
closed = 1;
nodes = (
"400 752 OFFCURVE",
"441 784 OFFCURVE",
"450 826 CURVE SMOOTH",
"459 868 OFFCURVE",
"432 902 OFFCURVE",
"391 902 CURVE SMOOTH",
"351 902 OFFCURVE",
"308 868 OFFCURVE",
"299 826 CURVE SMOOTH",
"290 784 OFFCURVE",
"319 752 OFFCURVE",
"359 752 CURVE SMOOTH"
);
},
{
closed = 1;
nodes = (
"634 752 OFFCURVE",
"675 784 OFFCURVE",
"684 826 CURVE SMOOTH",
"693 868 OFFCURVE",
"666 902 OFFCURVE",
"626 902 CURVE SMOOTH",
"585 902 OFFCURVE",
"543 868 OFFCURVE",
"534 826 CURVE SMOOTH",
"525 784 OFFCURVE",
"553 752 OFFCURVE",
"594 752 CURVE SMOOTH"
);
},
{
closed = 1;
nodes = (
"579 908 LINE",
"692 1052 LINE",
"528 1052 LINE",
"440 908 LINE"
);
}
);
width = 724;
}
);
leftKerningGroup = U;
note = Udieresisacute;
rightKerningGroup = U;
unicode = 01D7;
},
{
glyphname = Udieresiscaron;
lastChange = "2015-12-01 01:43:13 +0000";
layers = (
{
layerId = "3EB4D4D8-7151-4DFB-AE23-ECE37F7A1310";
name = "Bold Italic";
paths = (
{
closed = 1;
nodes = (
"557 -15 OFFCURVE",
"662 113 OFFCURVE",
"703 304 CURVE SMOOTH",
"787 699 LINE",
"580 699 LINE",
"497 306 LINE SMOOTH",
"478 220 OFFCURVE",
"447 176 OFFCURVE",
"344 176 CURVE SMOOTH",
"262 176 OFFCURVE",
"237 209 OFFCURVE",
"257 306 CURVE SMOOTH",
"340 699 LINE",
"133 699 LINE",
"49 304 LINE SMOOTH",
"8 110 OFFCURVE",
"113 -15 OFFCURVE",
"308 -15 CURVE SMOOTH"
);
},
{
closed = 1;
nodes = (
"395 749 OFFCURVE",
"437 781 OFFCURVE",
"446 823 CURVE SMOOTH",
"455 865 OFFCURVE",
"427 899 OFFCURVE",
"386 899 CURVE SMOOTH",
"346 899 OFFCURVE",
"305 865 OFFCURVE",
"296 823 CURVE SMOOTH",
"287 781 OFFCURVE",
"314 749 OFFCURVE",
"354 749 CURVE SMOOTH"
);
},
{
closed = 1;
nodes = (
"629 749 OFFCURVE",
"672 781 OFFCURVE",
"681 823 CURVE SMOOTH",
"690 865 OFFCURVE",
"661 899 OFFCURVE",
"621 899 CURVE SMOOTH",
"580 899 OFFCURVE",
"539 865 OFFCURVE",
"530 823 CURVE SMOOTH",
"521 781 OFFCURVE",
"548 749 OFFCURVE",
"589 749 CURVE SMOOTH"
);
},
{
closed = 1;
nodes = (
"554 891 LINE",
"706 1017 LINE",
"569 1017 LINE",
"518 971 LINE",
"488 1017 LINE",
"351 1017 LINE",
"450 891 LINE"
);
}
);
width = 724;
}
);
leftKerningGroup = U;
note = Udieresiscaron;
rightKerningGroup = U;
unicode = 01D9;
},
{
glyphname = Udieresisgrave;
lastChange = "2015-12-01 01:43:12 +0000";
layers = (
{
layerId = "3EB4D4D8-7151-4DFB-AE23-ECE37F7A1310";
name = "Bold Italic";
paths = (
{
closed = 1;
nodes = (
"557 -15 OFFCURVE",
"662 113 OFFCURVE",
"703 304 CURVE SMOOTH",
"787 699 LINE",
"580 699 LINE",
"497 306 LINE SMOOTH",
"478 220 OFFCURVE",
"447 176 OFFCURVE",
"344 176 CURVE SMOOTH",
"262 176 OFFCURVE",
"237 209 OFFCURVE",
"257 306 CURVE SMOOTH",
"340 699 LINE",
"133 699 LINE",
"49 304 LINE SMOOTH",
"8 110 OFFCURVE",
"113 -15 OFFCURVE",
"308 -15 CURVE SMOOTH"
);
},
{
closed = 1;
nodes = (
"398 749 OFFCURVE",
"440 781 OFFCURVE",
"449 823 CURVE SMOOTH",
"458 865 OFFCURVE",
"430 899 OFFCURVE",
"389 899 CURVE SMOOTH",
"349 899 OFFCURVE",
"308 865 OFFCURVE",
"299 823 CURVE SMOOTH",
"290 781 OFFCURVE",
"317 749 OFFCURVE",
"357 749 CURVE SMOOTH"
);
},
{
closed = 1;
nodes = (
"632 749 OFFCURVE",
"675 781 OFFCURVE",
"684 823 CURVE SMOOTH",
"693 865 OFFCURVE",
"664 899 OFFCURVE",
"624 899 CURVE SMOOTH",
"583 899 OFFCURVE",
"542 865 OFFCURVE",
"533 823 CURVE SMOOTH",
"524 781 OFFCURVE",
"551 749 OFFCURVE",
"592 749 CURVE SMOOTH"
);
},
{
closed = 1;
nodes = (
"577 905 LINE",
"550 1049 LINE",
"387 1049 LINE",
"438 905 LINE"
);
}
);
width = 724;
}
);
leftKerningGroup = U;
note = Udieresisgrave;
rightKerningGroup = U;
unicode = 01DB;
},
{
glyphname = Udieresismacron;
lastChange = "2015-12-01 01:43:12 +0000";
layers = (
{
layerId = "3EB4D4D8-7151-4DFB-AE23-ECE37F7A1310";
name = "Bold Italic";
paths = (
{
closed = 1;
nodes = (
"557 -15 OFFCURVE",
"662 113 OFFCURVE",
"703 304 CURVE SMOOTH",
"787 699 LINE",
"580 699 LINE",
"497 306 LINE SMOOTH",
"478 220 OFFCURVE",
"447 176 OFFCURVE",
"344 176 CURVE SMOOTH",
"262 176 OFFCURVE",
"237 209 OFFCURVE",
"257 306 CURVE SMOOTH",
"340 699 LINE",
"133 699 LINE",
"49 304 LINE SMOOTH",
"8 110 OFFCURVE",
"113 -15 OFFCURVE",
"308 -15 CURVE SMOOTH"
);
},
{
closed = 1;
nodes = (
"383 741 OFFCURVE",
"427 776 OFFCURVE",
"437 822 CURVE SMOOTH",
"447 868 OFFCURVE",
"418 905 OFFCURVE",
"373 905 CURVE SMOOTH",
"330 905 OFFCURVE",
"283 868 OFFCURVE",
"273 822 CURVE SMOOTH",
"263 776 OFFCURVE",
"295 741 OFFCURVE",
"338 741 CURVE SMOOTH"
);
},
{
closed = 1;
nodes = (
"618 741 OFFCURVE",
"662 776 OFFCURVE",
"672 822 CURVE SMOOTH",
"682 868 OFFCURVE",
"653 905 OFFCURVE",
"609 905 CURVE SMOOTH",
"564 905 OFFCURVE",
"518 868 OFFCURVE",
"508 822 CURVE SMOOTH",
"498 776 OFFCURVE",
"529 741 OFFCURVE",
"574 741 CURVE SMOOTH"
);
},
{
closed = 1;
nodes = (
"678 954 LINE",
"703 1072 LINE",
"348 1072 LINE",
"323 954 LINE"
);
}
);
width = 724;
}
);
leftKerningGroup = U;
note = Udieresismacron;
rightKerningGroup = U;
unicode = 01D5;
},
{
glyphname = Udotbelow;
lastChange = "2015-12-01 01:43:09 +0000";
layers = (
{
layerId = "3EB4D4D8-7151-4DFB-AE23-ECE37F7A1310";
name = "Bold Italic";
paths = (
{
closed = 1;
nodes = (
"557 -15 OFFCURVE",
"662 113 OFFCURVE",
"703 304 CURVE SMOOTH",
"787 699 LINE",
"580 699 LINE",
"497 306 LINE SMOOTH",
"478 220 OFFCURVE",
"447 176 OFFCURVE",
"344 176 CURVE SMOOTH",
"262 176 OFFCURVE",
"237 209 OFFCURVE",
"257 306 CURVE SMOOTH",
"340 699 LINE",
"133 699 LINE",
"49 304 LINE SMOOTH",
"8 110 OFFCURVE",
"113 -15 OFFCURVE",
"308 -15 CURVE SMOOTH"
);
},
{
closed = 1;
nodes = (
"313 -210 OFFCURVE",
"357 -174 OFFCURVE",
"366 -128 CURVE SMOOTH",
"376 -82 OFFCURVE",
"348 -46 OFFCURVE",
"304 -46 CURVE SMOOTH",
"259 -46 OFFCURVE",
"213 -82 OFFCURVE",
"203 -128 CURVE SMOOTH",
"194 -174 OFFCURVE",
"224 -210 OFFCURVE",
"269 -210 CURVE SMOOTH"
);
}
);
width = 724;
}
);
leftKerningGroup = U;
note = Udotbelow;
rightKerningGroup = U;
unicode = 1EE4;
},
{
glyphname = Ugrave;
lastChange = "2015-12-01 01:43:09 +0000";
layers = (
{
layerId = "3EB4D4D8-7151-4DFB-AE23-ECE37F7A1310";
name = "Bold Italic";
paths = (
{
closed = 1;
nodes = (
"557 -15 OFFCURVE",
"662 113 OFFCURVE",
"703 304 CURVE SMOOTH",
"787 699 LINE",
"580 699 LINE",
"497 306 LINE SMOOTH",
"478 220 OFFCURVE",
"447 176 OFFCURVE",
"344 176 CURVE SMOOTH",
"262 176 OFFCURVE",
"237 209 OFFCURVE",
"257 306 CURVE SMOOTH",
"340 699 LINE",
"133 699 LINE",
"49 304 LINE SMOOTH",
"8 110 OFFCURVE",
"113 -15 OFFCURVE",
"308 -15 CURVE SMOOTH"
);
},
{
closed = 1;
nodes = (
"549 737 LINE",
"518 917 LINE",
"317 917 LINE",
"372 737 LINE"
);
}
);
width = 724;
}
);
leftKerningGroup = U;
note = Ugrave;
rightKerningGroup = U;
unicode = 00D9;
},
{
glyphname = Uhookabove;
lastChange = "2015-12-01 01:43:12 +0000";
layers = (
{
layerId = "3EB4D4D8-7151-4DFB-AE23-ECE37F7A1310";
name = "Bold Italic";
paths = (
{
closed = 1;
nodes = (
"557 -15 OFFCURVE",
"662 113 OFFCURVE",
"703 304 CURVE SMOOTH",
"787 699 LINE",
"580 699 LINE",
"497 306 LINE SMOOTH",
"478 220 OFFCURVE",
"447 176 OFFCURVE",
"344 176 CURVE SMOOTH",
"262 176 OFFCURVE",
"237 209 OFFCURVE",
"257 306 CURVE SMOOTH",
"340 699 LINE",
"133 699 LINE",
"49 304 LINE SMOOTH",
"8 110 OFFCURVE",
"113 -15 OFFCURVE",
"308 -15 CURVE SMOOTH"
);
},
{
closed = 1;
nodes = (
"526 742 LINE",
"532 772 LINE",
"601 783 OFFCURVE",
"639 820 OFFCURVE",
"650 868 CURVE SMOOTH",
"663 933 OFFCURVE",
"618 978 OFFCURVE",
"505 978 CURVE SMOOTH",
"453 978 OFFCURVE",
"404 970 OFFCURVE",
"371 960 CURVE",
"353 876 LINE",
"366 881 OFFCURVE",
"394 886 OFFCURVE",
"417 886 CURVE SMOOTH",
"464 886 OFFCURVE",
"476 871 OFFCURVE",
"472 853 CURVE SMOOTH",
"466 825 OFFCURVE",
"430 814 OFFCURVE",
"375 814 CURVE",
"360 742 LINE"
);
}
);
width = 724;
}
);
leftKerningGroup = U;
note = Uhookabove;
rightKerningGroup = U;
unicode = 1EE6;
},
{
glyphname = Uhorn;
lastChange = "2015-12-01 01:43:12 +0000";
layers = (
{
layerId = "3EB4D4D8-7151-4DFB-AE23-ECE37F7A1310";
name = "Bold Italic";
paths = (
{
closed = 1;
nodes = (
"557 -15 OFFCURVE",
"662 113 OFFCURVE",
"703 304 CURVE SMOOTH",
"746 506 LINE",
"900 511 OFFCURVE",
"979 594 OFFCURVE",
"1001 702 CURVE SMOOTH",
"1010 747 LINE",
"862 747 LINE",
"855 713 LINE SMOOTH",
"844 660 OFFCURVE",
"826 636 OFFCURVE",
"773 632 CURVE",
"787 699 LINE",
"580 699 LINE",
"497 306 LINE SMOOTH",
"479 220 OFFCURVE",
"447 176 OFFCURVE",
"344 176 CURVE SMOOTH",
"262 176 OFFCURVE",
"237 209 OFFCURVE",
"257 306 CURVE SMOOTH",
"340 699 LINE",
"133 699 LINE",
"49 304 LINE SMOOTH",
"8 110 OFFCURVE",
"113 -15 OFFCURVE",
"308 -15 CURVE SMOOTH"
);
}
);
width = 902;
}
);
leftKerningGroup = U;
note = Uhorn;
rightKerningGroup = U;
unicode = 01AF;
},
{
glyphname = Uhornacute;
lastChange = "2015-12-01 01:43:11 +0000";
layers = (
{
layerId = "3EB4D4D8-7151-4DFB-AE23-ECE37F7A1310";
name = "Bold Italic";
paths = (
{
closed = 1;
nodes = (
"557 -15 OFFCURVE",
"662 113 OFFCURVE",
"703 304 CURVE SMOOTH",
"746 506 LINE",
"900 511 OFFCURVE",
"979 594 OFFCURVE",
"1001 702 CURVE SMOOTH",
"1010 747 LINE",
"862 747 LINE",
"855 713 LINE SMOOTH",
"844 660 OFFCURVE",
"826 636 OFFCURVE",
"773 632 CURVE",
"787 699 LINE",
"580 699 LINE",
"497 306 LINE SMOOTH",
"479 220 OFFCURVE",
"447 176 OFFCURVE",
"344 176 CURVE SMOOTH",
"262 176 OFFCURVE",
"237 209 OFFCURVE",
"257 306 CURVE SMOOTH",
"340 699 LINE",
"133 699 LINE",
"49 304 LINE SMOOTH",
"8 110 OFFCURVE",
"113 -15 OFFCURVE",
"308 -15 CURVE SMOOTH"
);
},
{
closed = 1;
nodes = (
"537 737 LINE",
"668 917 LINE",
"467 917 LINE",
"360 737 LINE"
);
}
);
width = 902;
}
);
leftKerningGroup = U;
note = Uhornacute;
rightKerningGroup = U;
unicode = 1EE8;
},
{
glyphname = Uhorndotbelow;
lastChange = "2015-12-01 01:43:11 +0000";
layers = (
{
layerId = "3EB4D4D8-7151-4DFB-AE23-ECE37F7A1310";
name = "Bold Italic";
paths = (
{
closed = 1;
nodes = (
"557 -15 OFFCURVE",
"662 113 OFFCURVE",
"703 304 CURVE SMOOTH",
"746 506 LINE",
"900 511 OFFCURVE",
"979 594 OFFCURVE",
"1001 702 CURVE SMOOTH",
"1010 747 LINE",
"862 747 LINE",
"855 713 LINE SMOOTH",
"844 660 OFFCURVE",
"826 636 OFFCURVE",
"773 632 CURVE",
"787 699 LINE",
"580 699 LINE",
"497 306 LINE SMOOTH",
"479 220 OFFCURVE",
"447 176 OFFCURVE",
"344 176 CURVE SMOOTH",
"262 176 OFFCURVE",
"237 209 OFFCURVE",
"257 306 CURVE SMOOTH",
"340 699 LINE",
"133 699 LINE",
"49 304 LINE SMOOTH",
"8 110 OFFCURVE",
"113 -15 OFFCURVE",
"308 -15 CURVE SMOOTH"
);
},
{
closed = 1;
nodes = (
"320 -210 OFFCURVE",
"364 -174 OFFCURVE",
"373 -128 CURVE SMOOTH",
"383 -82 OFFCURVE",
"355 -46 OFFCURVE",
"311 -46 CURVE SMOOTH",
"266 -46 OFFCURVE",
"220 -82 OFFCURVE",
"210 -128 CURVE SMOOTH",
"201 -174 OFFCURVE",
"231 -210 OFFCURVE",
"276 -210 CURVE SMOOTH"
);
}
);
width = 902;
}
);
leftKerningGroup = U;
note = Uhorndotbelow;
rightKerningGroup = U;
unicode = 1EF0;
},
{
glyphname = Uhorngrave;
lastChange = "2015-12-01 01:43:10 +0000";
layers = (
{
layerId = "3EB4D4D8-7151-4DFB-AE23-ECE37F7A1310";
name = "Bold Italic";
paths = (
{
closed = 1;
nodes = (
"557 -15 OFFCURVE",
"662 113 OFFCURVE",
"703 304 CURVE SMOOTH",
"746 506 LINE",
"900 511 OFFCURVE",
"979 594 OFFCURVE",
"1001 702 CURVE SMOOTH",
"1010 747 LINE",
"862 747 LINE",
"855 713 LINE SMOOTH",
"844 660 OFFCURVE",
"826 636 OFFCURVE",
"773 632 CURVE",
"787 699 LINE",
"580 699 LINE",
"497 306 LINE SMOOTH",
"479 220 OFFCURVE",
"447 176 OFFCURVE",
"344 176 CURVE SMOOTH",
"262 176 OFFCURVE",
"237 209 OFFCURVE",
"257 306 CURVE SMOOTH",
"340 699 LINE",
"133 699 LINE",
"49 304 LINE SMOOTH",
"8 110 OFFCURVE",
"113 -15 OFFCURVE",
"308 -15 CURVE SMOOTH"
);
},
{
closed = 1;
nodes = (
"546 737 LINE",
"515 917 LINE",
"314 917 LINE",
"369 737 LINE"
);
}
);
width = 902;
}
);
leftKerningGroup = U;
note = Uhorngrave;
rightKerningGroup = U;
unicode = 1EEA;
},
{
glyphname = Uhornhookabove;
lastChange = "2015-12-01 01:43:09 +0000";
layers = (
{
layerId = "3EB4D4D8-7151-4DFB-AE23-ECE37F7A1310";
name = "Bold Italic";
paths = (
{
closed = 1;
nodes = (
"557 -15 OFFCURVE",
"662 113 OFFCURVE",
"703 304 CURVE SMOOTH",
"746 506 LINE",
"900 511 OFFCURVE",
"979 594 OFFCURVE",
"1001 702 CURVE SMOOTH",
"1010 747 LINE",
"862 747 LINE",
"855 713 LINE SMOOTH",
"844 660 OFFCURVE",
"826 636 OFFCURVE",
"773 632 CURVE",
"787 699 LINE",
"580 699 LINE",
"497 306 LINE SMOOTH",
"479 220 OFFCURVE",
"447 176 OFFCURVE",
"344 176 CURVE SMOOTH",
"262 176 OFFCURVE",
"237 209 OFFCURVE",
"257 306 CURVE SMOOTH",
"340 699 LINE",
"133 699 LINE",
"49 304 LINE SMOOTH",
"8 110 OFFCURVE",
"113 -15 OFFCURVE",
"308 -15 CURVE SMOOTH"
);
},
{
closed = 1;
nodes = (
"538 742 LINE",
"544 772 LINE",
"613 783 OFFCURVE",
"651 820 OFFCURVE",
"662 868 CURVE SMOOTH",
"675 933 OFFCURVE",
"630 978 OFFCURVE",
"517 978 CURVE SMOOTH",
"465 978 OFFCURVE",
"416 970 OFFCURVE",
"383 960 CURVE",
"365 876 LINE",
"378 881 OFFCURVE",
"406 886 OFFCURVE",
"429 886 CURVE SMOOTH",
"476 886 OFFCURVE",
"488 871 OFFCURVE",
"484 853 CURVE SMOOTH",
"478 825 OFFCURVE",
"442 814 OFFCURVE",
"387 814 CURVE",
"372 742 LINE"
);
}
);
width = 902;
}
);
leftKerningGroup = U;
note = Uhornhookabove;
rightKerningGroup = U;
unicode = 1EEC;
},
{
glyphname = Uhorntilde;
lastChange = "2015-12-01 01:43:08 +0000";
layers = (
{
layerId = "3EB4D4D8-7151-4DFB-AE23-ECE37F7A1310";
name = "Bold Italic";
paths = (
{
closed = 1;
nodes = (
"557 -15 OFFCURVE",
"662 113 OFFCURVE",
"703 304 CURVE SMOOTH",
"746 506 LINE",
"900 511 OFFCURVE",
"979 594 OFFCURVE",
"1001 702 CURVE SMOOTH",
"1010 747 LINE",
"862 747 LINE",
"855 713 LINE SMOOTH",
"844 660 OFFCURVE",
"826 636 OFFCURVE",
"773 632 CURVE",
"787 699 LINE",
"580 699 LINE",
"497 306 LINE SMOOTH",
"479 220 OFFCURVE",
"447 176 OFFCURVE",
"344 176 CURVE SMOOTH",
"262 176 OFFCURVE",
"237 209 OFFCURVE",
"257 306 CURVE SMOOTH",
"340 699 LINE",
"133 699 LINE",
"49 304 LINE SMOOTH",
"8 110 OFFCURVE",
"113 -15 OFFCURVE",
"308 -15 CURVE SMOOTH"
);
},
{
closed = 1;
nodes = (
"307 778 OFFCURVE",
"345 792 OFFCURVE",
"385 792 CURVE SMOOTH",
"449 792 OFFCURVE",
"503 742 OFFCURVE",
"576 742 CURVE SMOOTH",
"621 742 OFFCURVE",
"660 753 OFFCURVE",
"691 783 CURVE",
"720 923 LINE",
"683 888 OFFCURVE",
"645 874 OFFCURVE",
"604 874 CURVE SMOOTH",
"539 874 OFFCURVE",
"482 924 OFFCURVE",
"414 924 CURVE SMOOTH",
"370 924 OFFCURVE",
"329 912 OFFCURVE",
"298 883 CURVE",
"268 742 LINE"
);
}
);
width = 902;
}
);
leftKerningGroup = U;
note = Uhorntilde;
rightKerningGroup = U;
unicode = 1EEE;
},
{
glyphname = Uhungarumlaut;
lastChange = "2015-12-01 01:43:10 +0000";
layers = (
{
layerId = "3EB4D4D8-7151-4DFB-AE23-ECE37F7A1310";
name = "Bold Italic";
paths = (
{
closed = 1;
nodes = (
"557 -15 OFFCURVE",
"662 113 OFFCURVE",
"703 304 CURVE SMOOTH",
"787 699 LINE",
"580 699 LINE",
"497 306 LINE SMOOTH",
"478 220 OFFCURVE",
"447 176 OFFCURVE",
"344 176 CURVE SMOOTH",
"262 176 OFFCURVE",
"237 209 OFFCURVE",
"257 306 CURVE SMOOTH",
"340 699 LINE",
"133 699 LINE",
"49 304 LINE SMOOTH",
"8 110 OFFCURVE",
"113 -15 OFFCURVE",
"308 -15 CURVE SMOOTH"
);
},
{
closed = 1;
nodes = (
"404 741 LINE",
"535 920 LINE",
"342 920 LINE",
"236 741 LINE"
);
},
{
closed = 1;
nodes = (
"670 741 LINE",
"800 920 LINE",
"607 920 LINE",
"501 741 LINE"
);
}
);
width = 724;
}
);
leftKerningGroup = U;
note = Uhungarumlaut;
rightKerningGroup = U;
unicode = 0170;
},
{
glyphname = Umacron;
lastChange = "2015-12-01 01:43:11 +0000";
layers = (
{
layerId = "3EB4D4D8-7151-4DFB-AE23-ECE37F7A1310";
name = "Bold Italic";
paths = (
{
closed = 1;
nodes = (
"557 -15 OFFCURVE",
"662 113 OFFCURVE",
"703 304 CURVE SMOOTH",
"787 699 LINE",
"580 699 LINE",
"497 306 LINE SMOOTH",
"478 220 OFFCURVE",
"447 176 OFFCURVE",
"344 176 CURVE SMOOTH",
"262 176 OFFCURVE",
"237 209 OFFCURVE",
"257 306 CURVE SMOOTH",
"340 699 LINE",
"133 699 LINE",
"49 304 LINE SMOOTH",
"8 110 OFFCURVE",
"113 -15 OFFCURVE",
"308 -15 CURVE SMOOTH"
);
},
{
closed = 1;
nodes = (
"636 757 LINE",
"661 875 LINE",
"306 875 LINE",
"281 757 LINE"
);
}
);
width = 724;
}
);
leftKerningGroup = U;
note = Umacron;
rightKerningGroup = U;
unicode = 016A;
},
{
glyphname = Uogonek;
lastChange = "2015-12-01 01:43:13 +0000";
layers = (
{
layerId = "3EB4D4D8-7151-4DFB-AE23-ECE37F7A1310";
name = "Bold Italic";
paths = (
{
closed = 1;
nodes = (
"557 -15 OFFCURVE",
"662 113 OFFCURVE",
"703 304 CURVE SMOOTH",
"787 699 LINE",
"580 699 LINE",
"497 306 LINE SMOOTH",
"478 220 OFFCURVE",
"447 176 OFFCURVE",
"344 176 CURVE SMOOTH",
"262 176 OFFCURVE",
"237 209 OFFCURVE",
"257 306 CURVE SMOOTH",
"340 699 LINE",
"133 699 LINE",
"49 304 LINE SMOOTH",
"8 110 OFFCURVE",
"113 -15 OFFCURVE",
"308 -15 CURVE SMOOTH"
);
},
{
closed = 1;
nodes = (
"301 -218 OFFCURVE",
"347 -211 OFFCURVE",
"378 -202 CURVE",
"401 -94 LINE",
"383 -102 OFFCURVE",
"365 -106 OFFCURVE",
"349 -106 CURVE SMOOTH",
"330 -106 OFFCURVE",
"317 -95 OFFCURVE",
"321 -78 CURVE SMOOTH",
"327 -50 OFFCURVE",
"360 -28 OFFCURVE",
"421 0 CURVE",
"239 0 LINE",
"192 -25 OFFCURVE",
"156 -65 OFFCURVE",
"144 -118 CURVE SMOOTH",
"130 -188 OFFCURVE",
"182 -218 OFFCURVE",
"259 -218 CURVE SMOOTH"
);
}
);
width = 724;
}
);
leftKerningGroup = U;
note = Uogonek;
rightKerningGroup = U;
unicode = 0172;
},
{
glyphname = Uring;
lastChange = "2015-12-01 01:43:10 +0000";
layers = (
{
layerId = "3EB4D4D8-7151-4DFB-AE23-ECE37F7A1310";
name = "Bold Italic";
paths = (
{
closed = 1;
nodes = (
"557 -15 OFFCURVE",
"662 113 OFFCURVE",
"703 304 CURVE SMOOTH",
"787 699 LINE",
"580 699 LINE",
"497 306 LINE SMOOTH",
"478 220 OFFCURVE",
"447 176 OFFCURVE",
"344 176 CURVE SMOOTH",
"262 176 OFFCURVE",
"237 209 OFFCURVE",
"257 306 CURVE SMOOTH",
"340 699 LINE",
"133 699 LINE",
"49 304 LINE SMOOTH",
"8 110 OFFCURVE",
"113 -15 OFFCURVE",
"308 -15 CURVE SMOOTH"
);
},
{
closed = 1;
nodes = (
"544 741 OFFCURVE",
"617 805 OFFCURVE",
"634 887 CURVE SMOOTH",
"652 970 OFFCURVE",
"598 1034 OFFCURVE",
"515 1034 CURVE SMOOTH",
"423 1034 OFFCURVE",
"353 970 OFFCURVE",
"335 887 CURVE SMOOTH",
"319 805 OFFCURVE",
"371 741 OFFCURVE",
"453 741 CURVE SMOOTH"
);
},
{
closed = 1;
nodes = (
"439 836 OFFCURVE",
"427 859 OFFCURVE",
"433 887 CURVE SMOOTH",
"440 917 OFFCURVE",
"467 939 OFFCURVE",
"495 939 CURVE SMOOTH",
"532 939 OFFCURVE",
"543 917 OFFCURVE",
"536 887 CURVE SMOOTH",
"530 859 OFFCURVE",
"503 836 OFFCURVE",
"473 836 CURVE SMOOTH"
);
}
);
width = 724;
}
);
leftKerningGroup = U;
note = Uring;
rightKerningGroup = U;
unicode = 016E;
},
{
glyphname = Utilde;
lastChange = "2015-12-01 01:43:12 +0000";
layers = (
{
layerId = "3EB4D4D8-7151-4DFB-AE23-ECE37F7A1310";
name = "Bold Italic";
paths = (
{
closed = 1;
nodes = (
"557 -15 OFFCURVE",
"662 113 OFFCURVE",
"703 304 CURVE SMOOTH",
"787 699 LINE",
"580 699 LINE",
"497 306 LINE SMOOTH",
"478 220 OFFCURVE",
"447 176 OFFCURVE",
"344 176 CURVE SMOOTH",
"262 176 OFFCURVE",
"237 209 OFFCURVE",
"257 306 CURVE SMOOTH",
"340 699 LINE",
"133 699 LINE",
"49 304 LINE SMOOTH",
"8 110 OFFCURVE",
"113 -15 OFFCURVE",
"308 -15 CURVE SMOOTH"
);
},
{
closed = 1;
nodes = (
"289 778 OFFCURVE",
"327 792 OFFCURVE",
"367 792 CURVE SMOOTH",
"431 792 OFFCURVE",
"485 742 OFFCURVE",
"558 742 CURVE SMOOTH",
"603 742 OFFCURVE",
"642 753 OFFCURVE",
"673 783 CURVE",
"702 923 LINE",
"665 888 OFFCURVE",
"627 874 OFFCURVE",
"586 874 CURVE SMOOTH",
"521 874 OFFCURVE",
"464 924 OFFCURVE",
"396 924 CURVE SMOOTH",
"352 924 OFFCURVE",
"311 912 OFFCURVE",
"280 883 CURVE",
"250 742 LINE"
);
}
);
width = 724;
}
);
leftKerningGroup = U;
note = Utilde;
rightKerningGroup = U;
unicode = 0168;
},
{
glyphname = V;
lastChange = "2015-12-01 01:43:09 +0000";
layers = (
{
layerId = "3EB4D4D8-7151-4DFB-AE23-ECE37F7A1310";
name = "Bold Italic";
paths = (
{
closed = 1;
nodes = (
"449 0 LINE",
"876 699 LINE",
"646 699 LINE",
"398 278 LINE",
"329 699 LINE",
"118 699 LINE",
"250 0 LINE"
);
}
);
width = 798;
}
);
note = V;
unicode = 0056;
},
{
glyphname = W;
lastChange = "2015-12-01 01:43:10 +0000";
layers = (
{
layerId = "3EB4D4D8-7151-4DFB-AE23-ECE37F7A1310";
name = "Bold Italic";
paths = (
{
closed = 1;
nodes = (
"360 0 LINE",
"533 371 LINE",
"550 0 LINE",
"734 0 LINE",
"1068 699 LINE",
"853 699 LINE",
"679 332 LINE",
"672 699 LINE",
"522 699 LINE",
"351 333 LINE",
"332 699 LINE",
"118 699 LINE",
"156 0 LINE"
);
}
);
width = 990;
}
);
leftKerningGroup = W;
note = W;
rightKerningGroup = W;
unicode = 0057;
},
{
glyphname = Wacute;
lastChange = "2015-12-01 01:43:12 +0000";
layers = (
{
layerId = "3EB4D4D8-7151-4DFB-AE23-ECE37F7A1310";
name = "Bold Italic";
paths = (
{
closed = 1;
nodes = (
"360 0 LINE",
"533 371 LINE",
"550 0 LINE",
"734 0 LINE",
"1068 699 LINE",
"853 699 LINE",
"679 332 LINE",
"672 699 LINE",
"522 699 LINE",
"351 333 LINE",
"332 699 LINE",
"118 699 LINE",
"156 0 LINE"
);
},
{
closed = 1;
nodes = (
"679 737 LINE",
"810 917 LINE",
"609 917 LINE",
"502 737 LINE"
);
}
);
width = 990;
}
);
leftKerningGroup = W;
note = Wacute;
rightKerningGroup = W;
unicode = 1E82;
},
{
glyphname = Wcircumflex;
lastChange = "2015-12-01 01:43:13 +0000";
layers = (
{
layerId = "3EB4D4D8-7151-4DFB-AE23-ECE37F7A1310";
name = "Bold Italic";
paths = (
{
closed = 1;
nodes = (
"360 0 LINE",
"533 371 LINE",
"550 0 LINE",
"734 0 LINE",
"1068 699 LINE",
"853 699 LINE",
"679 332 LINE",
"672 699 LINE",
"522 699 LINE",
"351 333 LINE",
"332 699 LINE",
"118 699 LINE",
"156 0 LINE"
);
},
{
closed = 1;
nodes = (
"536 748 LINE",
"609 819 LINE",
"652 748 LINE",
"819 748 LINE",
"708 920 LINE",
"543 920 LINE",
"359 748 LINE"
);
}
);
width = 990;
}
);
leftKerningGroup = W;
note = Wcircumflex;
rightKerningGroup = W;
unicode = 0174;
},
{
glyphname = Wdieresis;
lastChange = "2015-12-01 01:43:10 +0000";
layers = (
{
layerId = "3EB4D4D8-7151-4DFB-AE23-ECE37F7A1310";
name = "Bold Italic";
paths = (
{
closed = 1;
nodes = (
"360 0 LINE",
"533 371 LINE",
"550 0 LINE",
"734 0 LINE",
"1068 699 LINE",
"853 699 LINE",
"679 332 LINE",
"672 699 LINE",
"522 699 LINE",
"351 333 LINE",
"332 699 LINE",
"118 699 LINE",
"156 0 LINE"
);
},
{
closed = 1;
nodes = (
"516 742 OFFCURVE",
"560 777 OFFCURVE",
"570 823 CURVE SMOOTH",
"580 869 OFFCURVE",
"551 906 OFFCURVE",
"506 906 CURVE SMOOTH",
"463 906 OFFCURVE",
"416 869 OFFCURVE",
"406 823 CURVE SMOOTH",
"396 777 OFFCURVE",
"428 742 OFFCURVE",
"471 742 CURVE SMOOTH"
);
},
{
closed = 1;
nodes = (
"751 742 OFFCURVE",
"795 777 OFFCURVE",
"805 823 CURVE SMOOTH",
"815 869 OFFCURVE",
"786 906 OFFCURVE",
"742 906 CURVE SMOOTH",
"697 906 OFFCURVE",
"651 869 OFFCURVE",
"641 823 CURVE SMOOTH",
"631 777 OFFCURVE",
"662 742 OFFCURVE",
"707 742 CURVE SMOOTH"
);
}
);
width = 990;
}
);
leftKerningGroup = W;
note = Wdieresis;
rightKerningGroup = W;
unicode = 1E84;
},
{
glyphname = Wgrave;
lastChange = "2015-12-01 01:43:09 +0000";
layers = (
{
layerId = "3EB4D4D8-7151-4DFB-AE23-ECE37F7A1310";
name = "Bold Italic";
paths = (
{
closed = 1;
nodes = (
"360 0 LINE",
"533 371 LINE",
"550 0 LINE",
"734 0 LINE",
"1068 699 LINE",
"853 699 LINE",
"679 332 LINE",
"672 699 LINE",
"522 699 LINE",
"351 333 LINE",
"332 699 LINE",
"118 699 LINE",
"156 0 LINE"
);
},
{
closed = 1;
nodes = (
"677 737 LINE",
"646 917 LINE",
"445 917 LINE",
"500 737 LINE"
);
}
);
width = 990;
}
);
leftKerningGroup = W;
note = Wgrave;
rightKerningGroup = W;
unicode = 1E80;
},
{
glyphname = X;
lastChange = "2015-12-01 01:43:12 +0000";
layers = (
{
layerId = "3EB4D4D8-7151-4DFB-AE23-ECE37F7A1310";
name = "Bold Italic";
paths = (
{
closed = 1;
nodes = (
"207 0 LINE",
"380 186 LINE",
"475 0 LINE",
"712 0 LINE",
"534 351 LINE",
"858 699 LINE",
"621 699 LINE",
"450 516 LINE",
"358 699 LINE",
"121 699 LINE",
"297 351 LINE",
"-30 0 LINE"
);
}
);
width = 782;
}
);
note = X;
unicode = 0058;
},
{
glyphname = Y;
lastChange = "2015-12-01 01:43:10 +0000";
layers = (
{
layerId = "3EB4D4D8-7151-4DFB-AE23-ECE37F7A1310";
name = "Bold Italic";
paths = (
{
closed = 1;
nodes = (
"432 0 LINE",
"488 266 LINE",
"844 699 LINE",
"616 699 LINE",
"418 458 LINE",
"331 699 LINE",
"118 699 LINE",
"281 266 LINE",
"225 0 LINE"
);
}
);
width = 766;
}
);
leftKerningGroup = Y;
note = Y;
rightKerningGroup = Y;
unicode = 0059;
},
{
glyphname = Yacute;
lastChange = "2015-12-01 01:43:12 +0000";
layers = (
{
layerId = "3EB4D4D8-7151-4DFB-AE23-ECE37F7A1310";
name = "Bold Italic";
paths = (
{
closed = 1;
nodes = (
"432 0 LINE",
"488 266 LINE",
"844 699 LINE",
"616 699 LINE",
"418 458 LINE",
"331 699 LINE",
"118 699 LINE",
"281 266 LINE",
"225 0 LINE"
);
},
{
closed = 1;
nodes = (
"557 743 LINE",
"688 923 LINE",
"487 923 LINE",
"380 743 LINE"
);
}
);
width = 766;
}
);
leftKerningGroup = Y;
note = Yacute;
rightKerningGroup = Y;
unicode = 00DD;
},
{
glyphname = Ycircumflex;
lastChange = "2015-12-01 01:43:11 +0000";
layers = (
{
layerId = "3EB4D4D8-7151-4DFB-AE23-ECE37F7A1310";
name = "Bold Italic";
paths = (
{
closed = 1;
nodes = (
"432 0 LINE",
"488 266 LINE",
"844 699 LINE",
"616 699 LINE",
"418 458 LINE",
"331 699 LINE",
"118 699 LINE",
"281 266 LINE",
"225 0 LINE"
);
},
{
closed = 1;
nodes = (
"420 748 LINE",
"493 819 LINE",
"536 748 LINE",
"703 748 LINE",
"592 920 LINE",
"427 920 LINE",
"243 748 LINE"
);
}
);
width = 766;
}
);
leftKerningGroup = Y;
note = Ycircumflex;
rightKerningGroup = Y;
unicode = 0176;
},
{
glyphname = Ydieresis;
lastChange = "2015-12-01 01:43:10 +0000";
layers = (
{
layerId = "3EB4D4D8-7151-4DFB-AE23-ECE37F7A1310";
name = "Bold Italic";
paths = (
{
closed = 1;
nodes = (
"432 0 LINE",
"488 266 LINE",
"844 699 LINE",
"616 699 LINE",
"418 458 LINE",
"331 699 LINE",
"118 699 LINE",
"281 266 LINE",
"225 0 LINE"
);
},
{
closed = 1;
nodes = (
"395 747 OFFCURVE",
"439 782 OFFCURVE",
"449 828 CURVE SMOOTH",
"459 874 OFFCURVE",
"430 911 OFFCURVE",
"385 911 CURVE SMOOTH",
"342 911 OFFCURVE",
"295 874 OFFCURVE",
"285 828 CURVE SMOOTH",
"275 782 OFFCURVE",
"307 747 OFFCURVE",
"350 747 CURVE SMOOTH"
);
},
{
closed = 1;
nodes = (
"630 747 OFFCURVE",
"674 782 OFFCURVE",
"684 828 CURVE SMOOTH",
"694 874 OFFCURVE",
"665 911 OFFCURVE",
"621 911 CURVE SMOOTH",
"576 911 OFFCURVE",
"530 874 OFFCURVE",
"520 828 CURVE SMOOTH",
"510 782 OFFCURVE",
"541 747 OFFCURVE",
"586 747 CURVE SMOOTH"
);
}
);
width = 766;
}
);
leftKerningGroup = Y;
note = Ydieresis;
rightKerningGroup = Y;
unicode = 0178;
},
{
glyphname = Ydotaccent;
lastChange = "2015-12-01 01:43:13 +0000";
layers = (
{
layerId = "3EB4D4D8-7151-4DFB-AE23-ECE37F7A1310";
name = "Bold Italic";
paths = (
{
closed = 1;
nodes = (
"432 0 LINE",
"488 266 LINE",
"844 699 LINE",
"616 699 LINE",
"418 458 LINE",
"331 699 LINE",
"118 699 LINE",
"281 266 LINE",
"225 0 LINE"
);
},
{
closed = 1;
nodes = (
"513 742 OFFCURVE",
"556 777 OFFCURVE",
"566 823 CURVE SMOOTH",
"576 869 OFFCURVE",
"548 906 OFFCURVE",
"503 906 CURVE SMOOTH",
"458 906 OFFCURVE",
"412 869 OFFCURVE",
"402 823 CURVE SMOOTH",
"392 777 OFFCURVE",
"423 742 OFFCURVE",
"468 742 CURVE SMOOTH"
);
}
);
width = 766;
}
);
leftKerningGroup = Y;
note = Ydotaccent;
rightKerningGroup = Y;
unicode = 1E8E;
},
{
glyphname = Ydotbelow;
lastChange = "2015-12-01 01:43:13 +0000";
layers = (
{
layerId = "3EB4D4D8-7151-4DFB-AE23-ECE37F7A1310";
name = "Bold Italic";
paths = (
{
closed = 1;
nodes = (
"432 0 LINE",
"488 266 LINE",
"844 699 LINE",
"616 699 LINE",
"418 458 LINE",
"331 699 LINE",
"118 699 LINE",
"281 266 LINE",
"225 0 LINE"
);
},
{
closed = 1;
nodes = (
"336 -210 OFFCURVE",
"380 -174 OFFCURVE",
"389 -128 CURVE SMOOTH",
"399 -82 OFFCURVE",
"371 -46 OFFCURVE",
"327 -46 CURVE SMOOTH",
"282 -46 OFFCURVE",
"236 -82 OFFCURVE",
"226 -128 CURVE SMOOTH",
"217 -174 OFFCURVE",
"247 -210 OFFCURVE",
"292 -210 CURVE SMOOTH"
);
}
);
width = 766;
}
);
leftKerningGroup = Y;
note = Ydotbelow;
rightKerningGroup = Y;
unicode = 1EF4;
},
{
glyphname = Ygrave;
lastChange = "2015-12-01 01:43:11 +0000";
layers = (
{
layerId = "3EB4D4D8-7151-4DFB-AE23-ECE37F7A1310";
name = "Bold Italic";
paths = (
{
closed = 1;
nodes = (
"432 0 LINE",
"488 266 LINE",
"844 699 LINE",
"616 699 LINE",
"418 458 LINE",
"331 699 LINE",
"118 699 LINE",
"281 266 LINE",
"225 0 LINE"
);
},
{
closed = 1;
nodes = (
"561 737 LINE",
"530 917 LINE",
"329 917 LINE",
"384 737 LINE"
);
}
);
width = 766;
}
);
leftKerningGroup = Y;
note = Ygrave;
rightKerningGroup = Y;
unicode = 1EF2;
},
{
glyphname = Yhookabove;
lastChange = "2015-12-01 01:43:11 +0000";
layers = (
{
layerId = "3EB4D4D8-7151-4DFB-AE23-ECE37F7A1310";
name = "Bold Italic";
paths = (
{
closed = 1;
nodes = (
"432 0 LINE",
"488 266 LINE",
"844 699 LINE",
"616 699 LINE",
"418 458 LINE",
"331 699 LINE",
"118 699 LINE",
"281 266 LINE",
"225 0 LINE"
);
},
{
closed = 1;
nodes = (
"549 742 LINE",
"555 772 LINE",
"624 783 OFFCURVE",
"662 820 OFFCURVE",
"673 868 CURVE SMOOTH",
"686 933 OFFCURVE",
"641 978 OFFCURVE",
"528 978 CURVE SMOOTH",
"476 978 OFFCURVE",
"427 970 OFFCURVE",
"394 960 CURVE",
"376 876 LINE",
"389 881 OFFCURVE",
"417 886 OFFCURVE",
"440 886 CURVE SMOOTH",
"487 886 OFFCURVE",
"499 871 OFFCURVE",
"495 853 CURVE SMOOTH",
"489 825 OFFCURVE",
"453 814 OFFCURVE",
"398 814 CURVE",
"383 742 LINE"
);
}
);
width = 766;
}
);
leftKerningGroup = Y;
note = Yhookabove;
rightKerningGroup = Y;
unicode = 1EF6;
},
{
glyphname = Ytilde;
lastChange = "2015-12-01 01:43:09 +0000";
layers = (
{
layerId = "3EB4D4D8-7151-4DFB-AE23-ECE37F7A1310";
name = "Bold Italic";
paths = (
{
closed = 1;
nodes = (
"432 0 LINE",
"488 266 LINE",
"844 699 LINE",
"616 699 LINE",
"418 458 LINE",
"331 699 LINE",
"118 699 LINE",
"281 266 LINE",
"225 0 LINE"
);
},
{
closed = 1;
nodes = (
"299 778 OFFCURVE",
"337 792 OFFCURVE",
"377 792 CURVE SMOOTH",
"441 792 OFFCURVE",
"495 742 OFFCURVE",
"568 742 CURVE SMOOTH",
"613 742 OFFCURVE",
"652 753 OFFCURVE",
"683 783 CURVE",
"712 923 LINE",
"675 888 OFFCURVE",
"637 874 OFFCURVE",
"596 874 CURVE SMOOTH",
"531 874 OFFCURVE",
"474 924 OFFCURVE",
"406 924 CURVE SMOOTH",
"362 924 OFFCURVE",
"321 912 OFFCURVE",
"290 883 CURVE",
"260 742 LINE"
);
}
);
width = 766;
}
);
leftKerningGroup = Y;
note = Ytilde;
rightKerningGroup = Y;
unicode = 1EF8;
},
{
glyphname = Z;
lastChange = "2015-12-01 01:43:11 +0000";
layers = (
{
layerId = "3EB4D4D8-7151-4DFB-AE23-ECE37F7A1310";
name = "Bold Italic";
paths = (
{
closed = 1;
nodes = (
"541 0 LINE",
"577 174 LINE",
"263 174 LINE",
"637 562 LINE",
"666 699 LINE",
"125 699 LINE",
"88 525 LINE",
"373 525 LINE",
"-2 136 LINE",
"-30 0 LINE"
);
}
);
width = 611;
}
);
leftKerningGroup = Z;
note = Z;
rightKerningGroup = Z;
unicode = 005A;
},
{
glyphname = Zacute;
lastChange = "2015-12-01 01:43:11 +0000";
layers = (
{
layerId = "3EB4D4D8-7151-4DFB-AE23-ECE37F7A1310";
name = "Bold Italic";
paths = (
{
closed = 1;
nodes = (
"541 0 LINE",
"577 174 LINE",
"263 174 LINE",
"637 562 LINE",
"666 699 LINE",
"125 699 LINE",
"88 525 LINE",
"373 525 LINE",
"-2 136 LINE",
"-30 0 LINE"
);
},
{
closed = 1;
nodes = (
"458 737 LINE",
"589 917 LINE",
"388 917 LINE",
"281 737 LINE"
);
}
);
width = 611;
}
);
leftKerningGroup = Z;
note = Zacute;
rightKerningGroup = Z;
unicode = 0179;
},
{
glyphname = Zcaron;
lastChange = "2015-12-01 01:43:10 +0000";
layers = (
{
layerId = "3EB4D4D8-7151-4DFB-AE23-ECE37F7A1310";
name = "Bold Italic";
paths = (
{
closed = 1;
nodes = (
"541 0 LINE",
"577 174 LINE",
"263 174 LINE",
"637 562 LINE",
"666 699 LINE",
"125 699 LINE",
"88 525 LINE",
"373 525 LINE",
"-2 136 LINE",
"-30 0 LINE"
);
},
{
closed = 1;
nodes = (
"475 748 LINE",
"660 920 LINE",
"483 920 LINE",
"410 849 LINE",
"367 920 LINE",
"200 920 LINE",
"310 748 LINE"
);
}
);
width = 611;
}
);
leftKerningGroup = Z;
note = Zcaron;
rightKerningGroup = Z;
unicode = 017D;
},
{
glyphname = Zdotaccent;
lastChange = "2015-12-01 01:43:12 +0000";
layers = (
{
layerId = "3EB4D4D8-7151-4DFB-AE23-ECE37F7A1310";
name = "Bold Italic";
paths = (
{
closed = 1;
nodes = (
"541 0 LINE",
"577 174 LINE",
"263 174 LINE",
"637 562 LINE",
"666 699 LINE",
"125 699 LINE",
"88 525 LINE",
"373 525 LINE",
"-2 136 LINE",
"-30 0 LINE"
);
},
{
closed = 1;
nodes = (
"435 742 OFFCURVE",
"478 777 OFFCURVE",
"488 823 CURVE SMOOTH",
"498 869 OFFCURVE",
"470 906 OFFCURVE",
"425 906 CURVE SMOOTH",
"380 906 OFFCURVE",
"334 869 OFFCURVE",
"324 823 CURVE SMOOTH",
"314 777 OFFCURVE",
"345 742 OFFCURVE",
"390 742 CURVE SMOOTH"
);
}
);
width = 611;
}
);
leftKerningGroup = Z;
note = Zdotaccent;
rightKerningGroup = Z;
unicode = 017B;
},
{
glyphname = Zdotbelow;
lastChange = "2015-12-01 01:43:11 +0000";
layers = (
{
layerId = "3EB4D4D8-7151-4DFB-AE23-ECE37F7A1310";
name = "Bold Italic";
paths = (
{
closed = 1;
nodes = (
"541 0 LINE",
"577 174 LINE",
"263 174 LINE",
"637 562 LINE",
"666 699 LINE",
"125 699 LINE",
"88 525 LINE",
"373 525 LINE",
"-2 136 LINE",
"-30 0 LINE"
);
},
{
closed = 1;
nodes = (
"247 -210 OFFCURVE",
"291 -174 OFFCURVE",
"300 -128 CURVE SMOOTH",
"310 -82 OFFCURVE",
"282 -46 OFFCURVE",
"238 -46 CURVE SMOOTH",
"193 -46 OFFCURVE",
"147 -82 OFFCURVE",
"137 -128 CURVE SMOOTH",
"128 -174 OFFCURVE",
"158 -210 OFFCURVE",
"203 -210 CURVE SMOOTH"
);
}
);
width = 611;
}
);
leftKerningGroup = Z;
note = Zdotbelow;
rightKerningGroup = Z;
unicode = 1E92;
},
{
glyphname = a;
lastChange = "2015-12-01 01:43:12 +0000";
layers = (
{
layerId = "3EB4D4D8-7151-4DFB-AE23-ECE37F7A1310";
name = "Bold Italic";
paths = (
{
closed = 1;
nodes = (
"285 -15 OFFCURVE",
"347 6 OFFCURVE",
"395 44 CURVE",
"386 0 LINE",
"579 0 LINE",
"681 480 LINE",
"481 480 LINE",
"473 445 LINE",
"444 475 OFFCURVE",
"393 495 OFFCURVE",
"330 495 CURVE SMOOTH",
"165 495 OFFCURVE",
"53 391 OFFCURVE",
"20 239 CURVE SMOOTH",
"-12 85 OFFCURVE",
"76 -15 OFFCURVE",
"221 -15 CURVE SMOOTH"
);
},
{
closed = 1;
nodes = (
"236 140 OFFCURVE",
"214 175 OFFCURVE",
"227 239 CURVE SMOOTH",
"241 303 OFFCURVE",
"290 339 OFFCURVE",
"351 339 CURVE SMOOTH",
"396 339 OFFCURVE",
"429 316 OFFCURVE",
"438 279 CURVE",
"421 200 LINE",
"396 163 OFFCURVE",
"353 140 OFFCURVE",
"308 140 CURVE SMOOTH"
);
}
);
width = 669;
}
);
leftKerningGroup = a;
note = a;
rightKerningGroup = a;
unicode = 0061;
},
{
glyphname = aacute;
lastChange = "2015-12-01 01:43:10 +0000";
layers = (
{
layerId = "3EB4D4D8-7151-4DFB-AE23-ECE37F7A1310";
name = "Bold Italic";
paths = (
{
closed = 1;
nodes = (
"285 -15 OFFCURVE",
"347 6 OFFCURVE",
"395 44 CURVE",
"386 0 LINE",
"579 0 LINE",
"681 480 LINE",
"481 480 LINE",
"473 445 LINE",
"444 475 OFFCURVE",
"393 495 OFFCURVE",
"330 495 CURVE SMOOTH",
"165 495 OFFCURVE",
"53 391 OFFCURVE",
"20 239 CURVE SMOOTH",
"-12 85 OFFCURVE",
"76 -15 OFFCURVE",
"221 -15 CURVE SMOOTH"
);
},
{
closed = 1;
nodes = (
"236 140 OFFCURVE",
"214 175 OFFCURVE",
"227 239 CURVE SMOOTH",
"241 303 OFFCURVE",
"290 339 OFFCURVE",
"351 339 CURVE SMOOTH",
"396 339 OFFCURVE",
"429 316 OFFCURVE",
"438 279 CURVE",
"421 200 LINE",
"396 163 OFFCURVE",
"353 140 OFFCURVE",
"308 140 CURVE SMOOTH"
);
},
{
closed = 1;
nodes = (
"464 517 LINE",
"595 697 LINE",
"394 697 LINE",
"287 517 LINE"
);
}
);
width = 669;
}
);
leftKerningGroup = a;
note = aacute;
rightKerningGroup = a;
unicode = 00E1;
},
{
glyphname = abreve;
lastChange = "2015-12-01 01:43:10 +0000";
layers = (
{
layerId = "3EB4D4D8-7151-4DFB-AE23-ECE37F7A1310";
name = "Bold Italic";
paths = (
{
closed = 1;
nodes = (
"285 -15 OFFCURVE",
"347 6 OFFCURVE",
"395 44 CURVE",
"386 0 LINE",
"579 0 LINE",
"681 480 LINE",
"481 480 LINE",
"473 445 LINE",
"444 475 OFFCURVE",
"393 495 OFFCURVE",
"330 495 CURVE SMOOTH",
"165 495 OFFCURVE",
"53 391 OFFCURVE",
"20 239 CURVE SMOOTH",
"-12 85 OFFCURVE",
"76 -15 OFFCURVE",
"221 -15 CURVE SMOOTH"
);
},
{
closed = 1;
nodes = (
"236 140 OFFCURVE",
"214 175 OFFCURVE",
"227 239 CURVE SMOOTH",
"241 303 OFFCURVE",
"290 339 OFFCURVE",
"351 339 CURVE SMOOTH",
"396 339 OFFCURVE",
"429 316 OFFCURVE",
"438 279 CURVE",
"421 200 LINE",
"396 163 OFFCURVE",
"353 140 OFFCURVE",
"308 140 CURVE SMOOTH"
);
},
{
closed = 1;
nodes = (
"521 521 OFFCURVE",
"605 592 OFFCURVE",
"629 705 CURVE",
"475 705 LINE",
"467 665 OFFCURVE",
"447 645 OFFCURVE",
"418 645 CURVE SMOOTH",
"388 645 OFFCURVE",
"377 665 OFFCURVE",
"385 705 CURVE",
"242 705 LINE",
"218 592 OFFCURVE",
"272 521 OFFCURVE",
"396 521 CURVE SMOOTH"
);
}
);
width = 669;
}
);
leftKerningGroup = a;
note = abreve;
rightKerningGroup = a;
unicode = 0103;
},
{
glyphname = abreveacute;
lastChange = "2015-12-01 01:43:12 +0000";
layers = (
{
layerId = "3EB4D4D8-7151-4DFB-AE23-ECE37F7A1310";
name = "Bold Italic";
paths = (
{
closed = 1;
nodes = (
"285 -15 OFFCURVE",
"347 6 OFFCURVE",
"395 44 CURVE",
"386 0 LINE",
"579 0 LINE",
"681 480 LINE",
"481 480 LINE",
"473 445 LINE",
"444 475 OFFCURVE",
"393 495 OFFCURVE",
"330 495 CURVE SMOOTH",
"165 495 OFFCURVE",
"53 391 OFFCURVE",
"20 239 CURVE SMOOTH",
"-12 85 OFFCURVE",
"76 -15 OFFCURVE",
"221 -15 CURVE SMOOTH"
);
},
{
closed = 1;
nodes = (
"236 140 OFFCURVE",
"214 175 OFFCURVE",
"227 239 CURVE SMOOTH",
"241 303 OFFCURVE",
"290 339 OFFCURVE",
"351 339 CURVE SMOOTH",
"396 339 OFFCURVE",
"429 316 OFFCURVE",
"438 279 CURVE",
"421 200 LINE",
"396 163 OFFCURVE",
"353 140 OFFCURVE",
"308 140 CURVE SMOOTH"
);
},
{
closed = 1;
nodes = (
"516 520 OFFCURVE",
"602 579 OFFCURVE",
"622 676 CURVE",
"496 676 LINE",
"489 641 OFFCURVE",
"467 623 OFFCURVE",
"431 623 CURVE SMOOTH",
"394 623 OFFCURVE",
"380 641 OFFCURVE",
"387 676 CURVE",
"260 676 LINE",
"240 579 OFFCURVE",
"302 520 OFFCURVE",
"409 520 CURVE SMOOTH"
);
},
{
closed = 1;
nodes = (
"517 696 LINE",
"619 830 LINE",
"455 830 LINE",
"375 696 LINE"
);
}
);
width = 669;
}
);
leftKerningGroup = a;
note = abreveacute;
rightKerningGroup = a;
unicode = 1EAF;
},
{
glyphname = abrevedotbelow;
lastChange = "2015-12-01 01:43:11 +0000";
layers = (
{
layerId = "3EB4D4D8-7151-4DFB-AE23-ECE37F7A1310";
name = "Bold Italic";
paths = (
{
closed = 1;
nodes = (
"285 -15 OFFCURVE",
"347 6 OFFCURVE",
"395 44 CURVE",
"386 0 LINE",
"579 0 LINE",
"681 480 LINE",
"481 480 LINE",
"473 445 LINE",
"444 475 OFFCURVE",
"393 495 OFFCURVE",
"330 495 CURVE SMOOTH",
"165 495 OFFCURVE",
"53 391 OFFCURVE",
"20 239 CURVE SMOOTH",
"-12 85 OFFCURVE",
"76 -15 OFFCURVE",
"221 -15 CURVE SMOOTH"
);
},
{
closed = 1;
nodes = (
"298 -210 OFFCURVE",
"342 -174 OFFCURVE",
"351 -128 CURVE SMOOTH",
"361 -82 OFFCURVE",
"333 -46 OFFCURVE",
"289 -46 CURVE SMOOTH",
"244 -46 OFFCURVE",
"198 -82 OFFCURVE",
"188 -128 CURVE SMOOTH",
"179 -174 OFFCURVE",
"209 -210 OFFCURVE",
"254 -210 CURVE SMOOTH"
);
},
{
closed = 1;
nodes = (
"236 140 OFFCURVE",
"214 175 OFFCURVE",
"227 239 CURVE SMOOTH",
"241 303 OFFCURVE",
"290 339 OFFCURVE",
"351 339 CURVE SMOOTH",
"396 339 OFFCURVE",
"429 316 OFFCURVE",
"438 279 CURVE",
"421 200 LINE",
"396 163 OFFCURVE",
"353 140 OFFCURVE",
"308 140 CURVE SMOOTH"
);
},
{
closed = 1;
nodes = (
"512 521 OFFCURVE",
"596 592 OFFCURVE",
"620 705 CURVE",
"466 705 LINE",
"458 665 OFFCURVE",
"438 645 OFFCURVE",
"409 645 CURVE SMOOTH",
"379 645 OFFCURVE",
"368 665 OFFCURVE",
"376 705 CURVE",
"233 705 LINE",
"209 592 OFFCURVE",
"263 521 OFFCURVE",
"387 521 CURVE SMOOTH"
);
}
);
width = 669;
}
);
leftKerningGroup = a;
note = abrevedotbelow;
rightKerningGroup = a;
unicode = 1EB7;
},
{
glyphname = abrevegrave;
lastChange = "2015-12-01 01:43:10 +0000";
layers = (
{
layerId = "3EB4D4D8-7151-4DFB-AE23-ECE37F7A1310";
name = "Bold Italic";
paths = (
{
closed = 1;
nodes = (
"285 -15 OFFCURVE",
"347 6 OFFCURVE",
"395 44 CURVE",
"386 0 LINE",
"579 0 LINE",
"681 480 LINE",
"481 480 LINE",
"473 445 LINE",
"444 475 OFFCURVE",
"393 495 OFFCURVE",
"330 495 CURVE SMOOTH",
"165 495 OFFCURVE",
"53 391 OFFCURVE",
"20 239 CURVE SMOOTH",
"-12 85 OFFCURVE",
"76 -15 OFFCURVE",
"221 -15 CURVE SMOOTH"
);
},
{
closed = 1;
nodes = (
"236 140 OFFCURVE",
"214 175 OFFCURVE",
"227 239 CURVE SMOOTH",
"241 303 OFFCURVE",
"290 339 OFFCURVE",
"351 339 CURVE SMOOTH",
"396 339 OFFCURVE",
"429 316 OFFCURVE",
"438 279 CURVE",
"421 200 LINE",
"396 163 OFFCURVE",
"353 140 OFFCURVE",
"308 140 CURVE SMOOTH"
);
},
{
closed = 1;
nodes = (
"522 519 OFFCURVE",
"608 578 OFFCURVE",
"628 675 CURVE",
"502 675 LINE",
"495 640 OFFCURVE",
"473 622 OFFCURVE",
"437 622 CURVE SMOOTH",
"400 622 OFFCURVE",
"387 640 OFFCURVE",
"394 675 CURVE",
"266 675 LINE",
"246 578 OFFCURVE",
"308 519 OFFCURVE",
"415 519 CURVE SMOOTH"
);
},
{
closed = 1;
nodes = (
"525 695 LINE",
"501 829 LINE",
"336 829 LINE",
"382 695 LINE"
);
}
);
width = 669;
}
);
leftKerningGroup = a;
note = abrevegrave;
rightKerningGroup = a;
unicode = 1EB1;
},
{
glyphname = abrevehookabove;
lastChange = "2015-12-01 01:43:10 +0000";
layers = (
{
layerId = "3EB4D4D8-7151-4DFB-AE23-ECE37F7A1310";
name = "Bold Italic";
paths = (
{
closed = 1;
nodes = (
"285 -15 OFFCURVE",
"347 6 OFFCURVE",
"395 44 CURVE",
"386 0 LINE",
"579 0 LINE",
"681 480 LINE",
"481 480 LINE",
"473 445 LINE",
"444 475 OFFCURVE",
"393 495 OFFCURVE",
"330 495 CURVE SMOOTH",
"165 495 OFFCURVE",
"53 391 OFFCURVE",
"20 239 CURVE SMOOTH",
"-12 85 OFFCURVE",
"76 -15 OFFCURVE",
"221 -15 CURVE SMOOTH"
);
},
{
closed = 1;
nodes = (
"236 140 OFFCURVE",
"214 175 OFFCURVE",
"227 239 CURVE SMOOTH",
"241 303 OFFCURVE",
"290 339 OFFCURVE",
"351 339 CURVE SMOOTH",
"396 339 OFFCURVE",
"429 316 OFFCURVE",
"438 279 CURVE",
"421 200 LINE",
"396 163 OFFCURVE",
"353 140 OFFCURVE",
"308 140 CURVE SMOOTH"
);
},
{
closed = 1;
nodes = (
"519 519 OFFCURVE",
"605 578 OFFCURVE",
"625 675 CURVE",
"499 675 LINE",
"492 640 OFFCURVE",
"470 622 OFFCURVE",
"434 622 CURVE SMOOTH",
"397 622 OFFCURVE",
"384 640 OFFCURVE",
"391 675 CURVE",
"263 675 LINE",
"243 578 OFFCURVE",
"305 519 OFFCURVE",
"412 519 CURVE SMOOTH"
);
},
{
closed = 1;
nodes = (
"513 689 LINE",
"518 709 LINE",
"558 719 OFFCURVE",
"582 741 OFFCURVE",
"590 776 CURVE SMOOTH",
"599 821 OFFCURVE",
"569 851 OFFCURVE",
"493 851 CURVE SMOOTH",
"464 851 OFFCURVE",
"422 846 OFFCURVE",
"398 839 CURVE",
"385 775 LINE",
"392 779 OFFCURVE",
"409 781 OFFCURVE",
"420 781 CURVE SMOOTH",
"446 781 OFFCURVE",
"457 774 OFFCURVE",
"454 760 CURVE",
"451 742 OFFCURVE",
"430 736 OFFCURVE",
"400 736 CURVE",
"390 689 LINE"
);
}
);
width = 669;
}
);
leftKerningGroup = a;
note = abrevehookabove;
rightKerningGroup = a;
unicode = 1EB3;
},
{
glyphname = abrevetilde;
lastChange = "2015-12-01 01:43:11 +0000";
layers = (
{
layerId = "3EB4D4D8-7151-4DFB-AE23-ECE37F7A1310";
name = "Bold Italic";
paths = (
{
closed = 1;
nodes = (
"285 -15 OFFCURVE",
"347 6 OFFCURVE",
"395 44 CURVE",
"386 0 LINE",
"579 0 LINE",
"681 480 LINE",
"481 480 LINE",
"473 445 LINE",
"444 475 OFFCURVE",
"393 495 OFFCURVE",
"330 495 CURVE SMOOTH",
"165 495 OFFCURVE",
"53 391 OFFCURVE",
"20 239 CURVE SMOOTH",
"-12 85 OFFCURVE",
"76 -15 OFFCURVE",
"221 -15 CURVE SMOOTH"
);
},
{
closed = 1;
nodes = (
"236 140 OFFCURVE",
"214 175 OFFCURVE",
"227 239 CURVE SMOOTH",
"241 303 OFFCURVE",
"290 339 OFFCURVE",
"351 339 CURVE SMOOTH",
"396 339 OFFCURVE",
"429 316 OFFCURVE",
"438 279 CURVE",
"421 200 LINE",
"396 163 OFFCURVE",
"353 140 OFFCURVE",
"308 140 CURVE SMOOTH"
);
},
{
closed = 1;
nodes = (
"522 520 OFFCURVE",
"608 579 OFFCURVE",
"628 676 CURVE",
"502 676 LINE",
"495 641 OFFCURVE",
"473 623 OFFCURVE",
"437 623 CURVE SMOOTH",
"400 623 OFFCURVE",
"387 641 OFFCURVE",
"394 676 CURVE",
"266 676 LINE",
"246 579 OFFCURVE",
"308 520 OFFCURVE",
"415 520 CURVE SMOOTH"
);
},
{
closed = 1;
nodes = (
"569 699 OFFCURVE",
"600 708 OFFCURVE",
"625 731 CURVE",
"648 839 LINE",
"618 811 OFFCURVE",
"586 799 OFFCURVE",
"555 799 CURVE SMOOTH",
"503 799 OFFCURVE",
"455 840 OFFCURVE",
"401 840 CURVE SMOOTH",
"365 840 OFFCURVE",
"334 830 OFFCURVE",
"309 807 CURVE",
"286 700 LINE",
"316 728 OFFCURVE",
"348 740 OFFCURVE",
"380 740 CURVE SMOOTH",
"431 740 OFFCURVE",
"476 699 OFFCURVE",
"534 699 CURVE SMOOTH"
);
}
);
width = 669;
}
);
leftKerningGroup = a;
note = abrevetilde;
rightKerningGroup = a;
unicode = 1EB5;
},
{
glyphname = acaron;
lastChange = "2015-12-01 01:43:11 +0000";
layers = (
{
layerId = "3EB4D4D8-7151-4DFB-AE23-ECE37F7A1310";
name = "Bold Italic";
paths = (
{
closed = 1;
nodes = (
"285 -15 OFFCURVE",
"347 6 OFFCURVE",
"395 44 CURVE",
"386 0 LINE",
"579 0 LINE",
"681 480 LINE",
"481 480 LINE",
"473 445 LINE",
"444 475 OFFCURVE",
"393 495 OFFCURVE",
"330 495 CURVE SMOOTH",
"165 495 OFFCURVE",
"53 391 OFFCURVE",
"20 239 CURVE SMOOTH",
"-12 85 OFFCURVE",
"76 -15 OFFCURVE",
"221 -15 CURVE SMOOTH"
);
},
{
closed = 1;
nodes = (
"236 140 OFFCURVE",
"214 175 OFFCURVE",
"227 239 CURVE SMOOTH",
"241 303 OFFCURVE",
"290 339 OFFCURVE",
"351 339 CURVE SMOOTH",
"396 339 OFFCURVE",
"429 316 OFFCURVE",
"438 279 CURVE",
"421 200 LINE",
"396 163 OFFCURVE",
"353 140 OFFCURVE",
"308 140 CURVE SMOOTH"
);
},
{
closed = 1;
nodes = (
"488 528 LINE",
"673 700 LINE",
"496 700 LINE",
"423 629 LINE",
"380 700 LINE",
"213 700 LINE",
"323 528 LINE"
);
}
);
width = 669;
}
);
leftKerningGroup = a;
note = acaron;
rightKerningGroup = a;
unicode = 01CE;
},
{
glyphname = acircumflex;
lastChange = "2015-12-01 01:43:09 +0000";
layers = (
{
layerId = "3EB4D4D8-7151-4DFB-AE23-ECE37F7A1310";
name = "Bold Italic";
paths = (
{
closed = 1;
nodes = (
"285 -15 OFFCURVE",
"347 6 OFFCURVE",
"395 44 CURVE",
"386 0 LINE",
"579 0 LINE",
"681 480 LINE",
"481 480 LINE",
"473 445 LINE",
"444 475 OFFCURVE",
"393 495 OFFCURVE",
"330 495 CURVE SMOOTH",
"165 495 OFFCURVE",
"53 391 OFFCURVE",
"20 239 CURVE SMOOTH",
"-12 85 OFFCURVE",
"76 -15 OFFCURVE",
"221 -15 CURVE SMOOTH"
);
},
{
closed = 1;
nodes = (
"236 140 OFFCURVE",
"214 175 OFFCURVE",
"227 239 CURVE SMOOTH",
"241 303 OFFCURVE",
"290 339 OFFCURVE",
"351 339 CURVE SMOOTH",
"396 339 OFFCURVE",
"429 316 OFFCURVE",
"438 279 CURVE",
"421 200 LINE",
"396 163 OFFCURVE",
"353 140 OFFCURVE",
"308 140 CURVE SMOOTH"
);
},
{
closed = 1;
nodes = (
"339 528 LINE",
"412 599 LINE",
"455 528 LINE",
"622 528 LINE",
"511 700 LINE",
"346 700 LINE",
"162 528 LINE"
);
}
);
width = 669;
}
);
leftKerningGroup = a;
note = acircumflex;
rightKerningGroup = a;
unicode = 00E2;
},
{
glyphname = acircumflexacute;
lastChange = "2015-12-01 01:43:12 +0000";
layers = (
{
layerId = "3EB4D4D8-7151-4DFB-AE23-ECE37F7A1310";
name = "Bold Italic";
paths = (
{
closed = 1;
nodes = (
"285 -15 OFFCURVE",
"347 6 OFFCURVE",
"395 44 CURVE",
"386 0 LINE",
"579 0 LINE",
"681 480 LINE",
"481 480 LINE",
"473 445 LINE",
"444 475 OFFCURVE",
"393 495 OFFCURVE",
"330 495 CURVE SMOOTH",
"165 495 OFFCURVE",
"53 391 OFFCURVE",
"20 239 CURVE SMOOTH",
"-12 85 OFFCURVE",
"76 -15 OFFCURVE",
"221 -15 CURVE SMOOTH"
);
},
{
closed = 1;
nodes = (
"236 140 OFFCURVE",
"214 175 OFFCURVE",
"227 239 CURVE SMOOTH",
"241 303 OFFCURVE",
"290 339 OFFCURVE",
"351 339 CURVE SMOOTH",
"396 339 OFFCURVE",
"429 316 OFFCURVE",
"438 279 CURVE",
"421 200 LINE",
"396 163 OFFCURVE",
"353 140 OFFCURVE",
"308 140 CURVE SMOOTH"
);
},
{
closed = 1;
nodes = (
"337 521 LINE",
"413 589 LINE",
"459 521 LINE",
"622 521 LINE",
"498 680 LINE",
"365 680 LINE",
"173 521 LINE"
);
},
{
closed = 1;
nodes = (
"698 645 LINE",
"811 789 LINE",
"647 789 LINE",
"558 645 LINE"
);
}
);
width = 669;
}
);
leftKerningGroup = a;
note = acircumflexacute;
rightKerningGroup = a;
unicode = 1EA5;
},
{
glyphname = acircumflexdotbelow;
lastChange = "2015-12-01 01:43:10 +0000";
layers = (
{
layerId = "3EB4D4D8-7151-4DFB-AE23-ECE37F7A1310";
name = "Bold Italic";
paths = (
{
closed = 1;
nodes = (
"285 -15 OFFCURVE",
"347 6 OFFCURVE",
"395 44 CURVE",
"386 0 LINE",
"579 0 LINE",
"681 480 LINE",
"481 480 LINE",
"473 445 LINE",
"444 475 OFFCURVE",
"393 495 OFFCURVE",
"330 495 CURVE SMOOTH",
"165 495 OFFCURVE",
"53 391 OFFCURVE",
"20 239 CURVE SMOOTH",
"-12 85 OFFCURVE",
"76 -15 OFFCURVE",
"221 -15 CURVE SMOOTH"
);
},
{
closed = 1;
nodes = (
"292 -210 OFFCURVE",
"336 -174 OFFCURVE",
"345 -128 CURVE SMOOTH",
"355 -82 OFFCURVE",
"327 -46 OFFCURVE",
"283 -46 CURVE SMOOTH",
"238 -46 OFFCURVE",
"192 -82 OFFCURVE",
"182 -128 CURVE SMOOTH",
"173 -174 OFFCURVE",
"203 -210 OFFCURVE",
"248 -210 CURVE SMOOTH"
);
},
{
closed = 1;
nodes = (
"236 140 OFFCURVE",
"214 175 OFFCURVE",
"227 239 CURVE SMOOTH",
"241 303 OFFCURVE",
"290 339 OFFCURVE",
"351 339 CURVE SMOOTH",
"396 339 OFFCURVE",
"429 316 OFFCURVE",
"438 279 CURVE",
"421 200 LINE",
"396 163 OFFCURVE",
"353 140 OFFCURVE",
"308 140 CURVE SMOOTH"
);
},
{
closed = 1;
nodes = (
"328 528 LINE",
"401 599 LINE",
"444 528 LINE",
"611 528 LINE",
"500 700 LINE",
"335 700 LINE",
"151 528 LINE"
);
}
);
width = 669;
}
);
leftKerningGroup = a;
note = acircumflexdotbelow;
rightKerningGroup = a;
unicode = 1EAD;
},
{
glyphname = acircumflexgrave;
lastChange = "2015-12-01 01:43:11 +0000";
layers = (
{
layerId = "3EB4D4D8-7151-4DFB-AE23-ECE37F7A1310";
name = "Bold Italic";
paths = (
{
closed = 1;
nodes = (
"285 -15 OFFCURVE",
"347 6 OFFCURVE",
"395 44 CURVE",
"386 0 LINE",
"579 0 LINE",
"681 480 LINE",
"481 480 LINE",
"473 445 LINE",
"444 475 OFFCURVE",
"393 495 OFFCURVE",
"330 495 CURVE SMOOTH",
"165 495 OFFCURVE",
"53 391 OFFCURVE",
"20 239 CURVE SMOOTH",
"-12 85 OFFCURVE",
"76 -15 OFFCURVE",
"221 -15 CURVE SMOOTH"
);
},
{
closed = 1;
nodes = (
"236 140 OFFCURVE",
"214 175 OFFCURVE",
"227 239 CURVE SMOOTH",
"241 303 OFFCURVE",
"290 339 OFFCURVE",
"351 339 CURVE SMOOTH",
"396 339 OFFCURVE",
"429 316 OFFCURVE",
"438 279 CURVE",
"421 200 LINE",
"396 163 OFFCURVE",
"353 140 OFFCURVE",
"308 140 CURVE SMOOTH"
);
},
{
closed = 1;
nodes = (
"299 645 LINE",
"272 789 LINE",
"108 789 LINE",
"159 645 LINE"
);
},
{
closed = 1;
nodes = (
"347 521 LINE",
"423 589 LINE",
"469 521 LINE",
"632 521 LINE",
"508 680 LINE",
"376 680 LINE",
"183 521 LINE"
);
}
);
width = 669;
}
);
leftKerningGroup = a;
note = acircumflexgrave;
rightKerningGroup = a;
unicode = 1EA7;
},
{
glyphname = acircumflexhookabove;
lastChange = "2015-12-01 01:43:11 +0000";
layers = (
{
layerId = "3EB4D4D8-7151-4DFB-AE23-ECE37F7A1310";
name = "Bold Italic";
paths = (
{
closed = 1;
nodes = (
"285 -15 OFFCURVE",
"347 6 OFFCURVE",
"395 44 CURVE",
"386 0 LINE",
"579 0 LINE",
"681 480 LINE",
"481 480 LINE",
"473 445 LINE",
"444 475 OFFCURVE",
"393 495 OFFCURVE",
"330 495 CURVE SMOOTH",
"165 495 OFFCURVE",
"53 391 OFFCURVE",
"20 239 CURVE SMOOTH",
"-12 85 OFFCURVE",
"76 -15 OFFCURVE",
"221 -15 CURVE SMOOTH"
);
},
{
closed = 1;
nodes = (
"236 140 OFFCURVE",
"214 175 OFFCURVE",
"227 239 CURVE SMOOTH",
"241 303 OFFCURVE",
"290 339 OFFCURVE",
"351 339 CURVE SMOOTH",
"396 339 OFFCURVE",
"429 316 OFFCURVE",
"438 279 CURVE",
"421 200 LINE",
"396 163 OFFCURVE",
"353 140 OFFCURVE",
"308 140 CURVE SMOOTH"
);
},
{
closed = 1;
nodes = (
"341 521 LINE",
"417 589 LINE",
"463 521 LINE",
"626 521 LINE",
"502 680 LINE",
"369 680 LINE",
"177 521 LINE"
);
},
{
closed = 1;
nodes = (
"677 634 LINE",
"682 659 LINE",
"722 670 OFFCURVE",
"749 692 OFFCURVE",
"756 725 CURVE SMOOTH",
"766 770 OFFCURVE",
"733 800 OFFCURVE",
"658 800 CURVE SMOOTH",
"629 800 OFFCURVE",
"587 794 OFFCURVE",
"563 788 CURVE",
"549 724 LINE",
"559 728 OFFCURVE",
"575 730 OFFCURVE",
"586 730 CURVE SMOOTH",
"612 730 OFFCURVE",
"623 723 OFFCURVE",
"620 709 CURVE SMOOTH",
"616 691 OFFCURVE",
"596 685 OFFCURVE",
"566 685 CURVE",
"555 634 LINE"
);
}
);
width = 669;
}
);
leftKerningGroup = a;
note = acircumflexhookabove;
rightKerningGroup = a;
unicode = 1EA9;
},
{
glyphname = acircumflextilde;
lastChange = "2015-12-01 01:43:09 +0000";
layers = (
{
layerId = "3EB4D4D8-7151-4DFB-AE23-ECE37F7A1310";
name = "Bold Italic";
paths = (
{
closed = 1;
nodes = (
"285 -15 OFFCURVE",
"347 6 OFFCURVE",
"395 44 CURVE",
"386 0 LINE",
"579 0 LINE",
"681 480 LINE",
"481 480 LINE",
"473 445 LINE",
"444 475 OFFCURVE",
"393 495 OFFCURVE",
"330 495 CURVE SMOOTH",
"165 495 OFFCURVE",
"53 391 OFFCURVE",
"20 239 CURVE SMOOTH",
"-12 85 OFFCURVE",
"76 -15 OFFCURVE",
"221 -15 CURVE SMOOTH"
);
},
{
closed = 1;
nodes = (
"236 140 OFFCURVE",
"214 175 OFFCURVE",
"227 239 CURVE SMOOTH",
"241 303 OFFCURVE",
"290 339 OFFCURVE",
"351 339 CURVE SMOOTH",
"396 339 OFFCURVE",
"429 316 OFFCURVE",
"438 279 CURVE",
"421 200 LINE",
"396 163 OFFCURVE",
"353 140 OFFCURVE",
"308 140 CURVE SMOOTH"
);
},
{
closed = 1;
nodes = (
"346 521 LINE",
"422 589 LINE",
"468 521 LINE",
"631 521 LINE",
"507 680 LINE",
"374 680 LINE",
"182 521 LINE"
);
},
{
closed = 1;
nodes = (
"569 691 OFFCURVE",
"600 700 OFFCURVE",
"625 723 CURVE",
"648 831 LINE",
"618 803 OFFCURVE",
"586 791 OFFCURVE",
"553 791 CURVE SMOOTH",
"503 791 OFFCURVE",
"455 832 OFFCURVE",
"401 832 CURVE SMOOTH",
"365 832 OFFCURVE",
"334 822 OFFCURVE",
"309 799 CURVE",
"286 692 LINE",
"316 720 OFFCURVE",
"348 732 OFFCURVE",
"380 732 CURVE SMOOTH",
"431 732 OFFCURVE",
"476 691 OFFCURVE",
"533 691 CURVE SMOOTH"
);
}
);
width = 669;
}
);
leftKerningGroup = a;
note = acircumflextilde;
rightKerningGroup = a;
unicode = 1EAB;
},
{
glyphname = adieresis;
lastChange = "2015-12-01 01:43:13 +0000";
layers = (
{
layerId = "3EB4D4D8-7151-4DFB-AE23-ECE37F7A1310";
name = "Bold Italic";
paths = (
{
closed = 1;
nodes = (
"285 -15 OFFCURVE",
"347 6 OFFCURVE",
"395 44 CURVE",
"386 0 LINE",
"579 0 LINE",
"681 480 LINE",
"481 480 LINE",
"473 445 LINE",
"444 475 OFFCURVE",
"393 495 OFFCURVE",
"330 495 CURVE SMOOTH",
"165 495 OFFCURVE",
"53 391 OFFCURVE",
"20 239 CURVE SMOOTH",
"-12 85 OFFCURVE",
"76 -15 OFFCURVE",
"221 -15 CURVE SMOOTH"
);
},
{
closed = 1;
nodes = (
"236 140 OFFCURVE",
"214 175 OFFCURVE",
"227 239 CURVE SMOOTH",
"241 303 OFFCURVE",
"290 339 OFFCURVE",
"351 339 CURVE SMOOTH",
"396 339 OFFCURVE",
"429 316 OFFCURVE",
"438 279 CURVE",
"421 200 LINE",
"396 163 OFFCURVE",
"353 140 OFFCURVE",
"308 140 CURVE SMOOTH"
);
},
{
closed = 1;
nodes = (
"314 519 OFFCURVE",
"358 554 OFFCURVE",
"368 600 CURVE SMOOTH",
"378 646 OFFCURVE",
"349 683 OFFCURVE",
"304 683 CURVE SMOOTH",
"261 683 OFFCURVE",
"214 646 OFFCURVE",
"204 600 CURVE SMOOTH",
"194 554 OFFCURVE",
"226 519 OFFCURVE",
"269 519 CURVE SMOOTH"
);
},
{
closed = 1;
nodes = (
"549 519 OFFCURVE",
"593 554 OFFCURVE",
"603 600 CURVE SMOOTH",
"613 646 OFFCURVE",
"584 683 OFFCURVE",
"540 683 CURVE SMOOTH",
"495 683 OFFCURVE",
"449 646 OFFCURVE",
"439 600 CURVE SMOOTH",
"429 554 OFFCURVE",
"460 519 OFFCURVE",
"505 519 CURVE SMOOTH"
);
}
);
width = 669;
}
);
leftKerningGroup = a;
note = adieresis;
rightKerningGroup = a;
unicode = 00E4;
},
{
glyphname = adotbelow;
lastChange = "2015-12-01 01:43:11 +0000";
layers = (
{
layerId = "3EB4D4D8-7151-4DFB-AE23-ECE37F7A1310";
name = "Bold Italic";
paths = (
{
closed = 1;
nodes = (
"285 -15 OFFCURVE",
"347 6 OFFCURVE",
"395 44 CURVE",
"386 0 LINE",
"579 0 LINE",
"681 480 LINE",
"481 480 LINE",
"473 445 LINE",
"444 475 OFFCURVE",
"393 495 OFFCURVE",
"330 495 CURVE SMOOTH",
"165 495 OFFCURVE",
"53 391 OFFCURVE",
"20 239 CURVE SMOOTH",
"-12 85 OFFCURVE",
"76 -15 OFFCURVE",
"221 -15 CURVE SMOOTH"
);
},
{
closed = 1;
nodes = (
"293 -210 OFFCURVE",
"337 -174 OFFCURVE",
"346 -128 CURVE SMOOTH",
"356 -82 OFFCURVE",
"328 -46 OFFCURVE",
"284 -46 CURVE SMOOTH",
"239 -46 OFFCURVE",
"193 -82 OFFCURVE",
"183 -128 CURVE SMOOTH",
"174 -174 OFFCURVE",
"204 -210 OFFCURVE",
"249 -210 CURVE SMOOTH"
);
},
{
closed = 1;
nodes = (
"236 140 OFFCURVE",
"214 175 OFFCURVE",
"227 239 CURVE SMOOTH",
"241 303 OFFCURVE",
"290 339 OFFCURVE",
"351 339 CURVE SMOOTH",
"396 339 OFFCURVE",
"429 316 OFFCURVE",
"438 279 CURVE",
"421 200 LINE",
"396 163 OFFCURVE",
"353 140 OFFCURVE",
"308 140 CURVE SMOOTH"
);
}
);
width = 669;
}
);
leftKerningGroup = a;
note = adotbelow;
rightKerningGroup = a;
unicode = 1EA1;
},
{
glyphname = agrave;
lastChange = "2015-12-01 01:43:12 +0000";
layers = (
{
layerId = "3EB4D4D8-7151-4DFB-AE23-ECE37F7A1310";
name = "Bold Italic";
paths = (
{
closed = 1;
nodes = (
"285 -15 OFFCURVE",
"347 6 OFFCURVE",
"395 44 CURVE",
"386 0 LINE",
"579 0 LINE",
"681 480 LINE",
"481 480 LINE",
"473 445 LINE",
"444 475 OFFCURVE",
"393 495 OFFCURVE",
"330 495 CURVE SMOOTH",
"165 495 OFFCURVE",
"53 391 OFFCURVE",
"20 239 CURVE SMOOTH",
"-12 85 OFFCURVE",
"76 -15 OFFCURVE",
"221 -15 CURVE SMOOTH"
);
},
{
closed = 1;
nodes = (
"236 140 OFFCURVE",
"214 175 OFFCURVE",
"227 239 CURVE SMOOTH",
"241 303 OFFCURVE",
"290 339 OFFCURVE",
"351 339 CURVE SMOOTH",
"396 339 OFFCURVE",
"429 316 OFFCURVE",
"438 279 CURVE",
"421 200 LINE",
"396 163 OFFCURVE",
"353 140 OFFCURVE",
"308 140 CURVE SMOOTH"
);
},
{
closed = 1;
nodes = (
"509 517 LINE",
"478 697 LINE",
"277 697 LINE",
"332 517 LINE"
);
}
);
width = 669;
}
);
leftKerningGroup = a;
note = agrave;
rightKerningGroup = a;
unicode = 00E0;
},
{
glyphname = ahookabove;
lastChange = "2015-12-01 01:43:10 +0000";
layers = (
{
layerId = "3EB4D4D8-7151-4DFB-AE23-ECE37F7A1310";
name = "Bold Italic";
paths = (
{
closed = 1;
nodes = (
"285 -15 OFFCURVE",
"347 6 OFFCURVE",
"395 44 CURVE",
"386 0 LINE",
"579 0 LINE",
"681 480 LINE",
"481 480 LINE",
"473 445 LINE",
"444 475 OFFCURVE",
"393 495 OFFCURVE",
"330 495 CURVE SMOOTH",
"165 495 OFFCURVE",
"53 391 OFFCURVE",
"20 239 CURVE SMOOTH",
"-12 85 OFFCURVE",
"76 -15 OFFCURVE",
"221 -15 CURVE SMOOTH"
);
},
{
closed = 1;
nodes = (
"236 140 OFFCURVE",
"214 175 OFFCURVE",
"227 239 CURVE SMOOTH",
"241 303 OFFCURVE",
"290 339 OFFCURVE",
"351 339 CURVE SMOOTH",
"396 339 OFFCURVE",
"429 316 OFFCURVE",
"438 279 CURVE",
"421 200 LINE",
"396 163 OFFCURVE",
"353 140 OFFCURVE",
"308 140 CURVE SMOOTH"
);
},
{
closed = 1;
nodes = (
"454 521 LINE",
"460 551 LINE",
"529 562 OFFCURVE",
"567 599 OFFCURVE",
"578 647 CURVE SMOOTH",
"591 712 OFFCURVE",
"546 757 OFFCURVE",
"433 757 CURVE SMOOTH",
"381 757 OFFCURVE",
"332 749 OFFCURVE",
"299 739 CURVE",
"281 655 LINE",
"294 660 OFFCURVE",
"322 665 OFFCURVE",
"345 665 CURVE SMOOTH",
"392 665 OFFCURVE",
"404 650 OFFCURVE",
"400 632 CURVE SMOOTH",
"394 604 OFFCURVE",
"358 593 OFFCURVE",
"303 593 CURVE",
"288 521 LINE"
);
}
);
width = 669;
}
);
leftKerningGroup = a;
note = ahookabove;
rightKerningGroup = a;
unicode = 1EA3;
},
{
glyphname = "alpha-latin";
lastChange = "2015-12-01 01:43:11 +0000";
layers = (
{
layerId = "3EB4D4D8-7151-4DFB-AE23-ECE37F7A1310";
name = "Bold Italic";
paths = (
{
closed = 1;
nodes = (
"285 -15 OFFCURVE",
"352 6 OFFCURVE",
"395 44 CURVE",
"386 0 LINE",
"579 0 LINE",
"681 480 LINE",
"481 480 LINE",
"473 445 LINE",
"444 475 OFFCURVE",
"393 495 OFFCURVE",
"330 495 CURVE SMOOTH",
"163 495 OFFCURVE",
"53 391 OFFCURVE",
"20 239 CURVE SMOOTH",
"-12 85 OFFCURVE",
"76 -15 OFFCURVE",
"221 -15 CURVE SMOOTH"
);
},
{
closed = 1;
nodes = (
"234 140 OFFCURVE",
"214 175 OFFCURVE",
"227 239 CURVE SMOOTH",
"241 303 OFFCURVE",
"290 339 OFFCURVE",
"351 339 CURVE SMOOTH",
"396 339 OFFCURVE",
"429 316 OFFCURVE",
"438 279 CURVE",
"421 200 LINE",
"396 163 OFFCURVE",
"353 140 OFFCURVE",
"308 140 CURVE SMOOTH"
);
}
);
width = 669;
}
);
leftKerningGroup = a;
note = ascript;
rightKerningGroup = a;
unicode = 0251;
},
{
glyphname = amacron;
lastChange = "2015-12-01 01:43:12 +0000";
layers = (
{
layerId = "3EB4D4D8-7151-4DFB-AE23-ECE37F7A1310";
name = "Bold Italic";
paths = (
{
closed = 1;
nodes = (
"285 -15 OFFCURVE",
"347 6 OFFCURVE",
"395 44 CURVE",
"386 0 LINE",
"579 0 LINE",
"681 480 LINE",
"481 480 LINE",
"473 445 LINE",
"444 475 OFFCURVE",
"393 495 OFFCURVE",
"330 495 CURVE SMOOTH",
"165 495 OFFCURVE",
"53 391 OFFCURVE",
"20 239 CURVE SMOOTH",
"-12 85 OFFCURVE",
"76 -15 OFFCURVE",
"221 -15 CURVE SMOOTH"
);
},
{
closed = 1;
nodes = (
"236 140 OFFCURVE",
"214 175 OFFCURVE",
"227 239 CURVE SMOOTH",
"241 303 OFFCURVE",
"290 339 OFFCURVE",
"351 339 CURVE SMOOTH",
"396 339 OFFCURVE",
"429 316 OFFCURVE",
"438 279 CURVE",
"421 200 LINE",
"396 163 OFFCURVE",
"353 140 OFFCURVE",
"308 140 CURVE SMOOTH"
);
},
{
closed = 1;
nodes = (
"563 531 LINE",
"588 649 LINE",
"233 649 LINE",
"208 531 LINE"
);
}
);
width = 669;
}
);
leftKerningGroup = a;
note = amacron;
rightKerningGroup = a;
unicode = 0101;
},
